<svg width="281.61533883328315" height="319.2" viewBox="0 0 312.5 354.2065585392428" xmlns="http://www.w3.org/2000/svg">
  <g transform="matrix(6.301672250887788,0,0,6.301672250887788,-0.06297031579007886,-0.036717584046948144)" fill="#141010">
    <path d="M23.11 55.76L1.7 43.4a3.39 3.39 0 0 1-1.69-2.94v-24.7a3.39 3.39 0 0 1 1.69-2.94L23.11.46a3.39 3.39 0 0 1 3.39 0l21.41 12.36a3.39 3.39 0 0 1 1.69 2.94v24.73a3.39 3.39 0 0 1-1.69 2.94L26.5 55.76a3.39 3.39 0 0 1-3.39 0z"></path>
  </g>
  <g transform="matrix(0.5407888746155958,0,0,0.5407888746155958,112.73634953894192,94.29605562692203)" fill="#ffffff">
    <g>
      <path d="M80,5C39.215,5,6.035,38.184,6.035,78.972c0,24.237,11.716,45.788,29.782,59.288c1.85-1.324,4.112-2.113,6.56-2.113h3.011   c-19.309-11.735-32.234-32.974-32.234-57.175c0-36.863,29.987-66.854,66.847-66.854s66.847,29.991,66.847,66.854   c0,24.201-12.925,45.439-32.234,57.175h3.017c2.447,0,4.707,0.789,6.557,2.111c18.064-13.5,29.779-35.05,29.779-59.286   C153.965,38.184,120.785,5,80,5z"></path>
      <path d="M77.707,41.337h4.576c1.123,0,2.034-0.911,2.034-2.034s-0.911-2.034-2.034-2.034h-4.576c-1.123,0-2.034,0.911-2.034,2.034   S76.584,41.337,77.707,41.337z"></path>
      <path d="M117.63,139.706h-14.532c-4.031,0-7.312-3.257-7.312-7.261v-11.228c-1.294,0.583-2.725,0.915-4.236,0.915   c-1.51,0-2.941-0.332-4.236-0.915v11.228c0,4.004-3.28,7.261-7.312,7.261s-7.312-3.257-7.312-7.261v-11.231   c-1.296,0.584-2.729,0.917-4.242,0.917c-1.512,0-2.944-0.333-4.24-0.917v11.23c0,4.004-3.28,7.261-7.312,7.261H42.376   c-4.25,0-7.708,3.43-7.708,7.647S38.126,155,42.376,155h75.253c4.25,0,7.708-3.43,7.708-7.647S121.88,139.706,117.63,139.706z"></path>
      <path d="M91.213,30.922l-5.143-8.304c-1.303-2.107-3.567-3.367-6.055-3.37c-0.003,0-0.005,0-0.008,0   c-2.489,0-4.755,1.256-6.066,3.367l-5.148,8.308c-1.984,3.209-3.033,6.894-3.033,10.656l-0.001,13.043   c0,1.894-0.452,3.782-1.308,5.46c-4.102,8.047-15.757,26.356-20.578,33.854c-1.407,2.19-1.507,4.969-0.26,7.252   c1.255,2.299,3.667,3.727,6.294,3.727l11.766,0.001v6.914c0,3.717,3.04,6.742,6.778,6.742c3.737,0,6.777-3.025,6.777-6.742v-6.913   l9.546,0.001v6.912c0,3.717,3.04,6.742,6.777,6.742c3.737,0,6.777-3.025,6.777-6.742v-6.91l11.765,0.001c0,0,0,0,0,0   c2.628,0,5.04-1.428,6.295-3.727c1.247-2.283,1.147-5.062-0.26-7.25c-4.82-7.499-16.472-25.812-20.57-33.857   c-0.855-1.679-1.307-3.568-1.307-5.462l0.001-13.042C94.253,37.829,93.203,34.144,91.213,30.922z M72.877,41.58   c0.001-2.439,0.682-4.831,1.968-6.911l5.172-8.305l5.142,8.303c1.293,2.092,1.976,4.484,1.976,6.914l-0.002,13.043   c0,0.185,0.011,0.368,0.016,0.552c-0.003,0.048-0.014,0.094-0.014,0.143v42.477l-14.281-0.004V72.418   c0-0.128-0.019-0.251-0.038-0.374c0.018-0.123,0.038-0.246,0.038-0.375V55.333c0.009-0.237,0.021-0.474,0.021-0.711L72.877,41.58z    M49.859,97.786c4.896-7.616,12.868-20.178,17.91-28.961v2.845c0,0.128,0.019,0.251,0.038,0.375   c-0.018,0.123-0.038,0.246-0.038,0.374v25.372L49.859,97.786z M70.142,111.83c0,0.914-0.759,1.657-1.693,1.657   c-0.933,0-1.693-0.744-1.693-1.657v-6.914l3.386,0V111.83z M93.243,111.83c0,0.914-0.759,1.657-1.693,1.657   c-0.934,0-1.693-0.744-1.693-1.657v-6.911h3.385V111.83z M110.132,97.799c-0.001,0-0.011,0.003-0.038,0.003L92.22,97.797V68.799   C97.259,77.584,105.239,90.168,110.132,97.799z"></path>
    </g>
  </g>
  <g transform="matrix(1.19560009096164,0,0,1.19560009096164,53.03491175161087,185.08751992978478)" fill="#ffffff">
    <path d="M2.48 40 l0 -28 l7.76 0 l0 11.36 l9.64 -11.36 l9.2 0 l-10.6 12.04 l10.96 15.96 l-9.32 0 l-7.04 -10.4 l-2.84 3.16 l0 7.24 l-7.76 0 z M40.56 40.52 c-6.8 0 -11.6 -4.52 -11.6 -11.24 l0 -0.08 c0 -6.32 4.52 -11.32 10.92 -11.32 c7.48 0 10.92 5.48 10.92 11.84 c0 0.48 0 1.04 -0.04 1.56 l-14.48 0 c0.6 2.36 2.32 3.56 4.68 3.56 c1.8 0 3.24 -0.68 4.8 -2.2 l4.2 3.48 c-2.08 2.64 -5.08 4.4 -9.4 4.4 z M36.16 27.4 l7.52 0 c-0.28 -2.4 -1.68 -3.92 -3.76 -3.92 c-2 0 -3.36 1.56 -3.76 3.92 z M54.04 40 l0 -21.64 l7.6 0 l0 4.36 c1.24 -2.96 3.24 -4.88 6.84 -4.72 l0 8 l-0.64 0 c-3.96 0 -6.2 2.28 -6.2 7.28 l0 6.72 l-7.6 0 z M85.36 40.48 c-3.28 0 -5.2 -1.48 -6.6 -3.12 l0 2.64 l-7.6 0 l0 -29.2 l7.6 0 l0 10.44 c1.48 -1.8 3.32 -3.36 6.56 -3.36 c5.16 0 9.6 4.28 9.6 11.2 l0 0.08 c0 7.04 -4.44 11.32 -9.56 11.32 z M83 34.12 c2.48 0 4.44 -2 4.44 -4.92 l0 -0.08 c0 -2.84 -1.96 -4.88 -4.44 -4.88 c-2.44 0 -4.4 2.04 -4.4 4.88 l0 0.08 c0 2.88 1.96 4.92 4.4 4.92 z M109.24 40.52 c-6.92 0 -11.92 -5.08 -11.92 -11.24 l0 -0.08 c0 -6.16 5.04 -11.32 12 -11.32 c6.92 0 11.92 5.08 11.92 11.24 l0 0.08 c0 6.16 -5.04 11.32 -12 11.32 z M109.32 34.08 c2.76 0 4.52 -2.2 4.52 -4.8 l0 -0.08 c0 -2.64 -1.92 -4.88 -4.6 -4.88 c-2.76 0 -4.52 2.2 -4.52 4.8 l0 0.08 c0 2.64 1.92 4.88 4.6 4.88 z M132.4 40.48 c-4.88 0 -7.88 -2.04 -9.84 -4.72 l5 -4.72 c1.36 1.64 2.64 2.6 4.36 2.6 c1.96 0 3.2 -1.32 3.2 -3.92 l0 -17.72 l7.72 0 l0 17.76 c0 3.52 -0.88 6 -2.76 7.88 c-1.84 1.84 -4.48 2.84 -7.68 2.84 z M158.44 40.48 c-4.96 0 -9.68 -1.56 -13.12 -4.64 l4.32 -5.16 c2.76 2.2 5.84 3.36 9.08 3.36 c2.08 0 3.2 -0.72 3.2 -1.92 l0 -0.08 c0 -1.16 -0.92 -1.8 -4.72 -2.68 c-5.96 -1.36 -10.56 -3.04 -10.56 -8.8 l0 -0.08 c0 -5.2 4.12 -8.96 10.84 -8.96 c4.76 0 8.48 1.28 11.52 3.72 l-3.88 5.48 c-2.56 -1.8 -5.36 -2.76 -7.84 -2.76 c-1.88 0 -2.8 0.8 -2.8 1.8 l0 0.08 c0 1.28 0.96 1.84 4.84 2.72 c6.44 1.4 10.44 3.48 10.44 8.72 l0 0.08 c0 5.72 -4.52 9.12 -11.32 9.12 z"></path>
  </g>
  <g transform="matrix(0.7468817720207667,0,0,0.7468817720207667,54.10292032755853,243.6075141188531)" fill="#ffffff">
    <path d="M2.54 18.76 l0 -10.76 c0 -0.42 0.32 -0.64 0.64 -0.64 s0.66 0.22 0.66 0.64 l0 4.84 l3.86 -5.18 c0.5 -0.68 1.64 -0.02 1.12 0.68 l-2.24 3.08 l2.74 7.1 c0.18 0.48 -0.18 0.88 -0.6 0.88 c-0.24 0 -0.52 -0.18 -0.66 -0.56 c-0.78 -2 -1.62 -4.08 -2.4 -6.12 l-1.82 2.36 l0 3.68 c0 0.42 -0.34 0.64 -0.66 0.64 s-0.64 -0.22 -0.64 -0.64 z M13.96 15.86 l0 -4.96 c0 -2.4 1.24 -3.68 3.64 -3.68 l0.52 0 c2.38 0 3.64 1.28 3.64 3.68 l0 4.96 c0 2.2 -1.46 3.64 -3.64 3.64 l-0.52 0 c-2.22 0 -3.64 -1.46 -3.64 -3.64 z M17.6 18.16 l0.52 0 c1.44 0 2.3 -0.9 2.3 -2.3 l0 -4.96 c0 -1.56 -0.76 -2.36 -2.3 -2.36 l-0.52 0 c-1.52 0 -2.36 0.82 -2.36 2.36 l0 4.96 c0 1.46 0.92 2.3 2.36 2.3 z M26.28 17.68 c-0.44 -0.82 0.68 -1.42 1.2 -0.6 c0.26 0.42 1.04 1.14 2.28 1.14 c0.52 0 1.82 -0.38 2 -1.86 c0.12 -0.9 -0.74 -1.78 -2.22 -2.52 c-2.08 -0.98 -3.66 -1.84 -3.66 -3.56 c0 -2.04 1.72 -3 3.56 -3 c1.66 0 2.58 1.02 2.9 1.54 c0.46 0.74 -0.54 1.46 -1.1 0.74 c-0.28 -0.36 -0.82 -0.96 -1.8 -0.96 c-1.1 0 -2.24 0.52 -2.24 1.68 c0 0.92 1.02 1.44 2.54 2.16 c1.78 0.88 3.64 1.74 3.36 4.08 c-0.22 1.84 -1.62 3.02 -3.34 3.02 c-1.3 0 -2.9 -0.7 -3.48 -1.86 z M45.24 16.94 c0.38 0.68 0.82 1.22 1.86 1.22 c1.4 0 1.88 -1.32 1.88 -2.66 l0 -7.5 c0 -0.44 0.32 -0.64 0.64 -0.64 c0.34 0 0.7 0.22 0.7 0.64 l0 7.5 c0 2.46 -1.18 4 -3.22 4 c-1.68 0 -2.44 -0.92 -2.98 -1.88 c-0.48 -0.84 0.7 -1.42 1.12 -0.68 z M61.08 18.86 l-0.78 -2.54 l-3.72 0 l-0.74 2.5 c-0.26 0.86 -1.58 0.6 -1.3 -0.28 c1.04 -3.5 2.06 -7.06 3.08 -10.6 c0.12 -0.38 0.44 -0.58 0.76 -0.58 c0.3 0 0.62 0.2 0.74 0.58 l3.18 10.6 c0.22 0.76 -0.96 1.18 -1.22 0.32 z M58.42 10.06 l-1.44 4.92 l2.94 0 c-0.5 -1.68 -0.96 -3.12 -1.5 -4.92 z M67.32000000000001 7.800000000000001 l2.62 9.02 l2.74 -8.98 c0.26 -0.86 1.48 -0.52 1.24 0.32 l-3.2 10.68 c-0.1 0.36 -0.42 0.56 -0.76 0.56 s-0.7 -0.2 -0.8 -0.56 l-3.06 -10.66 c-0.26 -0.9 1 -1.16 1.22 -0.38 z M84.14000000000001 18.86 l-0.78 -2.54 l-3.72 0 l-0.74 2.5 c-0.26 0.86 -1.58 0.6 -1.3 -0.28 c1.04 -3.5 2.06 -7.06 3.08 -10.6 c0.12 -0.38 0.44 -0.58 0.76 -0.58 c0.3 0 0.62 0.2 0.74 0.58 l3.18 10.6 c0.22 0.76 -0.96 1.18 -1.22 0.32 z M81.48 10.06 l-1.44 4.92 l2.94 0 c-0.5 -1.68 -0.96 -3.12 -1.5 -4.92 z M89.52000000000001 17.68 c-0.44 -0.82 0.68 -1.42 1.2 -0.6 c0.26 0.42 1.04 1.14 2.28 1.14 c0.52 0 1.82 -0.38 2 -1.86 c0.12 -0.9 -0.74 -1.78 -2.22 -2.52 c-2.08 -0.98 -3.66 -1.84 -3.66 -3.56 c0 -2.04 1.72 -3 3.56 -3 c1.66 0 2.58 1.02 2.9 1.54 c0.46 0.74 -0.54 1.46 -1.1 0.74 c-0.28 -0.36 -0.82 -0.96 -1.8 -0.96 c-1.1 0 -2.24 0.52 -2.24 1.68 c0 0.92 1.02 1.44 2.54 2.16 c1.78 0.88 3.64 1.74 3.36 4.08 c-0.22 1.84 -1.62 3.02 -3.34 3.02 c-1.3 0 -2.9 -0.7 -3.48 -1.86 z M104.44 7.32 c1.82 0 3.76 0.7 3.76 2.76 c0 0.48 -0.32 0.7 -0.66 0.7 s-0.7 -0.24 -0.7 -0.7 c0 -0.16 -0.1 -1.46 -2.4 -1.46 c-1.82 0 -2.62 0.72 -2.62 2.44 l0 4.82 c0 1.74 0.98 2.28 2.62 2.28 c1.66 0 2.58 -0.68 2.58 -2.3 c0 -0.46 0.34 -0.68 0.66 -0.68 c0.34 0 0.66 0.22 0.66 0.68 c0 2.7 -1.5 3.6 -3.9 3.6 c-2.6 0 -3.92 -0.96 -3.92 -3.58 l0 -4.82 c0 -2.84 1.42 -3.74 3.92 -3.74 z M114.42 15.9 l0 2.86 c0 0.44 -0.34 0.64 -0.66 0.64 c-0.34 0 -0.66 -0.2 -0.66 -0.64 l0 -10.74 c0 -0.4 0.22 -0.66 0.66 -0.66 l2.7 0 c0.76 0 3.16 0.22 3.16 2.92 l0 2.5 c0 1.52 -0.56 2.48 -1.84 2.9 l1.36 2.74 c0.28 0.54 -0.14 0.98 -0.58 0.98 c-0.24 0 -0.54 -0.16 -0.7 -0.5 l-1.46 -3 l-1.98 0 z M118.30000000000001 12.780000000000001 l0 -2.5 c0 -0.48 -0.18 -1.58 -1.84 -1.58 l-2.04 0 l0 5.86 l1.86 0 c0.98 0 2.02 -0.22 2.02 -1.78 z M124.48000000000002 18.78 l0 -10.78 c0 -0.42 0.32 -0.64 0.64 -0.64 s0.66 0.22 0.66 0.64 l0 10.78 c0 0.86 -1.3 0.86 -1.3 0 z M137.32000000000002 10.28 l0 2.5 c0 2.38 -1.24 3.14 -3.34 3.14 l-1.86 0 l0 2.84 c0 0.42 -0.34 0.64 -0.66 0.64 c-0.34 0 -0.66 -0.22 -0.66 -0.64 l0 -10.74 c0 -0.38 0.32 -0.66 0.66 -0.66 l2.7 0 c1.1 0 3.16 0.22 3.16 2.92 z M134.16 8.7 l-2.04 0 l0 5.86 l1.86 0 c0.98 0 2.04 -0.24 2.02 -1.8 l-0.02 -2.48 c0 -0.48 -0.08 -1.58 -1.82 -1.58 z M141.10000000000002 7.359999999999999 l6.04 0 c0.42 0 0.62 0.34 0.62 0.68 s-0.2 0.66 -0.62 0.66 l-2.28 0 l0 10.06 c0 0.42 -0.34 0.64 -0.68 0.64 s-0.66 -0.22 -0.66 -0.64 l0 -10.06 l-2.42 0 c-0.42 0 -0.62 -0.32 -0.62 -0.66 s0.2 -0.68 0.62 -0.68 z M159.48 18.78 l0 -10.78 c0 -0.42 0.32 -0.64 0.64 -0.64 s0.66 0.22 0.66 0.64 l0 10.78 c0 0.86 -1.3 0.86 -1.3 0 z M172.56 8 l0 10.76 c0 0.42 -0.32 0.64 -0.64 0.64 c-0.24 0 -0.56 -0.18 -0.7 -0.44 c-1.5 -2.94 -2.62 -5.2 -4.12 -8.16 l0 7.96 c0 0.42 -0.32 0.64 -0.66 0.64 c-0.32 0 -0.66 -0.22 -0.66 -0.64 l0 -10.76 c0 -0.7 1 -0.74 1.22 -0.32 l4.22 8.34 l0 -8.02 c0 -0.42 0.32 -0.64 0.66 -0.64 s0.68 0.22 0.68 0.64 z M177.3 7.359999999999999 l6.04 0 c0.42 0 0.62 0.34 0.62 0.68 s-0.2 0.66 -0.62 0.66 l-2.28 0 l0 10.06 c0 0.42 -0.34 0.64 -0.68 0.64 s-0.66 -0.22 -0.66 -0.64 l0 -10.06 l-2.42 0 c-0.42 0 -0.62 -0.32 -0.62 -0.66 s0.2 -0.68 0.62 -0.68 z M188.16 18.7 l0 -10.64 c0 -0.46 0.36 -0.7 0.7 -0.7 l4.6 0 c0.44 0 0.66 0.32 0.66 0.66 s-0.22 0.68 -0.66 0.68 l-3.96 0 l0 3.88 l3.14 0 c0.46 0 0.68 0.32 0.68 0.66 s-0.24 0.7 -0.68 0.7 l-3.14 0 l0 4.14 l3.96 0 c0.42 0 0.64 0.34 0.64 0.66 c0 0.34 -0.22 0.66 -0.64 0.66 l-4.6 0 c-0.34 0 -0.7 -0.12 -0.7 -0.7 z M200.06 15.9 l0 2.86 c0 0.44 -0.34 0.64 -0.66 0.64 c-0.34 0 -0.66 -0.2 -0.66 -0.64 l0 -10.74 c0 -0.4 0.22 -0.66 0.66 -0.66 l2.7 0 c0.76 0 3.16 0.22 3.16 2.92 l0 2.5 c0 1.52 -0.56 2.48 -1.84 2.9 l1.36 2.74 c0.28 0.54 -0.14 0.98 -0.58 0.98 c-0.24 0 -0.54 -0.16 -0.7 -0.5 l-1.46 -3 l-1.98 0 z M203.94 12.780000000000001 l0 -2.5 c0 -0.48 -0.18 -1.58 -1.84 -1.58 l-2.04 0 l0 5.86 l1.86 0 c0.98 0 2.02 -0.22 2.02 -1.78 z M216.66000000000003 10.28 l0 2.5 c0 2.38 -1.24 3.14 -3.34 3.14 l-1.86 0 l0 2.84 c0 0.42 -0.34 0.64 -0.66 0.64 c-0.34 0 -0.66 -0.22 -0.66 -0.64 l0 -10.74 c0 -0.38 0.32 -0.66 0.66 -0.66 l2.7 0 c1.1 0 3.16 0.22 3.16 2.92 z M213.5 8.7 l-2.04 0 l0 5.86 l1.86 0 c0.98 0 2.04 -0.24 2.02 -1.8 l-0.02 -2.48 c0 -0.48 -0.08 -1.58 -1.82 -1.58 z M222.14000000000001 15.9 l0 2.86 c0 0.44 -0.34 0.64 -0.66 0.64 c-0.34 0 -0.66 -0.2 -0.66 -0.64 l0 -10.74 c0 -0.4 0.22 -0.66 0.66 -0.66 l2.7 0 c0.76 0 3.16 0.22 3.16 2.92 l0 2.5 c0 1.52 -0.56 2.48 -1.84 2.9 l1.36 2.74 c0.28 0.54 -0.14 0.98 -0.58 0.98 c-0.24 0 -0.54 -0.16 -0.7 -0.5 l-1.46 -3 l-1.98 0 z M226.02 12.780000000000001 l0 -2.5 c0 -0.48 -0.18 -1.58 -1.84 -1.58 l-2.04 0 l0 5.86 l1.86 0 c0.98 0 2.02 -0.22 2.02 -1.78 z M232.16000000000003 18.7 l0 -10.64 c0 -0.46 0.36 -0.7 0.7 -0.7 l4.6 0 c0.44 0 0.66 0.32 0.66 0.66 s-0.22 0.68 -0.66 0.68 l-3.96 0 l0 3.88 l3.14 0 c0.46 0 0.68 0.32 0.68 0.66 s-0.24 0.7 -0.68 0.7 l-3.14 0 l0 4.14 l3.96 0 c0.42 0 0.64 0.34 0.64 0.66 c0 0.34 -0.22 0.66 -0.64 0.66 l-4.6 0 c-0.34 0 -0.7 -0.12 -0.7 -0.7 z M242.36000000000004 7.359999999999999 l6.04 0 c0.42 0 0.62 0.34 0.62 0.68 s-0.2 0.66 -0.62 0.66 l-2.28 0 l0 10.06 c0 0.42 -0.34 0.64 -0.68 0.64 s-0.66 -0.22 -0.66 -0.64 l0 -10.06 l-2.42 0 c-0.42 0 -0.62 -0.32 -0.62 -0.66 s0.2 -0.68 0.62 -0.68 z M253.22000000000003 18.7 l0 -10.64 c0 -0.46 0.36 -0.7 0.7 -0.7 l4.6 0 c0.44 0 0.66 0.32 0.66 0.66 s-0.22 0.68 -0.66 0.68 l-3.96 0 l0 3.88 l3.14 0 c0.46 0 0.68 0.32 0.68 0.66 s-0.24 0.7 -0.68 0.7 l-3.14 0 l0 4.14 l3.96 0 c0.42 0 0.64 0.34 0.64 0.66 c0 0.34 -0.22 0.66 -0.64 0.66 l-4.6 0 c-0.34 0 -0.7 -0.12 -0.7 -0.7 z M265.12 15.9 l0 2.86 c0 0.44 -0.34 0.64 -0.66 0.64 c-0.34 0 -0.66 -0.2 -0.66 -0.64 l0 -10.74 c0 -0.4 0.22 -0.66 0.66 -0.66 l2.7 0 c0.76 0 3.16 0.22 3.16 2.92 l0 2.5 c0 1.52 -0.56 2.48 -1.84 2.9 l1.36 2.74 c0.28 0.54 -0.14 0.98 -0.58 0.98 c-0.24 0 -0.54 -0.16 -0.7 -0.5 l-1.46 -3 l-1.98 0 z M269 12.780000000000001 l0 -2.5 c0 -0.48 -0.18 -1.58 -1.84 -1.58 l-2.04 0 l0 5.86 l1.86 0 c0.98 0 2.02 -0.22 2.02 -1.78 z"></path>
  </g>
</svg>
