<svg viewBox="0 0 150 48" fill="none" xmlns="http://www.w3.org/2000/svg">
<path d="M4.56485 45.0553L2.31964 41.9045L1.09159 43.0581V45.0553H0V36H1.09159V41.9169L4.4408 38.5925H5.61923L3.0391 41.2719L5.74327 45.0553H4.56485Z" fill="#141010"/>
<path d="M10.2512 45.1173C9.63101 45.1173 9.06868 44.9932 8.56423 44.7452C8.05978 44.4971 7.62149 44.1621 7.24935 43.7404C6.88549 43.3104 6.60432 42.8307 6.40585 42.3015C6.20738 41.7639 6.10814 41.214 6.10814 40.6517C6.10814 40.0645 6.21151 39.5063 6.41825 38.9771C6.63326 38.4395 6.92684 37.964 7.29897 37.5506C7.67937 37.1288 8.1218 36.798 8.62625 36.5582C9.1307 36.3101 9.68063 36.1861 10.276 36.1861C10.8963 36.1861 11.4586 36.3142 11.9631 36.5706C12.4675 36.827 12.9017 37.1702 13.2655 37.6002C13.6294 38.0302 13.9106 38.5098 14.109 39.0391C14.3075 39.5684 14.4067 40.11 14.4067 40.6641C14.4067 41.2512 14.3034 41.8136 14.0966 42.3511C13.8899 42.8804 13.5963 43.3559 13.2159 43.7776C12.8438 44.1911 12.4055 44.5177 11.901 44.7576C11.3966 44.9974 10.8467 45.1173 10.2512 45.1173ZM7.23695 40.6517C7.23695 41.0982 7.30724 41.5324 7.44782 41.9542C7.59668 42.3676 7.80342 42.7356 8.06805 43.0581C8.33268 43.3807 8.65106 43.637 9.02319 43.8272C9.39533 44.0174 9.80881 44.1125 10.2636 44.1125C10.735 44.1125 11.1568 44.0133 11.5289 43.8148C11.901 43.6164 12.2153 43.3517 12.4716 43.0209C12.7363 42.6901 12.9347 42.318 13.0671 41.9045C13.2076 41.491 13.2779 41.0734 13.2779 40.6517C13.2779 40.2051 13.2035 39.7751 13.0546 39.3616C12.9141 38.9481 12.7073 38.5801 12.4344 38.2576C12.1698 37.9268 11.8514 37.6705 11.4793 37.4885C11.1154 37.2983 10.7102 37.2032 10.2636 37.2032C9.79227 37.2032 9.37052 37.3025 8.99838 37.5009C8.62625 37.6911 8.30787 37.9516 8.04324 38.2824C7.78688 38.6132 7.58841 38.9853 7.44782 39.3988C7.30724 39.804 7.23695 40.2217 7.23695 40.6517Z" fill="#141010"/>
<path d="M21.1305 38.0964C21.0313 37.9806 20.899 37.8689 20.7336 37.7614C20.5682 37.6539 20.3821 37.5588 20.1754 37.4761C19.9687 37.3852 19.7412 37.3149 19.4932 37.2653C19.2533 37.2074 19.0011 37.1784 18.7365 37.1784C18.0584 37.1784 17.5581 37.3066 17.2355 37.563C16.913 37.8193 16.7518 38.1708 16.7518 38.6173C16.7518 38.9316 16.8345 39.1797 16.9999 39.3616C17.1652 39.5435 17.4175 39.6924 17.7565 39.8082C18.1039 39.924 18.5421 40.0439 19.0714 40.1679C19.6834 40.3002 20.2126 40.4615 20.6592 40.6517C21.1057 40.8419 21.4489 41.0982 21.6887 41.4208C21.9286 41.735 22.0485 42.1568 22.0485 42.686C22.0485 43.1078 21.9658 43.4758 21.8004 43.79C21.6433 44.096 21.42 44.3523 21.1305 44.5591C20.8411 44.7576 20.5021 44.9064 20.1134 45.0057C19.7247 45.0966 19.303 45.1421 18.8481 45.1421C18.4016 45.1421 17.9633 45.0966 17.5332 45.0057C17.1115 44.9064 16.7104 44.7658 16.33 44.5839C15.9496 44.402 15.594 44.1746 15.2632 43.9017L15.7966 42.9589C15.9289 43.0995 16.0985 43.2401 16.3052 43.3807C16.5202 43.513 16.76 43.637 17.0247 43.7528C17.2976 43.8686 17.5911 43.9637 17.9054 44.0381C18.2196 44.1043 18.5421 44.1373 18.8729 44.1373C19.5014 44.1373 19.9893 44.0257 20.3367 43.8024C20.684 43.5709 20.8576 43.2359 20.8576 42.7977C20.8576 42.4669 20.7584 42.2022 20.5599 42.0038C20.3697 41.8053 20.0844 41.6399 19.704 41.5076C19.3236 41.3753 18.8605 41.243 18.3147 41.1106C17.7193 40.9618 17.219 40.8005 16.8138 40.6269C16.4086 40.4449 16.1026 40.2093 15.8959 39.9198C15.6974 39.6304 15.5981 39.2541 15.5981 38.791C15.5981 38.2287 15.7346 37.7532 16.0075 37.3645C16.2804 36.9758 16.6567 36.6822 17.1363 36.4838C17.6159 36.2853 18.1576 36.1861 18.7613 36.1861C19.1582 36.1861 19.5262 36.2274 19.8653 36.3101C20.2126 36.3928 20.5351 36.5086 20.8328 36.6574C21.1305 36.8063 21.4034 36.9841 21.6515 37.1908L21.1305 38.0964Z" fill="#141010"/>
<path d="M25.6949 43.7404C25.852 43.8479 26.067 43.9513 26.3399 44.0505C26.6211 44.1415 26.9519 44.187 27.3323 44.187C27.721 44.187 28.0394 44.1249 28.2874 44.0009C28.5355 43.8686 28.7257 43.6742 28.8581 43.4179C28.9904 43.1533 29.0813 42.8183 29.131 42.4131C29.1806 42.0079 29.2054 41.5283 29.2054 40.9742V36.2481H30.3218V40.7261C30.3218 41.3794 30.2887 41.979 30.2225 42.5248C30.1564 43.0706 30.0241 43.5461 29.8256 43.9513C29.6271 44.3482 29.3294 44.6542 28.9325 44.8692C28.5438 45.0842 28.0228 45.1917 27.3695 45.1917C26.956 45.1917 26.5922 45.1462 26.2779 45.0553C25.9637 44.9643 25.6742 44.8279 25.4096 44.6459L25.6949 43.7404Z" fill="#141010"/>
<path d="M31.5444 43.1822C31.5444 42.7687 31.6602 42.4131 31.8917 42.1154C32.1315 41.8094 32.4582 41.5737 32.8717 41.4084C33.2852 41.243 33.7648 41.1603 34.3106 41.1603C34.6 41.1603 34.906 41.1851 35.2285 41.2347C35.551 41.276 35.8364 41.3422 36.0844 41.4332V40.9618C36.0844 40.4656 35.9356 40.0769 35.6379 39.7958C35.3402 39.5063 34.9184 39.3616 34.3726 39.3616C34.017 39.3616 33.6738 39.4278 33.343 39.5601C33.0205 39.6841 32.6773 39.8661 32.3135 40.1059L31.9165 39.3368C32.3383 39.0474 32.76 38.8324 33.1818 38.6918C33.6035 38.5429 34.0418 38.4685 34.4967 38.4685C35.3236 38.4685 35.9769 38.7 36.4566 39.1631C36.9362 39.618 37.176 40.2547 37.176 41.0734V43.8148C37.176 43.9471 37.2008 44.0464 37.2505 44.1125C37.3083 44.1704 37.3993 44.2035 37.5234 44.2118V45.0553C37.4159 45.0718 37.3208 45.0842 37.2381 45.0925C37.1636 45.1008 37.1016 45.1049 37.052 45.1049C36.7956 45.1049 36.6013 45.0346 36.469 44.894C36.3449 44.7534 36.2746 44.6046 36.2581 44.4475L36.2333 44.0381C35.9521 44.402 35.5841 44.6831 35.1293 44.8816C34.6745 45.0801 34.2238 45.1793 33.7772 45.1793C33.3472 45.1793 32.9626 45.0925 32.6236 44.9188C32.2845 44.7369 32.0199 44.4971 31.8297 44.1994C31.6395 43.8934 31.5444 43.5543 31.5444 43.1822ZM35.7619 43.6412C35.8612 43.5254 35.9397 43.4096 35.9976 43.2938C36.0555 43.1698 36.0844 43.0664 36.0844 42.9837V42.1774C35.8281 42.0782 35.5593 42.0038 35.2781 41.9542C34.997 41.8963 34.7199 41.8673 34.447 41.8673C33.893 41.8673 33.4423 41.979 33.095 42.2022C32.7559 42.4173 32.5864 42.715 32.5864 43.0954C32.5864 43.3021 32.6401 43.5047 32.7476 43.7032C32.8634 43.8934 33.0288 44.0505 33.2438 44.1746C33.4671 44.2986 33.74 44.3606 34.0625 44.3606C34.4016 44.3606 34.7241 44.2945 35.0301 44.1621C35.336 44.0216 35.58 43.8479 35.7619 43.6412Z" fill="#141010"/>
<path d="M40.5762 45.0553L38.0333 38.5801H39.1745L41.2088 44.0133L43.2432 38.5801H44.31L41.767 45.0553H40.5762Z" fill="#141010"/>
<path d="M44.7363 43.1822C44.7363 42.7687 44.852 42.4131 45.0836 42.1154C45.3234 41.8094 45.6501 41.5737 46.0636 41.4084C46.477 41.243 46.9567 41.1603 47.5025 41.1603C47.7919 41.1603 48.0979 41.1851 48.4204 41.2347C48.7429 41.276 49.0282 41.3422 49.2763 41.4332V40.9618C49.2763 40.4656 49.1275 40.0769 48.8297 39.7958C48.532 39.5063 48.1103 39.3616 47.5645 39.3616C47.2089 39.3616 46.8657 39.4278 46.5349 39.5601C46.2124 39.6841 45.8692 39.8661 45.5053 40.1059L45.1084 39.3368C45.5302 39.0474 45.9519 38.8324 46.3737 38.6918C46.7954 38.5429 47.2337 38.4685 47.6885 38.4685C48.5155 38.4685 49.1688 38.7 49.6484 39.1631C50.1281 39.618 50.3679 40.2547 50.3679 41.0734V43.8148C50.3679 43.9471 50.3927 44.0464 50.4423 44.1125C50.5002 44.1704 50.5912 44.2035 50.7152 44.2118V45.0553C50.6077 45.0718 50.5126 45.0842 50.4299 45.0925C50.3555 45.1008 50.2935 45.1049 50.2439 45.1049C49.9875 45.1049 49.7932 45.0346 49.6609 44.894C49.5368 44.7534 49.4665 44.6046 49.45 44.4475L49.4252 44.0381C49.144 44.402 48.776 44.6831 48.3212 44.8816C47.8663 45.0801 47.4156 45.1793 46.9691 45.1793C46.5391 45.1793 46.1545 45.0925 45.8155 44.9188C45.4764 44.7369 45.2118 44.4971 45.0216 44.1994C44.8314 43.8934 44.7363 43.5543 44.7363 43.1822ZM48.9538 43.6412C49.053 43.5254 49.1316 43.4096 49.1895 43.2938C49.2474 43.1698 49.2763 43.0664 49.2763 42.9837V42.1774C49.02 42.0782 48.7512 42.0038 48.47 41.9542C48.1889 41.8963 47.9118 41.8673 47.6389 41.8673C47.0849 41.8673 46.6342 41.979 46.2868 42.2022C45.9478 42.4173 45.7782 42.715 45.7782 43.0954C45.7782 43.3021 45.832 43.5047 45.9395 43.7032C46.0553 43.8934 46.2207 44.0505 46.4357 44.1746C46.659 44.2986 46.9319 44.3606 47.2544 44.3606C47.5934 44.3606 47.916 44.2945 48.2219 44.1621C48.5279 44.0216 48.7719 43.8479 48.9538 43.6412Z" fill="#141010"/>
<path d="M57.4597 38.0964C57.3604 37.9806 57.2281 37.8689 57.0627 37.7614C56.8973 37.6539 56.7113 37.5588 56.5045 37.4761C56.2978 37.3852 56.0704 37.3149 55.8223 37.2653C55.5825 37.2074 55.3302 37.1784 55.0656 37.1784C54.3875 37.1784 53.8872 37.3066 53.5647 37.563C53.2422 37.8193 53.0809 38.1708 53.0809 38.6173C53.0809 38.9316 53.1636 39.1797 53.329 39.3616C53.4944 39.5435 53.7466 39.6924 54.0857 39.8082C54.433 39.924 54.8713 40.0439 55.4005 40.1679C56.0125 40.3002 56.5418 40.4615 56.9883 40.6517C57.4349 40.8419 57.7781 41.0982 58.0179 41.4208C58.2577 41.735 58.3776 42.1568 58.3776 42.686C58.3776 43.1078 58.2949 43.4758 58.1295 43.79C57.9724 44.096 57.7491 44.3523 57.4597 44.5591C57.1702 44.7576 56.8312 44.9064 56.4425 45.0057C56.0538 45.0966 55.6321 45.1421 55.1773 45.1421C54.7307 45.1421 54.2924 45.0966 53.8624 45.0057C53.4406 44.9064 53.0396 44.7658 52.6591 44.5839C52.2787 44.402 51.9231 44.1746 51.5924 43.9017L52.1258 42.9589C52.2581 43.0995 52.4276 43.2401 52.6343 43.3807C52.8494 43.513 53.0892 43.637 53.3538 43.7528C53.6267 43.8686 53.9203 43.9637 54.2345 44.0381C54.5488 44.1043 54.8713 44.1373 55.2021 44.1373C55.8306 44.1373 56.3185 44.0257 56.6658 43.8024C57.0131 43.5709 57.1868 43.2359 57.1868 42.7977C57.1868 42.4669 57.0875 42.2022 56.8891 42.0038C56.6989 41.8053 56.4136 41.6399 56.0332 41.5076C55.6528 41.3753 55.1897 41.243 54.6439 41.1106C54.0485 40.9618 53.5481 40.8005 53.1429 40.6269C52.7377 40.4449 52.4317 40.2093 52.225 39.9198C52.0265 39.6304 51.9273 39.2541 51.9273 38.791C51.9273 38.2287 52.0637 37.7532 52.3366 37.3645C52.6095 36.9758 52.9858 36.6822 53.4654 36.4838C53.9451 36.2853 54.4867 36.1861 55.0904 36.1861C55.4874 36.1861 55.8554 36.2274 56.1944 36.3101C56.5418 36.3928 56.8643 36.5086 57.162 36.6574C57.4597 36.8063 57.7326 36.9841 57.9807 37.1908L57.4597 38.0964Z" fill="#141010"/>
<path d="M62.5378 45.1793C62.0499 45.1793 61.6033 45.0925 61.1981 44.9188C60.8011 44.7369 60.4538 44.4888 60.1561 44.1746C59.8667 43.8603 59.6393 43.5006 59.4739 43.0954C59.3167 42.6901 59.2382 42.2601 59.2382 41.8053C59.2382 41.1933 59.3746 40.6351 59.6475 40.1307C59.9204 39.6262 60.305 39.2252 60.8011 38.9275C61.2973 38.6215 61.8721 38.4685 62.5254 38.4685C63.1621 38.4685 63.7162 38.6132 64.1876 38.9026C64.6672 39.1838 65.0228 39.5642 65.2543 40.0439L64.1876 40.3788C64.0222 40.0728 63.7906 39.8371 63.4929 39.6717C63.1952 39.4981 62.8644 39.4112 62.5006 39.4112C62.1036 39.4112 61.7397 39.5146 61.409 39.7213C61.0864 39.9281 60.8301 40.2134 60.6399 40.5773C60.4497 40.9328 60.3546 41.3422 60.3546 41.8053C60.3546 42.2601 60.4497 42.6736 60.6399 43.0457C60.8384 43.4096 61.0988 43.699 61.4214 43.9141C61.7522 44.1291 62.116 44.2366 62.513 44.2366C62.7693 44.2366 63.0133 44.1911 63.2448 44.1001C63.4846 44.0092 63.6914 43.8892 63.865 43.7404C64.047 43.5833 64.171 43.4137 64.2372 43.2318L65.304 43.5543C65.1717 43.8686 64.969 44.1497 64.6961 44.3978C64.4315 44.6377 64.1131 44.8279 63.741 44.9684C63.3771 45.109 62.9761 45.1793 62.5378 45.1793Z" fill="#141010"/>
<path d="M69.9645 39.5353C69.4187 39.5435 68.9349 39.6841 68.5131 39.957C68.0997 40.2217 67.8061 40.5897 67.6324 41.061V45.0553H66.5408V38.5801H67.558V40.0811C67.7813 39.6345 68.0748 39.2748 68.4387 39.0019C68.8108 38.7207 69.1995 38.5636 69.6047 38.5305C69.6874 38.5305 69.7577 38.5305 69.8156 38.5305C69.8735 38.5305 69.9231 38.5346 69.9645 38.5429V39.5353Z" fill="#141010"/>
<path d="M71.0471 45.0553V38.5801H72.1387V45.0553H71.0471ZM71.0471 37.3645V36H72.1387V37.3645H71.0471Z" fill="#141010"/>
<path d="M77.3916 45.1793C76.8624 45.1793 76.391 45.047 75.9775 44.7824C75.5641 44.5177 75.2374 44.1828 74.9976 43.7776V47.6974H73.906V38.5801H74.8735V39.7958C75.1299 39.3988 75.4648 39.0804 75.8783 38.8406C76.2918 38.5925 76.7425 38.4685 77.2304 38.4685C77.677 38.4685 78.0863 38.5595 78.4584 38.7414C78.8306 38.9233 79.1531 39.1714 79.426 39.4857C79.6989 39.7999 79.9098 40.1596 80.0586 40.5648C80.2157 40.9618 80.2943 41.3794 80.2943 41.8177C80.2943 42.4297 80.1703 42.992 79.9222 43.5047C79.6823 44.0174 79.3433 44.4268 78.905 44.7328C78.4667 45.0305 77.9623 45.1793 77.3916 45.1793ZM77.0567 44.2366C77.3792 44.2366 77.6687 44.1704 77.925 44.0381C78.1897 43.8975 78.413 43.7156 78.5949 43.4923C78.7851 43.2608 78.9298 43.0003 79.029 42.7108C79.1283 42.4214 79.1779 42.1237 79.1779 41.8177C79.1779 41.4952 79.12 41.1892 79.0042 40.8998C78.8967 40.6103 78.7396 40.354 78.5329 40.1307C78.3344 39.9074 78.0987 39.7337 77.8258 39.6097C77.5612 39.4774 77.2717 39.4112 76.9575 39.4112C76.759 39.4112 76.5523 39.4484 76.3373 39.5229C76.1305 39.5973 75.9321 39.7048 75.7419 39.8454C75.5517 39.9777 75.3904 40.1307 75.2581 40.3044C75.1258 40.478 75.0389 40.6641 74.9976 40.8626V42.7108C75.1216 42.992 75.287 43.2484 75.4938 43.4799C75.7005 43.7115 75.9403 43.8975 76.2132 44.0381C76.4861 44.1704 76.7673 44.2366 77.0567 44.2366Z" fill="#141010"/>
<path d="M84.8869 44.7328C84.7959 44.7741 84.6718 44.8279 84.5147 44.894C84.3576 44.9602 84.1757 45.0181 83.9689 45.0677C83.7622 45.1173 83.543 45.1421 83.3115 45.1421C83.0469 45.1421 82.8029 45.0966 82.5796 45.0057C82.3564 44.9064 82.1785 44.7576 82.0462 44.5591C81.9139 44.3523 81.8478 44.096 81.8478 43.79V39.436H80.967V38.5801H81.8478V36.4218H82.9394V38.5801H84.3907V39.436H82.9394V43.4551C82.9559 43.6866 83.0345 43.8603 83.175 43.9761C83.3156 44.0836 83.481 44.1373 83.6712 44.1373C83.8862 44.1373 84.0847 44.1001 84.2666 44.0257C84.4486 43.9513 84.5685 43.8975 84.6264 43.8644L84.8869 44.7328Z" fill="#141010"/>
<path d="M89.2097 45.0553V36.2481H90.3261V45.0553H89.2097Z" fill="#141010"/>
<path d="M97.8775 45.0553H96.786V41.4332C96.786 40.7468 96.6785 40.2465 96.4634 39.9322C96.2567 39.6097 95.9383 39.4484 95.5083 39.4484C95.2106 39.4484 94.9129 39.5229 94.6152 39.6717C94.3257 39.8206 94.0652 40.0232 93.8337 40.2795C93.6104 40.5276 93.4491 40.8171 93.3499 41.1479V45.0553H92.2583V38.5801H93.2507V39.9694C93.4243 39.6635 93.6476 39.3988 93.9205 39.1755C94.1934 38.9523 94.5035 38.7786 94.8509 38.6546C95.1982 38.5305 95.562 38.4685 95.9425 38.4685C96.3146 38.4685 96.6247 38.5388 96.8728 38.6794C97.1291 38.8117 97.3276 39.0019 97.4682 39.25C97.6171 39.4898 97.7204 39.7751 97.7783 40.1059C97.8445 40.4367 97.8775 40.7964 97.8775 41.1851V45.0553Z" fill="#141010"/>
<path d="M102.864 44.7328C102.773 44.7741 102.649 44.8279 102.492 44.894C102.334 44.9602 102.152 45.0181 101.946 45.0677C101.739 45.1173 101.52 45.1421 101.288 45.1421C101.024 45.1421 100.78 45.0966 100.556 45.0057C100.333 44.9064 100.155 44.7576 100.023 44.5591C99.8907 44.3523 99.8246 44.096 99.8246 43.79V39.436H98.9438V38.5801H99.8246V36.4218H100.916V38.5801H102.367V39.436H100.916V43.4551C100.933 43.6866 101.011 43.8603 101.152 43.9761C101.292 44.0836 101.458 44.1373 101.648 44.1373C101.863 44.1373 102.062 44.1001 102.243 44.0257C102.425 43.9513 102.545 43.8975 102.603 43.8644L102.864 44.7328Z" fill="#141010"/>
<path d="M106.656 45.1793C106.168 45.1793 105.722 45.0925 105.316 44.9188C104.919 44.7369 104.572 44.4929 104.274 44.187C103.985 43.8727 103.758 43.513 103.592 43.1078C103.435 42.7026 103.356 42.2725 103.356 41.8177C103.356 41.2057 103.497 40.6475 103.778 40.1431C104.059 39.6386 104.448 39.2334 104.944 38.9275C105.449 38.6215 106.023 38.4685 106.668 38.4685C107.322 38.4685 107.888 38.6256 108.368 38.9399C108.856 39.2458 109.232 39.6511 109.497 40.1555C109.77 40.6517 109.906 41.1892 109.906 41.7681C109.906 41.8508 109.902 41.9335 109.894 42.0162C109.894 42.0906 109.889 42.1485 109.881 42.1898H104.51C104.543 42.6116 104.659 42.9879 104.857 43.3186C105.064 43.6412 105.329 43.8975 105.651 44.0877C105.974 44.2697 106.321 44.3606 106.693 44.3606C107.09 44.3606 107.462 44.2614 107.81 44.0629C108.165 43.8644 108.409 43.6039 108.542 43.2814L109.484 43.5419C109.344 43.8562 109.133 44.1373 108.852 44.3854C108.579 44.6335 108.252 44.8279 107.872 44.9684C107.5 45.109 107.094 45.1793 106.656 45.1793ZM104.473 41.4332H108.889C108.856 41.0114 108.736 40.6393 108.529 40.3168C108.322 39.9942 108.058 39.742 107.735 39.5601C107.413 39.3782 107.057 39.2872 106.668 39.2872C106.288 39.2872 105.937 39.3782 105.614 39.5601C105.292 39.742 105.027 39.9942 104.82 40.3168C104.622 40.6393 104.506 41.0114 104.473 41.4332Z" fill="#141010"/>
<path d="M114.543 39.5353C113.997 39.5435 113.513 39.6841 113.092 39.957C112.678 40.2217 112.385 40.5897 112.211 41.061V45.0553H111.119V38.5801H112.137V40.0811C112.36 39.6345 112.653 39.2748 113.017 39.0019C113.389 38.7207 113.778 38.5636 114.183 38.5305C114.266 38.5305 114.336 38.5305 114.394 38.5305C114.452 38.5305 114.502 38.5346 114.543 38.5429V39.5353Z" fill="#141010"/>
<path d="M119.111 45.1793C118.582 45.1793 118.111 45.047 117.697 44.7824C117.284 44.5177 116.957 44.1828 116.717 43.7776V47.6974H115.626V38.5801H116.593V39.7958C116.85 39.3988 117.185 39.0804 117.598 38.8406C118.012 38.5925 118.462 38.4685 118.95 38.4685C119.397 38.4685 119.806 38.5595 120.178 38.7414C120.55 38.9233 120.873 39.1714 121.146 39.4857C121.419 39.7999 121.63 40.1596 121.778 40.5648C121.935 40.9618 122.014 41.3794 122.014 41.8177C122.014 42.4297 121.89 42.992 121.642 43.5047C121.402 44.0174 121.063 44.4268 120.625 44.7328C120.186 45.0305 119.682 45.1793 119.111 45.1793ZM118.776 44.2366C119.099 44.2366 119.388 44.1704 119.645 44.0381C119.909 43.8975 120.133 43.7156 120.315 43.4923C120.505 43.2608 120.65 43.0003 120.749 42.7108C120.848 42.4214 120.898 42.1237 120.898 41.8177C120.898 41.4952 120.84 41.1892 120.724 40.8998C120.616 40.6103 120.459 40.354 120.253 40.1307C120.054 39.9074 119.818 39.7337 119.546 39.6097C119.281 39.4774 118.991 39.4112 118.677 39.4112C118.479 39.4112 118.272 39.4484 118.057 39.5229C117.85 39.5973 117.652 39.7048 117.462 39.8454C117.271 39.9777 117.11 40.1307 116.978 40.3044C116.846 40.478 116.759 40.6641 116.717 40.8626V42.7108C116.841 42.992 117.007 43.2484 117.214 43.4799C117.42 43.7115 117.66 43.8975 117.933 44.0381C118.206 44.1704 118.487 44.2366 118.776 44.2366Z" fill="#141010"/>
<path d="M126.778 39.5353C126.232 39.5435 125.748 39.6841 125.327 39.957C124.913 40.2217 124.62 40.5897 124.446 41.061V45.0553H123.354V38.5801H124.371V40.0811C124.595 39.6345 124.888 39.2748 125.252 39.0019C125.624 38.7207 126.013 38.5636 126.418 38.5305C126.501 38.5305 126.571 38.5305 126.629 38.5305C126.687 38.5305 126.737 38.5346 126.778 38.5429V39.5353Z" fill="#141010"/>
<path d="M130.569 45.1793C130.081 45.1793 129.634 45.0925 129.229 44.9188C128.832 44.7369 128.485 44.4929 128.187 44.187C127.897 43.8727 127.67 43.513 127.505 43.1078C127.348 42.7026 127.269 42.2725 127.269 41.8177C127.269 41.2057 127.41 40.6475 127.691 40.1431C127.972 39.6386 128.361 39.2334 128.857 38.9275C129.361 38.6215 129.936 38.4685 130.581 38.4685C131.234 38.4685 131.801 38.6256 132.28 38.9399C132.768 39.2458 133.145 39.6511 133.409 40.1555C133.682 40.6517 133.819 41.1892 133.819 41.7681C133.819 41.8508 133.814 41.9335 133.806 42.0162C133.806 42.0906 133.802 42.1485 133.794 42.1898H128.423C128.456 42.6116 128.571 42.9879 128.77 43.3186C128.977 43.6412 129.241 43.8975 129.564 44.0877C129.886 44.2697 130.234 44.3606 130.606 44.3606C131.003 44.3606 131.375 44.2614 131.722 44.0629C132.078 43.8644 132.322 43.6039 132.454 43.2814L133.397 43.5419C133.256 43.8562 133.045 44.1373 132.764 44.3854C132.491 44.6335 132.165 44.8279 131.784 44.9684C131.412 45.109 131.007 45.1793 130.569 45.1793ZM128.385 41.4332H132.801C132.768 41.0114 132.648 40.6393 132.442 40.3168C132.235 39.9942 131.97 39.742 131.648 39.5601C131.325 39.3782 130.97 39.2872 130.581 39.2872C130.201 39.2872 129.849 39.3782 129.527 39.5601C129.204 39.742 128.939 39.9942 128.733 40.3168C128.534 40.6393 128.418 41.0114 128.385 41.4332Z" fill="#141010"/>
<path d="M138.321 44.7328C138.23 44.7741 138.106 44.8279 137.948 44.894C137.791 44.9602 137.609 45.0181 137.403 45.0677C137.196 45.1173 136.977 45.1421 136.745 45.1421C136.481 45.1421 136.237 45.0966 136.013 45.0057C135.79 44.9064 135.612 44.7576 135.48 44.5591C135.348 44.3523 135.282 44.096 135.282 43.79V39.436H134.401V38.5801H135.282V36.4218H136.373V38.5801H137.824V39.436H136.373V43.4551C136.39 43.6866 136.468 43.8603 136.609 43.9761C136.749 44.0836 136.915 44.1373 137.105 44.1373C137.32 44.1373 137.518 44.1001 137.7 44.0257C137.882 43.9513 138.002 43.8975 138.06 43.8644L138.321 44.7328Z" fill="#141010"/>
<path d="M142.113 45.1793C141.625 45.1793 141.179 45.0925 140.773 44.9188C140.376 44.7369 140.029 44.4929 139.731 44.187C139.442 43.8727 139.214 43.513 139.049 43.1078C138.892 42.7026 138.813 42.2725 138.813 41.8177C138.813 41.2057 138.954 40.6475 139.235 40.1431C139.516 39.6386 139.905 39.2334 140.401 38.9275C140.906 38.6215 141.48 38.4685 142.125 38.4685C142.779 38.4685 143.345 38.6256 143.825 38.9399C144.313 39.2458 144.689 39.6511 144.954 40.1555C145.227 40.6517 145.363 41.1892 145.363 41.7681C145.363 41.8508 145.359 41.9335 145.351 42.0162C145.351 42.0906 145.346 42.1485 145.338 42.1898H139.967C140 42.6116 140.116 42.9879 140.314 43.3186C140.521 43.6412 140.786 43.8975 141.108 44.0877C141.431 44.2697 141.778 44.3606 142.15 44.3606C142.547 44.3606 142.919 44.2614 143.267 44.0629C143.622 43.8644 143.866 43.6039 143.998 43.2814L144.941 43.5419C144.801 43.8562 144.59 44.1373 144.309 44.3854C144.036 44.6335 143.709 44.8279 143.329 44.9684C142.956 45.109 142.551 45.1793 142.113 45.1793ZM139.93 41.4332H144.346C144.313 41.0114 144.193 40.6393 143.986 40.3168C143.779 39.9942 143.515 39.742 143.192 39.5601C142.87 39.3782 142.514 39.2872 142.125 39.2872C141.745 39.2872 141.394 39.3782 141.071 39.5601C140.749 39.742 140.484 39.9942 140.277 40.3168C140.079 40.6393 139.963 41.0114 139.93 41.4332Z" fill="#141010"/>
<path d="M150 39.5353C149.454 39.5435 148.97 39.6841 148.549 39.957C148.135 40.2217 147.842 40.5897 147.668 41.061V45.0553H146.576V38.5801H147.594V40.0811C147.817 39.6345 148.11 39.2748 148.474 39.0019C148.846 38.7207 149.235 38.5636 149.64 38.5305C149.723 38.5305 149.793 38.5305 149.851 38.5305C149.909 38.5305 149.959 38.5346 150 38.5429V39.5353Z" fill="#141010"/>
<path d="M0 27.6552V0.792388H7.3778V11.0078L15.5501 0.792388H23.8738L14.1124 12.8239L24.5548 27.6552H16.0798L9.42089 17.7803L7.3778 19.899V27.6552H0Z" fill="#141010"/>
<path d="M34.0626 28.0335C32.3222 28.0335 30.771 27.7687 29.4089 27.239C28.0469 26.6841 26.8992 25.94 25.966 25.0067C25.0579 24.0735 24.3643 23.0015 23.8851 21.7908C23.4058 20.58 23.1662 19.3063 23.1662 17.9694C23.1662 16.0525 23.5824 14.2994 24.4147 12.7104C25.2471 11.0961 26.4704 9.80971 28.0847 8.85122C29.699 7.86751 31.6917 7.37566 34.0626 7.37566C36.4336 7.37566 38.4263 7.8549 40.0406 8.81339C41.6548 9.77187 42.8782 11.033 43.7105 12.5969C44.5429 14.1607 44.9591 15.8633 44.9591 17.7046C44.9591 18.0829 44.9339 18.4739 44.8834 18.8775C44.8582 19.2558 44.8204 19.5963 44.7699 19.899H30.8088C30.8593 20.6053 31.0485 21.1854 31.3764 21.6394C31.7295 22.0682 32.1583 22.3835 32.6627 22.5853C33.1924 22.7871 33.7347 22.888 34.2896 22.888C35.0716 22.888 35.803 22.7114 36.4841 22.3583C37.1903 22.0052 37.657 21.5133 37.884 20.8827L43.9754 22.6231C43.4457 23.6825 42.7016 24.6158 41.7431 25.4229C40.8099 26.2301 39.7 26.8732 38.4137 27.3525C37.1273 27.8065 35.6769 28.0335 34.0626 28.0335ZM30.6575 15.5858H37.2408C37.1651 14.93 36.9759 14.3751 36.6732 13.9211C36.3958 13.4671 36.0174 13.114 35.5382 12.8617C35.0842 12.6095 34.5545 12.4834 33.9491 12.4834C33.3438 12.4834 32.8015 12.6095 32.3222 12.8617C31.8682 13.114 31.4899 13.4671 31.1872 13.9211C30.9097 14.3751 30.7332 14.93 30.6575 15.5858Z" fill="#141010"/>
<path d="M60.8261 13.8833C59.4388 13.8833 58.1777 14.0346 57.0426 14.3373C55.9076 14.64 55.0626 15.1444 54.5077 15.8507V27.6552H47.319V7.75401H53.9023V11.5375C54.6086 10.2007 55.4914 9.17912 56.5508 8.47287C57.6101 7.7414 58.7326 7.37566 59.9181 7.37566C60.1955 7.37566 60.3847 7.37566 60.4856 7.37566C60.6117 7.37566 60.7252 7.38827 60.8261 7.41349V13.8833Z" fill="#141010"/>
<path d="M75.7336 28.0335C74.2455 28.0335 72.9591 27.7434 71.8745 27.1633C70.7899 26.558 69.9323 25.6877 69.3017 24.5527V27.6552H63.0589V0.0356903H70.2476V10.7051C70.8277 9.62053 71.6475 8.80077 72.7068 8.24586C73.7662 7.66573 75.0148 7.37566 76.4525 7.37566C77.6632 7.37566 78.7857 7.6405 79.8198 8.17019C80.854 8.67466 81.7494 9.39352 82.5061 10.3268C83.288 11.26 83.8934 12.3699 84.3222 13.6563C84.751 14.9174 84.9654 16.2921 84.9654 17.7803C84.9654 19.2432 84.7257 20.6053 84.2465 21.8664C83.7925 23.1024 83.1493 24.187 82.3169 25.1202C81.5098 26.0535 80.5387 26.7724 79.4036 27.2768C78.2938 27.7813 77.0705 28.0335 75.7336 28.0335ZM73.6527 21.9799C74.2329 21.9799 74.7625 21.879 75.2418 21.6773C75.721 21.4755 76.1372 21.198 76.4903 20.8449C76.8435 20.4665 77.1083 20.0251 77.2849 19.5207C77.4867 19.0162 77.5875 18.4487 77.5875 17.8181C77.5875 17.0109 77.4236 16.2795 77.0957 15.6237C76.793 14.9426 76.3642 14.413 75.8093 14.0346C75.2796 13.631 74.6617 13.4292 73.9554 13.4292C73.4509 13.4292 72.9591 13.5554 72.4798 13.8076C72.0006 14.0598 71.5592 14.413 71.1556 14.867C70.7773 15.2958 70.4746 15.8002 70.2476 16.3804V19.9368C70.4746 20.2647 70.7142 20.5674 70.9664 20.8449C71.2439 21.0971 71.5214 21.3115 71.7988 21.4881C72.0763 21.6394 72.3663 21.7655 72.669 21.8664C72.9969 21.9421 73.3248 21.9799 73.6527 21.9799Z" fill="#141010"/>
<path d="M97.3548 28.0335C95.5892 28.0335 94.0253 27.7561 92.6633 27.2011C91.3012 26.6462 90.1536 25.8895 89.2203 24.9311C88.3123 23.9473 87.6186 22.8375 87.1394 21.6016C86.6854 20.3656 86.4584 19.0666 86.4584 17.7046C86.4584 16.3425 86.6854 15.0435 87.1394 13.8076C87.6186 12.5464 88.3123 11.4366 89.2203 10.4781C90.1536 9.51964 91.3012 8.76294 92.6633 8.20803C94.0253 7.65312 95.5892 7.37566 97.3548 7.37566C99.1457 7.37566 100.71 7.65312 102.046 8.20803C103.408 8.76294 104.543 9.51964 105.451 10.4781C106.385 11.4366 107.078 12.5464 107.532 13.8076C108.012 15.0435 108.251 16.3425 108.251 17.7046C108.251 19.0666 108.012 20.3656 107.532 21.6016C107.078 22.8375 106.385 23.9473 105.451 24.9311C104.543 25.8895 103.408 26.6462 102.046 27.2011C100.71 27.7561 99.1457 28.0335 97.3548 28.0335ZM93.8362 17.7046C93.8362 18.5874 93.9875 19.3567 94.2902 20.0125C94.5929 20.6431 95.009 21.135 95.5387 21.4881C96.0684 21.816 96.6738 21.9799 97.3548 21.9799C98.0358 21.9799 98.6412 21.816 99.1709 21.4881C99.7006 21.135 100.117 20.6431 100.419 20.0125C100.722 19.3567 100.873 18.5874 100.873 17.7046C100.873 16.8218 100.722 16.0651 100.419 15.4345C100.117 14.7787 99.7006 14.2868 99.1709 13.9589C98.6412 13.6058 98.0358 13.4292 97.3548 13.4292C96.6738 13.4292 96.0684 13.6058 95.5387 13.9589C95.009 14.2868 94.5929 14.7787 94.2902 15.4345C93.9875 16.0651 93.8362 16.8218 93.8362 17.7046Z" fill="#141010"/>
<path d="M110.347 20.3909C110.499 20.4918 110.978 20.7062 111.785 21.0341C112.592 21.362 113.538 21.5259 114.623 21.5259C115.405 21.5259 116.035 21.3998 116.514 21.1476C116.994 20.8701 117.347 20.4539 117.574 19.899C117.826 19.3441 117.99 18.6252 118.066 17.7424C118.166 16.8344 118.217 15.7372 118.217 14.4508V0.792388H125.595V14.4508C125.595 16.4939 125.469 18.3478 125.216 20.0125C124.989 21.6773 124.51 23.115 123.779 24.3257C123.047 25.5364 121.95 26.4697 120.487 27.1255C119.024 27.7561 117.069 28.0713 114.623 28.0713C113.462 28.0713 112.403 27.9326 111.444 27.6552C110.486 27.3777 109.603 26.9615 108.796 26.4066L110.347 20.3909Z" fill="#141010"/>
<path d="M146.179 9.57008C146.179 9.57008 145.964 9.44397 145.535 9.19173C145.107 8.9395 144.539 8.66205 143.833 8.35937C143.127 8.03146 142.357 7.7414 141.525 7.48916C140.693 7.23693 139.873 7.11082 139.066 7.11082C138.435 7.11082 137.918 7.21171 137.514 7.41349C137.111 7.61528 136.909 7.9558 136.909 8.43504C136.909 8.88906 137.111 9.25479 137.514 9.53225C137.918 9.80971 138.486 10.0619 139.217 10.2889C139.974 10.516 140.869 10.7934 141.903 11.1213C143.568 11.6258 145.006 12.2059 146.217 12.8617C147.427 13.5175 148.36 14.3625 149.016 15.3967C149.672 16.4056 150 17.755 150 19.445C150 21.0593 149.71 22.4213 149.13 23.5312C148.55 24.6158 147.768 25.486 146.784 26.1418C145.8 26.7976 144.703 27.2768 143.492 27.5795C142.282 27.857 141.046 27.9957 139.785 27.9957C138.498 27.9957 137.149 27.8696 135.736 27.6173C134.349 27.3399 133 26.9741 131.688 26.5201C130.376 26.0409 129.178 25.486 128.094 24.8554L131.272 18.3856C131.272 18.3856 131.524 18.537 132.028 18.8396C132.533 19.1423 133.201 19.4828 134.034 19.8612C134.866 20.2395 135.787 20.58 136.796 20.8827C137.83 21.1854 138.864 21.3367 139.898 21.3367C140.705 21.3367 141.26 21.2358 141.563 21.0341C141.891 20.807 142.055 20.517 142.055 20.1639C142.055 19.6342 141.777 19.2306 141.222 18.9531C140.667 18.6505 139.936 18.373 139.028 18.1208C138.145 17.8433 137.161 17.528 136.077 17.1749C134.513 16.6452 133.227 16.0525 132.218 15.3967C131.209 14.7156 130.465 13.9211 129.985 13.0131C129.506 12.0798 129.266 10.9574 129.266 9.64575C129.266 7.65312 129.733 5.98838 130.666 4.65155C131.6 3.31471 132.823 2.30578 134.336 1.62476C135.875 0.918505 137.527 0.565379 139.293 0.565379C140.604 0.565379 141.865 0.72933 143.076 1.05723C144.312 1.35991 145.46 1.73826 146.519 2.19228C147.604 2.6463 148.55 3.07509 149.357 3.47866L146.179 9.57008Z" fill="#141010"/>
</svg>
