<svg viewBox="0 0 60 60" fill="none" xmlns="http://www.w3.org/2000/svg">
<path d="M29.9996 0C13.4575 0 0 13.2736 0 29.5889C0 39.2837 4.75191 47.9041 12.0793 53.3041C12.8297 52.7745 13.7471 52.4589 14.74 52.4589H15.9613C8.12968 47.7649 2.88741 39.2693 2.88741 29.5889C2.88741 14.8436 15.0499 2.84721 30 2.84721C44.9501 2.84721 57.1126 14.8436 57.1126 29.5889C57.1126 39.2693 51.8703 47.7645 44.0387 52.4589H45.2624C46.2549 52.4589 47.1715 52.7745 47.9219 53.3033C55.2485 47.9033 60 39.2833 60 29.5889C59.9992 13.2736 46.5417 0 29.9996 0Z" fill="#141010"/>
<path d="M29.0696 14.5347H30.9256C31.3811 14.5347 31.7506 14.1703 31.7506 13.7211C31.7506 13.2719 31.3811 12.9075 30.9256 12.9075H29.0696C28.6141 12.9075 28.2446 13.2719 28.2446 13.7211C28.2446 14.1703 28.6141 14.5347 29.0696 14.5347Z" fill="#141010"/>
<path d="M45.2621 53.8824H39.3681C37.7331 53.8824 36.4024 52.5796 36.4024 50.978V46.4868C35.8775 46.72 35.2971 46.8528 34.6843 46.8528C34.0718 46.8528 33.4914 46.72 32.9662 46.4868V50.978C32.9662 52.5796 31.6359 53.8824 30.0005 53.8824C28.3652 53.8824 27.0348 52.5796 27.0348 50.978V46.4856C26.5092 46.7192 25.928 46.8524 25.3143 46.8524C24.701 46.8524 24.1202 46.7192 23.5946 46.4856V50.9776C23.5946 52.5792 22.2642 53.882 20.6289 53.882H14.7397C13.0159 53.882 11.6134 55.254 11.6134 56.9408C11.6134 58.6276 13.0159 60 14.7397 60H45.2617C46.9855 60 48.388 58.628 48.388 56.9412C48.388 55.2544 46.9859 53.8824 45.2621 53.8824Z" fill="#141010"/>
<path d="M34.5481 10.3687L32.4622 7.04713C31.9337 6.20433 31.0154 5.70033 30.0063 5.69913H30.003C28.9935 5.69913 28.0745 6.20153 27.5427 7.04593L25.4547 10.3691C24.65 11.6527 24.2246 13.1267 24.2246 14.6315L24.2242 19.8488C24.2242 20.6064 24.0408 21.3616 23.6936 22.0328C22.0299 25.2516 17.3027 32.5752 15.3474 35.5744C14.7767 36.4504 14.7361 37.562 15.2419 38.4752C15.7509 39.3948 16.7292 39.966 17.7947 39.966L22.5669 39.9664V42.732C22.5669 44.2188 23.7999 45.4288 25.316 45.4288C26.8317 45.4288 28.0647 44.2188 28.0647 42.732V39.9668L31.9365 39.9672V42.732C31.9365 44.2188 33.1695 45.4288 34.6852 45.4288C36.2009 45.4288 37.4339 44.2188 37.4339 42.732V39.968L42.2057 39.9684C43.2716 39.9684 44.2499 39.3972 44.7589 38.4776C45.2647 37.5644 45.2241 36.4528 44.6535 35.5776C42.6985 32.578 37.9725 25.2528 36.3104 22.0348C35.9636 21.3632 35.7803 20.6076 35.7803 19.85L35.7807 14.6331C35.7811 13.1315 35.3552 11.6575 34.5481 10.3687ZM27.1112 14.6319C27.1116 13.6563 27.3878 12.6995 27.9094 11.8675L30.0071 8.54553L32.0927 11.8667C32.6171 12.7035 32.8941 13.6603 32.8941 14.6323L32.8933 19.8496C32.8933 19.9236 32.8978 19.9968 32.8998 20.0704C32.8986 20.0896 32.8941 20.108 32.8941 20.1276V37.1184L27.1018 37.1168V26.9672C27.1018 26.916 27.0941 26.8668 27.0864 26.8176C27.0937 26.7684 27.1018 26.7192 27.1018 26.6676V20.1332C27.1055 20.0384 27.1104 19.9436 27.1104 19.8488L27.1112 14.6319ZM17.7752 37.1144C19.761 34.068 22.9944 29.0432 25.0394 25.53V26.668C25.0394 26.7192 25.0471 26.7684 25.0548 26.818C25.0475 26.8672 25.0394 26.9164 25.0394 26.9676V37.1164L17.7752 37.1144ZM26.0019 42.732C26.0019 43.0976 25.694 43.3948 25.3152 43.3948C24.9368 43.3948 24.6285 43.0972 24.6285 42.732V39.9664H26.0019V42.732ZM35.3715 42.732C35.3715 43.0976 35.0636 43.3948 34.6848 43.3948C34.306 43.3948 33.9981 43.0972 33.9981 42.732V39.9676H35.3711L35.3715 42.732ZM42.2215 37.1196C42.2215 37.1196 42.2171 37.1208 42.2061 37.1208L34.9565 37.1188V25.5196C37.0003 29.0336 40.237 34.0672 42.2215 37.1196Z" fill="#141010"/>
</svg>
