<svg viewBox="0 0 230 260" fill="none" xmlns="http://www.w3.org/2000/svg">
<path d="M107.139 257.899L7.83831 200.726C5.44959 199.345 3.46758 197.361 2.09162 194.974C0.715664 192.587 -0.00571752 189.88 3.41263e-05 187.127V72.8733C-0.00571752 70.1197 0.715664 67.4131 2.09162 65.0258C3.46758 62.6385 5.44959 60.6547 7.83831 59.2738L107.139 2.10085C109.529 0.724558 112.24 0 115 0C117.76 0 120.471 0.724558 122.861 2.10085L222.162 59.2738C224.55 60.6547 226.532 62.6385 227.908 65.0258C229.284 67.4131 230.006 70.1197 230 72.8733V187.266C230.006 190.019 229.284 192.726 227.908 195.113C226.532 197.5 224.55 199.484 222.162 200.865L122.861 257.899C120.471 259.275 117.76 260 115 260C112.24 260 109.529 259.275 107.139 257.899Z" fill="#141010"/>
<path d="M115 68C98.4575 68 85 81.2736 85 97.5889C85 107.284 89.7519 115.904 97.0793 121.304C97.8297 120.775 98.7471 120.459 99.74 120.459H100.961C93.1297 115.765 87.8874 107.269 87.8874 97.5889C87.8874 82.8436 100.05 70.8472 115 70.8472C129.95 70.8472 142.113 82.8436 142.113 97.5889C142.113 107.269 136.87 115.765 129.039 120.459H130.262C131.255 120.459 132.172 120.775 132.922 121.303C140.248 115.903 145 107.283 145 97.5889C144.999 81.2736 131.542 68 115 68Z" fill="white"/>
<path d="M114.07 82.5347H115.926C116.381 82.5347 116.751 82.1703 116.751 81.7211C116.751 81.2719 116.381 80.9075 115.926 80.9075H114.07C113.614 80.9075 113.245 81.2719 113.245 81.7211C113.245 82.1703 113.614 82.5347 114.07 82.5347Z" fill="white"/>
<path d="M130.262 121.882H124.368C122.733 121.882 121.402 120.58 121.402 118.978V114.487C120.878 114.72 120.297 114.853 119.684 114.853C119.072 114.853 118.491 114.72 117.966 114.487V118.978C117.966 120.58 116.636 121.882 115.001 121.882C113.365 121.882 112.035 120.58 112.035 118.978V114.486C111.509 114.719 110.928 114.852 110.314 114.852C109.701 114.852 109.12 114.719 108.595 114.486V118.978C108.595 120.579 107.264 121.882 105.629 121.882H99.7397C98.0159 121.882 96.6134 123.254 96.6134 124.941C96.6134 126.628 98.0159 128 99.7397 128H130.262C131.985 128 133.388 126.628 133.388 124.941C133.388 123.254 131.986 121.882 130.262 121.882Z" fill="white"/>
<path d="M119.548 78.3687L117.462 75.0471C116.934 74.2043 116.015 73.7003 115.006 73.6991H115.003C113.994 73.6991 113.074 74.2015 112.543 75.0459L110.455 78.3691C109.65 79.6527 109.225 81.1267 109.225 82.6315L109.224 87.8488C109.224 88.6064 109.041 89.3616 108.694 90.0328C107.03 93.2516 102.303 100.575 100.347 103.574C99.7767 104.45 99.7361 105.562 100.242 106.475C100.751 107.395 101.729 107.966 102.795 107.966L107.567 107.966V110.732C107.567 112.219 108.8 113.429 110.316 113.429C111.832 113.429 113.065 112.219 113.065 110.732V107.967L116.937 107.967V110.732C116.937 112.219 118.17 113.429 119.685 113.429C121.201 113.429 122.434 112.219 122.434 110.732V107.968L127.206 107.968C128.272 107.968 129.25 107.397 129.759 106.478C130.265 105.564 130.224 104.453 129.653 103.578C127.698 100.578 122.973 93.2528 121.31 90.0348C120.964 89.3632 120.78 88.6076 120.78 87.85L120.781 82.6331C120.781 81.1315 120.355 79.6575 119.548 78.3687ZM112.111 82.6319C112.112 81.6563 112.388 80.6995 112.909 79.8675L115.007 76.5455L117.093 79.8667C117.617 80.7035 117.894 81.6603 117.894 82.6323L117.893 87.8496C117.893 87.9236 117.898 87.9968 117.9 88.0704C117.899 88.0896 117.894 88.108 117.894 88.1276V105.118L112.102 105.117V94.9672C112.102 94.916 112.094 94.8668 112.086 94.8176C112.094 94.7684 112.102 94.7192 112.102 94.6676V88.1332C112.105 88.0384 112.11 87.9436 112.11 87.8488L112.111 82.6319ZM102.775 105.114C104.761 102.068 107.994 97.0432 110.039 93.53V94.668C110.039 94.7192 110.047 94.7684 110.055 94.818C110.048 94.8672 110.039 94.9164 110.039 94.9676V105.116L102.775 105.114ZM111.002 110.732C111.002 111.098 110.694 111.395 110.315 111.395C109.937 111.395 109.629 111.097 109.629 110.732V107.966H111.002V110.732ZM120.371 110.732C120.371 111.098 120.064 111.395 119.685 111.395C119.306 111.395 118.998 111.097 118.998 110.732V107.968H120.371L120.371 110.732ZM127.222 105.12C127.222 105.12 127.217 105.121 127.206 105.121L119.957 105.119V93.5196C122 97.0336 125.237 102.067 127.222 105.12Z" fill="white"/>
<path d="M40 167.619V140.757H47.3778V150.972L55.5501 140.757H63.8738L54.1124 152.788L64.5548 167.619H56.0798L49.4209 157.745L47.3778 159.863V167.619H40Z" fill="white"/>
<path d="M74.0626 167.998C72.3222 167.998 70.771 167.733 69.4089 167.203C68.0469 166.648 66.8992 165.904 65.966 164.971C65.0579 164.038 64.3643 162.966 63.8851 161.755C63.4058 160.544 63.1662 159.271 63.1662 157.934C63.1662 156.017 63.5824 154.264 64.4147 152.675C65.2471 151.06 66.4704 149.774 68.0847 148.816C69.699 147.832 71.6917 147.34 74.0626 147.34C76.4336 147.34 78.4263 147.819 80.0406 148.778C81.6548 149.736 82.8782 150.997 83.7105 152.561C84.5429 154.125 84.9591 155.828 84.9591 157.669C84.9591 158.047 84.9339 158.438 84.8834 158.842C84.8582 159.22 84.8204 159.561 84.7699 159.863H70.8088C70.8593 160.57 71.0485 161.15 71.3764 161.604C71.7295 162.033 72.1583 162.348 72.6627 162.55C73.1924 162.751 73.7347 162.852 74.2896 162.852C75.0716 162.852 75.803 162.676 76.4841 162.323C77.1903 161.969 77.657 161.478 77.884 160.847L83.9754 162.587C83.4457 163.647 82.7016 164.58 81.7431 165.387C80.8099 166.194 79.7 166.838 78.4137 167.317C77.1273 167.771 75.6769 167.998 74.0626 167.998ZM70.6575 155.55H77.2408C77.1651 154.894 76.9759 154.339 76.6732 153.885C76.3958 153.431 76.0174 153.078 75.5382 152.826C75.0842 152.574 74.5545 152.448 73.9491 152.448C73.3438 152.448 72.8015 152.574 72.3222 152.826C71.8682 153.078 71.4899 153.431 71.1872 153.885C70.9097 154.339 70.7332 154.894 70.6575 155.55Z" fill="white"/>
<path d="M100.826 153.848C99.4388 153.848 98.1777 153.999 97.0426 154.302C95.9076 154.604 95.0626 155.109 94.5077 155.815V167.619H87.319V147.718H93.9023V151.502C94.6086 150.165 95.4914 149.143 96.5508 148.437C97.6101 147.706 98.7326 147.34 99.9181 147.34C100.196 147.34 100.385 147.34 100.486 147.34C100.612 147.34 100.725 147.353 100.826 147.378V153.848Z" fill="white"/>
<path d="M115.734 167.998C114.245 167.998 112.959 167.708 111.874 167.128C110.79 166.522 109.932 165.652 109.302 164.517V167.619H103.059V140H110.248V150.669C110.828 149.585 111.647 148.765 112.707 148.21C113.766 147.63 115.015 147.34 116.452 147.34C117.663 147.34 118.786 147.605 119.82 148.135C120.854 148.639 121.749 149.358 122.506 150.291C123.288 151.224 123.893 152.334 124.322 153.621C124.751 154.882 124.965 156.256 124.965 157.745C124.965 159.208 124.726 160.57 124.246 161.831C123.792 163.067 123.149 164.151 122.317 165.085C121.51 166.018 120.539 166.737 119.404 167.241C118.294 167.746 117.07 167.998 115.734 167.998ZM113.653 161.944C114.233 161.944 114.763 161.843 115.242 161.642C115.721 161.44 116.137 161.162 116.49 160.809C116.843 160.431 117.108 159.989 117.285 159.485C117.487 158.981 117.588 158.413 117.588 157.782C117.588 156.975 117.424 156.244 117.096 155.588C116.793 154.907 116.364 154.377 115.809 153.999C115.28 153.595 114.662 153.394 113.955 153.394C113.451 153.394 112.959 153.52 112.48 153.772C112.001 154.024 111.559 154.377 111.156 154.831C110.777 155.26 110.475 155.765 110.248 156.345V159.901C110.475 160.229 110.714 160.532 110.966 160.809C111.244 161.061 111.521 161.276 111.799 161.452C112.076 161.604 112.366 161.73 112.669 161.831C112.997 161.906 113.325 161.944 113.653 161.944Z" fill="white"/>
<path d="M137.355 167.998C135.589 167.998 134.025 167.72 132.663 167.165C131.301 166.611 130.154 165.854 129.22 164.895C128.312 163.912 127.619 162.802 127.139 161.566C126.685 160.33 126.458 159.031 126.458 157.669C126.458 156.307 126.685 155.008 127.139 153.772C127.619 152.511 128.312 151.401 129.22 150.442C130.154 149.484 131.301 148.727 132.663 148.172C134.025 147.617 135.589 147.34 137.355 147.34C139.146 147.34 140.71 147.617 142.046 148.172C143.408 148.727 144.543 149.484 145.451 150.442C146.385 151.401 147.078 152.511 147.532 153.772C148.012 155.008 148.251 156.307 148.251 157.669C148.251 159.031 148.012 160.33 147.532 161.566C147.078 162.802 146.385 163.912 145.451 164.895C144.543 165.854 143.408 166.611 142.046 167.165C140.71 167.72 139.146 167.998 137.355 167.998ZM133.836 157.669C133.836 158.552 133.988 159.321 134.29 159.977C134.593 160.607 135.009 161.099 135.539 161.452C136.068 161.78 136.674 161.944 137.355 161.944C138.036 161.944 138.641 161.78 139.171 161.452C139.701 161.099 140.117 160.607 140.419 159.977C140.722 159.321 140.873 158.552 140.873 157.669C140.873 156.786 140.722 156.029 140.419 155.399C140.117 154.743 139.701 154.251 139.171 153.923C138.641 153.57 138.036 153.394 137.355 153.394C136.674 153.394 136.068 153.57 135.539 153.923C135.009 154.251 134.593 154.743 134.29 155.399C133.988 156.029 133.836 156.786 133.836 157.669Z" fill="white"/>
<path d="M150.347 160.355C150.499 160.456 150.978 160.67 151.785 160.998C152.592 161.326 153.538 161.49 154.623 161.49C155.405 161.49 156.035 161.364 156.514 161.112C156.994 160.834 157.347 160.418 157.574 159.863C157.826 159.308 157.99 158.59 158.066 157.707C158.166 156.799 158.217 155.701 158.217 154.415V140.757H165.595V154.415C165.595 156.458 165.469 158.312 165.216 159.977C164.989 161.642 164.51 163.079 163.779 164.29C163.047 165.501 161.95 166.434 160.487 167.09C159.024 167.72 157.069 168.036 154.623 168.036C153.462 168.036 152.403 167.897 151.444 167.619C150.486 167.342 149.603 166.926 148.796 166.371L150.347 160.355Z" fill="white"/>
<path d="M186.179 149.534C186.179 149.534 185.964 149.408 185.535 149.156C185.107 148.904 184.539 148.626 183.833 148.324C183.127 147.996 182.357 147.706 181.525 147.453C180.693 147.201 179.873 147.075 179.066 147.075C178.435 147.075 177.918 147.176 177.514 147.378C177.111 147.58 176.909 147.92 176.909 148.399C176.909 148.853 177.111 149.219 177.514 149.497C177.918 149.774 178.486 150.026 179.217 150.253C179.974 150.48 180.869 150.758 181.903 151.086C183.568 151.59 185.006 152.17 186.217 152.826C187.427 153.482 188.36 154.327 189.016 155.361C189.672 156.37 190 157.719 190 159.409C190 161.024 189.71 162.386 189.13 163.495C188.55 164.58 187.768 165.45 186.784 166.106C185.8 166.762 184.703 167.241 183.492 167.544C182.282 167.821 181.046 167.96 179.785 167.96C178.498 167.96 177.149 167.834 175.736 167.582C174.349 167.304 173 166.938 171.688 166.484C170.376 166.005 169.178 165.45 168.094 164.82L171.272 158.35C171.272 158.35 171.524 158.501 172.028 158.804C172.533 159.107 173.201 159.447 174.034 159.825C174.866 160.204 175.787 160.544 176.796 160.847C177.83 161.15 178.864 161.301 179.898 161.301C180.705 161.301 181.26 161.2 181.563 160.998C181.891 160.771 182.055 160.481 182.055 160.128C182.055 159.598 181.777 159.195 181.222 158.917C180.667 158.615 179.936 158.337 179.028 158.085C178.145 157.808 177.161 157.492 176.077 157.139C174.513 156.61 173.227 156.017 172.218 155.361C171.209 154.68 170.465 153.885 169.985 152.977C169.506 152.044 169.266 150.922 169.266 149.61C169.266 147.617 169.733 145.953 170.666 144.616C171.6 143.279 172.823 142.27 174.336 141.589C175.875 140.883 177.527 140.53 179.293 140.53C180.604 140.53 181.865 140.694 183.076 141.022C184.312 141.324 185.46 141.703 186.519 142.157C187.604 142.611 188.55 143.039 189.357 143.443L186.179 149.534Z" fill="white"/>
<path d="M44.5648 189.091L42.3196 185.94L41.0916 187.094V189.091H40V180.036H41.0916V185.953L44.4408 182.628H45.6192L43.0391 185.308L45.7433 189.091H44.5648Z" fill="white"/>
<path d="M50.2512 189.153C49.631 189.153 49.0687 189.029 48.5642 188.781C48.0598 188.533 47.6215 188.198 47.2494 187.776C46.8855 187.346 46.6043 186.866 46.4058 186.337C46.2074 185.8 46.1081 185.25 46.1081 184.687C46.1081 184.1 46.2115 183.542 46.4183 183.013C46.6333 182.475 46.9268 182 47.299 181.586C47.6794 181.164 48.1218 180.834 48.6262 180.594C49.1307 180.346 49.6806 180.222 50.276 180.222C50.8963 180.222 51.4586 180.35 51.9631 180.606C52.4675 180.863 52.9017 181.206 53.2655 181.636C53.6294 182.066 53.9106 182.545 54.109 183.075C54.3075 183.604 54.4067 184.146 54.4067 184.7C54.4067 185.287 54.3034 185.849 54.0966 186.387C53.8899 186.916 53.5963 187.392 53.2159 187.813C52.8438 188.227 52.4055 188.553 51.901 188.793C51.3966 189.033 50.8467 189.153 50.2512 189.153ZM47.2369 184.687C47.2369 185.134 47.3072 185.568 47.4478 185.99C47.5967 186.403 47.8034 186.771 48.068 187.094C48.3327 187.416 48.6511 187.673 49.0232 187.863C49.3953 188.053 49.8088 188.148 50.2636 188.148C50.735 188.148 51.1568 188.049 51.5289 187.85C51.901 187.652 52.2153 187.387 52.4716 187.057C52.7363 186.726 52.9347 186.354 53.0671 185.94C53.2076 185.527 53.2779 185.109 53.2779 184.687C53.2779 184.241 53.2035 183.811 53.0546 183.397C52.9141 182.984 52.7073 182.616 52.4344 182.293C52.1698 181.962 51.8514 181.706 51.4793 181.524C51.1154 181.334 50.7102 181.239 50.2636 181.239C49.7923 181.239 49.3705 181.338 48.9984 181.537C48.6262 181.727 48.3079 181.987 48.0432 182.318C47.7869 182.649 47.5884 183.021 47.4478 183.434C47.3072 183.84 47.2369 184.257 47.2369 184.687Z" fill="white"/>
<path d="M61.1305 182.132C61.0313 182.016 60.899 181.905 60.7336 181.797C60.5682 181.69 60.3821 181.594 60.1754 181.512C59.9687 181.421 59.7412 181.351 59.4932 181.301C59.2533 181.243 59.0011 181.214 58.7365 181.214C58.0584 181.214 57.5581 181.342 57.2355 181.599C56.913 181.855 56.7518 182.206 56.7518 182.653C56.7518 182.967 56.8345 183.215 56.9999 183.397C57.1652 183.579 57.4175 183.728 57.7565 183.844C58.1039 183.96 58.5421 184.08 59.0714 184.204C59.6834 184.336 60.2126 184.497 60.6592 184.687C61.1057 184.878 61.4489 185.134 61.6887 185.456C61.9286 185.771 62.0485 186.192 62.0485 186.722C62.0485 187.143 61.9658 187.511 61.8004 187.826C61.6433 188.132 61.42 188.388 61.1305 188.595C60.8411 188.793 60.5021 188.942 60.1134 189.041C59.7247 189.132 59.303 189.178 58.8481 189.178C58.4016 189.178 57.9633 189.132 57.5332 189.041C57.1115 188.942 56.7104 188.801 56.33 188.62C55.9496 188.438 55.594 188.21 55.2632 187.937L55.7966 186.995C55.9289 187.135 56.0985 187.276 56.3052 187.416C56.5202 187.549 56.76 187.673 57.0247 187.788C57.2976 187.904 57.5911 187.999 57.9054 188.074C58.2196 188.14 58.5421 188.173 58.8729 188.173C59.5014 188.173 59.9893 188.061 60.3367 187.838C60.684 187.607 60.8576 187.272 60.8576 186.833C60.8576 186.503 60.7584 186.238 60.5599 186.039C60.3697 185.841 60.0844 185.676 59.704 185.543C59.3236 185.411 58.8605 185.279 58.3147 185.146C57.7193 184.997 57.219 184.836 56.8138 184.663C56.4086 184.481 56.1026 184.245 55.8959 183.955C55.6974 183.666 55.5981 183.29 55.5981 182.827C55.5981 182.264 55.7346 181.789 56.0075 181.4C56.2804 181.011 56.6567 180.718 57.1363 180.519C57.6159 180.321 58.1576 180.222 58.7613 180.222C59.1582 180.222 59.5262 180.263 59.8653 180.346C60.2126 180.428 60.5351 180.544 60.8328 180.693C61.1305 180.842 61.4034 181.02 61.6515 181.226L61.1305 182.132Z" fill="white"/>
<path d="M65.6949 187.776C65.852 187.884 66.067 187.987 66.3399 188.086C66.6211 188.177 66.9519 188.223 67.3323 188.223C67.721 188.223 68.0394 188.161 68.2874 188.037C68.5355 187.904 68.7257 187.71 68.8581 187.454C68.9904 187.189 69.0813 186.854 69.131 186.449C69.1806 186.044 69.2054 185.564 69.2054 185.01V180.284H70.3218V184.762C70.3218 185.415 70.2887 186.015 70.2225 186.56C70.1564 187.106 70.0241 187.582 69.8256 187.987C69.6271 188.384 69.3294 188.69 68.9325 188.905C68.5438 189.12 68.0228 189.227 67.3695 189.227C66.956 189.227 66.5922 189.182 66.2779 189.091C65.9637 189 65.6742 188.864 65.4096 188.682L65.6949 187.776Z" fill="white"/>
<path d="M71.5444 187.218C71.5444 186.804 71.6602 186.449 71.8917 186.151C72.1315 185.845 72.4582 185.609 72.8717 185.444C73.2852 185.279 73.7648 185.196 74.3106 185.196C74.6 185.196 74.906 185.221 75.2285 185.27C75.551 185.312 75.8364 185.378 76.0844 185.469V184.997C76.0844 184.501 75.9356 184.113 75.6379 183.831C75.3402 183.542 74.9184 183.397 74.3726 183.397C74.017 183.397 73.6738 183.463 73.343 183.596C73.0205 183.72 72.6773 183.902 72.3135 184.142L71.9165 183.372C72.3383 183.083 72.76 182.868 73.1818 182.727C73.6035 182.579 74.0418 182.504 74.4967 182.504C75.3236 182.504 75.9769 182.736 76.4566 183.199C76.9362 183.654 77.176 184.29 77.176 185.109V187.85C77.176 187.983 77.2008 188.082 77.2505 188.148C77.3083 188.206 77.3993 188.239 77.5234 188.247V189.091C77.4159 189.107 77.3208 189.12 77.2381 189.128C77.1636 189.136 77.1016 189.141 77.052 189.141C76.7956 189.141 76.6013 189.07 76.469 188.93C76.3449 188.789 76.2746 188.64 76.2581 188.483L76.2333 188.074C75.9521 188.438 75.5841 188.719 75.1293 188.917C74.6745 189.116 74.2238 189.215 73.7772 189.215C73.3472 189.215 72.9626 189.128 72.6236 188.954C72.2845 188.773 72.0199 188.533 71.8297 188.235C71.6395 187.929 71.5444 187.59 71.5444 187.218ZM75.7619 187.677C75.8612 187.561 75.9397 187.445 75.9976 187.329C76.0555 187.205 76.0844 187.102 76.0844 187.019V186.213C75.8281 186.114 75.5593 186.039 75.2781 185.99C74.997 185.932 74.7199 185.903 74.447 185.903C73.893 185.903 73.4423 186.015 73.095 186.238C72.7559 186.453 72.5864 186.751 72.5864 187.131C72.5864 187.338 72.6401 187.54 72.7476 187.739C72.8634 187.929 73.0288 188.086 73.2438 188.21C73.4671 188.334 73.74 188.396 74.0625 188.396C74.4016 188.396 74.7241 188.33 75.0301 188.198C75.336 188.057 75.58 187.884 75.7619 187.677Z" fill="white"/>
<path d="M80.5762 189.091L78.0333 182.616H79.1745L81.2088 188.049L83.2432 182.616H84.31L81.767 189.091H80.5762Z" fill="white"/>
<path d="M84.7363 187.218C84.7363 186.804 84.852 186.449 85.0836 186.151C85.3234 185.845 85.6501 185.609 86.0636 185.444C86.477 185.279 86.9567 185.196 87.5025 185.196C87.7919 185.196 88.0979 185.221 88.4204 185.27C88.7429 185.312 89.0282 185.378 89.2763 185.469V184.997C89.2763 184.501 89.1275 184.113 88.8297 183.831C88.532 183.542 88.1103 183.397 87.5645 183.397C87.2089 183.397 86.8657 183.463 86.5349 183.596C86.2124 183.72 85.8692 183.902 85.5053 184.142L85.1084 183.372C85.5302 183.083 85.9519 182.868 86.3737 182.727C86.7954 182.579 87.2337 182.504 87.6885 182.504C88.5155 182.504 89.1688 182.736 89.6484 183.199C90.1281 183.654 90.3679 184.29 90.3679 185.109V187.85C90.3679 187.983 90.3927 188.082 90.4423 188.148C90.5002 188.206 90.5912 188.239 90.7152 188.247V189.091C90.6077 189.107 90.5126 189.12 90.4299 189.128C90.3555 189.136 90.2935 189.141 90.2439 189.141C89.9875 189.141 89.7932 189.07 89.6609 188.93C89.5368 188.789 89.4665 188.64 89.45 188.483L89.4252 188.074C89.144 188.438 88.776 188.719 88.3212 188.917C87.8663 189.116 87.4156 189.215 86.9691 189.215C86.5391 189.215 86.1545 189.128 85.8155 188.954C85.4764 188.773 85.2118 188.533 85.0216 188.235C84.8314 187.929 84.7363 187.59 84.7363 187.218ZM88.9538 187.677C89.053 187.561 89.1316 187.445 89.1895 187.329C89.2474 187.205 89.2763 187.102 89.2763 187.019V186.213C89.02 186.114 88.7512 186.039 88.47 185.99C88.1889 185.932 87.9118 185.903 87.6389 185.903C87.0849 185.903 86.6342 186.015 86.2868 186.238C85.9478 186.453 85.7782 186.751 85.7782 187.131C85.7782 187.338 85.832 187.54 85.9395 187.739C86.0553 187.929 86.2207 188.086 86.4357 188.21C86.659 188.334 86.9319 188.396 87.2544 188.396C87.5934 188.396 87.916 188.33 88.2219 188.198C88.5279 188.057 88.7719 187.884 88.9538 187.677Z" fill="white"/>
<path d="M97.4597 182.132C97.3604 182.016 97.2281 181.905 97.0627 181.797C96.8973 181.69 96.7113 181.594 96.5045 181.512C96.2978 181.421 96.0704 181.351 95.8223 181.301C95.5825 181.243 95.3302 181.214 95.0656 181.214C94.3875 181.214 93.8872 181.342 93.5647 181.599C93.2422 181.855 93.0809 182.206 93.0809 182.653C93.0809 182.967 93.1636 183.215 93.329 183.397C93.4944 183.579 93.7466 183.728 94.0857 183.844C94.433 183.96 94.8713 184.08 95.4005 184.204C96.0125 184.336 96.5418 184.497 96.9883 184.687C97.4349 184.878 97.7781 185.134 98.0179 185.456C98.2577 185.771 98.3776 186.192 98.3776 186.722C98.3776 187.143 98.2949 187.511 98.1295 187.826C97.9724 188.132 97.7491 188.388 97.4597 188.595C97.1702 188.793 96.8312 188.942 96.4425 189.041C96.0538 189.132 95.6321 189.178 95.1773 189.178C94.7307 189.178 94.2924 189.132 93.8624 189.041C93.4406 188.942 93.0396 188.801 92.6591 188.62C92.2787 188.438 91.9231 188.21 91.5924 187.937L92.1258 186.995C92.2581 187.135 92.4276 187.276 92.6343 187.416C92.8494 187.549 93.0892 187.673 93.3538 187.788C93.6267 187.904 93.9203 187.999 94.2345 188.074C94.5488 188.14 94.8713 188.173 95.2021 188.173C95.8306 188.173 96.3185 188.061 96.6658 187.838C97.0131 187.607 97.1868 187.272 97.1868 186.833C97.1868 186.503 97.0875 186.238 96.8891 186.039C96.6989 185.841 96.4136 185.676 96.0332 185.543C95.6528 185.411 95.1897 185.279 94.6439 185.146C94.0485 184.997 93.5481 184.836 93.1429 184.663C92.7377 184.481 92.4317 184.245 92.225 183.955C92.0265 183.666 91.9273 183.29 91.9273 182.827C91.9273 182.264 92.0637 181.789 92.3366 181.4C92.6095 181.011 92.9858 180.718 93.4654 180.519C93.9451 180.321 94.4867 180.222 95.0904 180.222C95.4874 180.222 95.8554 180.263 96.1944 180.346C96.5418 180.428 96.8643 180.544 97.162 180.693C97.4597 180.842 97.7326 181.02 97.9807 181.226L97.4597 182.132Z" fill="white"/>
<path d="M102.538 189.215C102.05 189.215 101.603 189.128 101.198 188.954C100.801 188.773 100.454 188.524 100.156 188.21C99.8667 187.896 99.6393 187.536 99.4739 187.131C99.3167 186.726 99.2382 186.296 99.2382 185.841C99.2382 185.229 99.3746 184.671 99.6475 184.166C99.9204 183.662 100.305 183.261 100.801 182.963C101.297 182.657 101.872 182.504 102.525 182.504C103.162 182.504 103.716 182.649 104.188 182.938C104.667 183.219 105.023 183.6 105.254 184.08L104.188 184.414C104.022 184.108 103.791 183.873 103.493 183.707C103.195 183.534 102.864 183.447 102.501 183.447C102.104 183.447 101.74 183.55 101.409 183.757C101.086 183.964 100.83 184.249 100.64 184.613C100.45 184.969 100.355 185.378 100.355 185.841C100.355 186.296 100.45 186.709 100.64 187.081C100.838 187.445 101.099 187.735 101.421 187.95C101.752 188.165 102.116 188.272 102.513 188.272C102.769 188.272 103.013 188.227 103.245 188.136C103.485 188.045 103.691 187.925 103.865 187.776C104.047 187.619 104.171 187.449 104.237 187.267L105.304 187.59C105.172 187.904 104.969 188.185 104.696 188.433C104.432 188.673 104.113 188.864 103.741 189.004C103.377 189.145 102.976 189.215 102.538 189.215Z" fill="white"/>
<path d="M109.964 183.571C109.419 183.579 108.935 183.72 108.513 183.993C108.1 184.257 107.806 184.625 107.632 185.097V189.091H106.541V182.616H107.558V184.117C107.781 183.67 108.075 183.31 108.439 183.038C108.811 182.756 109.2 182.599 109.605 182.566C109.687 182.566 109.758 182.566 109.816 182.566C109.873 182.566 109.923 182.57 109.964 182.579V183.571Z" fill="white"/>
<path d="M111.047 189.091V182.616H112.139V189.091H111.047ZM111.047 181.4V180.036H112.139V181.4H111.047Z" fill="white"/>
<path d="M117.392 189.215C116.862 189.215 116.391 189.083 115.978 188.818C115.564 188.553 115.237 188.218 114.998 187.813V191.733H113.906V182.616H114.874V183.831C115.13 183.434 115.465 183.116 115.878 182.876C116.292 182.628 116.742 182.504 117.23 182.504C117.677 182.504 118.086 182.595 118.458 182.777C118.831 182.959 119.153 183.207 119.426 183.521C119.699 183.836 119.91 184.195 120.059 184.601C120.216 184.997 120.294 185.415 120.294 185.853C120.294 186.465 120.17 187.028 119.922 187.54C119.682 188.053 119.343 188.462 118.905 188.768C118.467 189.066 117.962 189.215 117.392 189.215ZM117.057 188.272C117.379 188.272 117.669 188.206 117.925 188.074C118.19 187.933 118.413 187.751 118.595 187.528C118.785 187.296 118.93 187.036 119.029 186.746C119.128 186.457 119.178 186.159 119.178 185.853C119.178 185.531 119.12 185.225 119.004 184.935C118.897 184.646 118.74 184.39 118.533 184.166C118.334 183.943 118.099 183.769 117.826 183.645C117.561 183.513 117.272 183.447 116.957 183.447C116.759 183.447 116.552 183.484 116.337 183.559C116.131 183.633 115.932 183.74 115.742 183.881C115.552 184.013 115.39 184.166 115.258 184.34C115.126 184.514 115.039 184.7 114.998 184.898V186.746C115.122 187.028 115.287 187.284 115.494 187.516C115.701 187.747 115.94 187.933 116.213 188.074C116.486 188.206 116.767 188.272 117.057 188.272Z" fill="white"/>
<path d="M124.887 188.768C124.796 188.81 124.672 188.864 124.515 188.93C124.358 188.996 124.176 189.054 123.969 189.103C123.762 189.153 123.543 189.178 123.311 189.178C123.047 189.178 122.803 189.132 122.58 189.041C122.356 188.942 122.179 188.793 122.046 188.595C121.914 188.388 121.848 188.132 121.848 187.826V183.472H120.967V182.616H121.848V180.457H122.939V182.616H124.391V183.472H122.939V187.491C122.956 187.722 123.034 187.896 123.175 188.012C123.316 188.119 123.481 188.173 123.671 188.173C123.886 188.173 124.085 188.136 124.267 188.061C124.449 187.987 124.568 187.933 124.626 187.9L124.887 188.768Z" fill="white"/>
<path d="M129.21 189.091V180.284H130.326V189.091H129.21Z" fill="white"/>
<path d="M137.878 189.091H136.786V185.469C136.786 184.782 136.678 184.282 136.463 183.968C136.257 183.645 135.938 183.484 135.508 183.484C135.211 183.484 134.913 183.559 134.615 183.707C134.326 183.856 134.065 184.059 133.834 184.315C133.61 184.563 133.449 184.853 133.35 185.184V189.091H132.258V182.616H133.251V184.005C133.424 183.699 133.648 183.434 133.921 183.211C134.193 182.988 134.504 182.814 134.851 182.69C135.198 182.566 135.562 182.504 135.942 182.504C136.315 182.504 136.625 182.574 136.873 182.715C137.129 182.847 137.328 183.038 137.468 183.286C137.617 183.525 137.72 183.811 137.778 184.142C137.844 184.472 137.878 184.832 137.878 185.221V189.091Z" fill="white"/>
<path d="M142.864 188.768C142.773 188.81 142.649 188.864 142.492 188.93C142.334 188.996 142.152 189.054 141.946 189.103C141.739 189.153 141.52 189.178 141.288 189.178C141.024 189.178 140.78 189.132 140.556 189.041C140.333 188.942 140.155 188.793 140.023 188.595C139.891 188.388 139.825 188.132 139.825 187.826V183.472H138.944V182.616H139.825V180.457H140.916V182.616H142.367V183.472H140.916V187.491C140.933 187.722 141.011 187.896 141.152 188.012C141.292 188.119 141.458 188.173 141.648 188.173C141.863 188.173 142.062 188.136 142.243 188.061C142.425 187.987 142.545 187.933 142.603 187.9L142.864 188.768Z" fill="white"/>
<path d="M146.656 189.215C146.168 189.215 145.722 189.128 145.316 188.954C144.919 188.773 144.572 188.529 144.274 188.223C143.985 187.908 143.758 187.549 143.592 187.143C143.435 186.738 143.356 186.308 143.356 185.853C143.356 185.241 143.497 184.683 143.778 184.179C144.059 183.674 144.448 183.269 144.944 182.963C145.449 182.657 146.023 182.504 146.668 182.504C147.322 182.504 147.888 182.661 148.368 182.976C148.856 183.281 149.232 183.687 149.497 184.191C149.77 184.687 149.906 185.225 149.906 185.804C149.906 185.886 149.902 185.969 149.894 186.052C149.894 186.126 149.889 186.184 149.881 186.225H144.51C144.543 186.647 144.659 187.024 144.857 187.354C145.064 187.677 145.329 187.933 145.651 188.123C145.974 188.305 146.321 188.396 146.693 188.396C147.09 188.396 147.462 188.297 147.81 188.099C148.165 187.9 148.409 187.64 148.542 187.317L149.484 187.578C149.344 187.892 149.133 188.173 148.852 188.421C148.579 188.669 148.252 188.864 147.872 189.004C147.5 189.145 147.094 189.215 146.656 189.215ZM144.473 185.469H148.889C148.856 185.047 148.736 184.675 148.529 184.352C148.322 184.03 148.058 183.778 147.735 183.596C147.413 183.414 147.057 183.323 146.668 183.323C146.288 183.323 145.937 183.414 145.614 183.596C145.292 183.778 145.027 184.03 144.82 184.352C144.622 184.675 144.506 185.047 144.473 185.469Z" fill="white"/>
<path d="M154.543 183.571C153.997 183.579 153.513 183.72 153.092 183.993C152.678 184.257 152.385 184.625 152.211 185.097V189.091H151.119V182.616H152.137V184.117C152.36 183.67 152.653 183.31 153.017 183.038C153.389 182.756 153.778 182.599 154.183 182.566C154.266 182.566 154.336 182.566 154.394 182.566C154.452 182.566 154.502 182.57 154.543 182.579V183.571Z" fill="white"/>
<path d="M159.111 189.215C158.582 189.215 158.111 189.083 157.697 188.818C157.284 188.553 156.957 188.218 156.717 187.813V191.733H155.626V182.616H156.593V183.831C156.85 183.434 157.185 183.116 157.598 182.876C158.012 182.628 158.462 182.504 158.95 182.504C159.397 182.504 159.806 182.595 160.178 182.777C160.55 182.959 160.873 183.207 161.146 183.521C161.419 183.836 161.63 184.195 161.778 184.601C161.935 184.997 162.014 185.415 162.014 185.853C162.014 186.465 161.89 187.028 161.642 187.54C161.402 188.053 161.063 188.462 160.625 188.768C160.186 189.066 159.682 189.215 159.111 189.215ZM158.776 188.272C159.099 188.272 159.388 188.206 159.645 188.074C159.909 187.933 160.133 187.751 160.315 187.528C160.505 187.296 160.65 187.036 160.749 186.746C160.848 186.457 160.898 186.159 160.898 185.853C160.898 185.531 160.84 185.225 160.724 184.935C160.616 184.646 160.459 184.39 160.253 184.166C160.054 183.943 159.818 183.769 159.546 183.645C159.281 183.513 158.991 183.447 158.677 183.447C158.479 183.447 158.272 183.484 158.057 183.559C157.85 183.633 157.652 183.74 157.462 183.881C157.271 184.013 157.11 184.166 156.978 184.34C156.846 184.514 156.759 184.7 156.717 184.898V186.746C156.841 187.028 157.007 187.284 157.214 187.516C157.42 187.747 157.66 187.933 157.933 188.074C158.206 188.206 158.487 188.272 158.776 188.272Z" fill="white"/>
<path d="M166.778 183.571C166.232 183.579 165.748 183.72 165.327 183.993C164.913 184.257 164.62 184.625 164.446 185.097V189.091H163.354V182.616H164.371V184.117C164.595 183.67 164.888 183.31 165.252 183.038C165.624 182.756 166.013 182.599 166.418 182.566C166.501 182.566 166.571 182.566 166.629 182.566C166.687 182.566 166.737 182.57 166.778 182.579V183.571Z" fill="white"/>
<path d="M170.569 189.215C170.081 189.215 169.634 189.128 169.229 188.954C168.832 188.773 168.485 188.529 168.187 188.223C167.897 187.908 167.67 187.549 167.505 187.143C167.348 186.738 167.269 186.308 167.269 185.853C167.269 185.241 167.41 184.683 167.691 184.179C167.972 183.674 168.361 183.269 168.857 182.963C169.361 182.657 169.936 182.504 170.581 182.504C171.234 182.504 171.801 182.661 172.28 182.976C172.768 183.281 173.145 183.687 173.409 184.191C173.682 184.687 173.819 185.225 173.819 185.804C173.819 185.886 173.814 185.969 173.806 186.052C173.806 186.126 173.802 186.184 173.794 186.225H168.423C168.456 186.647 168.571 187.024 168.77 187.354C168.977 187.677 169.241 187.933 169.564 188.123C169.886 188.305 170.234 188.396 170.606 188.396C171.003 188.396 171.375 188.297 171.722 188.099C172.078 187.9 172.322 187.64 172.454 187.317L173.397 187.578C173.256 187.892 173.045 188.173 172.764 188.421C172.491 188.669 172.165 188.864 171.784 189.004C171.412 189.145 171.007 189.215 170.569 189.215ZM168.385 185.469H172.801C172.768 185.047 172.648 184.675 172.442 184.352C172.235 184.03 171.97 183.778 171.648 183.596C171.325 183.414 170.97 183.323 170.581 183.323C170.201 183.323 169.849 183.414 169.527 183.596C169.204 183.778 168.939 184.03 168.733 184.352C168.534 184.675 168.418 185.047 168.385 185.469Z" fill="white"/>
<path d="M178.321 188.768C178.23 188.81 178.106 188.864 177.948 188.93C177.791 188.996 177.609 189.054 177.403 189.103C177.196 189.153 176.977 189.178 176.745 189.178C176.481 189.178 176.237 189.132 176.013 189.041C175.79 188.942 175.612 188.793 175.48 188.595C175.348 188.388 175.282 188.132 175.282 187.826V183.472H174.401V182.616H175.282V180.457H176.373V182.616H177.824V183.472H176.373V187.491C176.39 187.722 176.468 187.896 176.609 188.012C176.749 188.119 176.915 188.173 177.105 188.173C177.32 188.173 177.518 188.136 177.7 188.061C177.882 187.987 178.002 187.933 178.06 187.9L178.321 188.768Z" fill="white"/>
<path d="M182.113 189.215C181.625 189.215 181.179 189.128 180.773 188.954C180.376 188.773 180.029 188.529 179.731 188.223C179.442 187.908 179.214 187.549 179.049 187.143C178.892 186.738 178.813 186.308 178.813 185.853C178.813 185.241 178.954 184.683 179.235 184.179C179.516 183.674 179.905 183.269 180.401 182.963C180.906 182.657 181.48 182.504 182.125 182.504C182.779 182.504 183.345 182.661 183.825 182.976C184.313 183.281 184.689 183.687 184.954 184.191C185.227 184.687 185.363 185.225 185.363 185.804C185.363 185.886 185.359 185.969 185.351 186.052C185.351 186.126 185.346 186.184 185.338 186.225H179.967C180 186.647 180.116 187.024 180.314 187.354C180.521 187.677 180.786 187.933 181.108 188.123C181.431 188.305 181.778 188.396 182.15 188.396C182.547 188.396 182.919 188.297 183.267 188.099C183.622 187.9 183.866 187.64 183.998 187.317L184.941 187.578C184.801 187.892 184.59 188.173 184.309 188.421C184.036 188.669 183.709 188.864 183.329 189.004C182.956 189.145 182.551 189.215 182.113 189.215ZM179.93 185.469H184.346C184.313 185.047 184.193 184.675 183.986 184.352C183.779 184.03 183.515 183.778 183.192 183.596C182.87 183.414 182.514 183.323 182.125 183.323C181.745 183.323 181.394 183.414 181.071 183.596C180.749 183.778 180.484 184.03 180.277 184.352C180.079 184.675 179.963 185.047 179.93 185.469Z" fill="white"/>
<path d="M190 183.571C189.454 183.579 188.97 183.72 188.549 183.993C188.135 184.257 187.842 184.625 187.668 185.097V189.091H186.576V182.616H187.594V184.117C187.817 183.67 188.11 183.31 188.474 183.038C188.846 182.756 189.235 182.599 189.64 182.566C189.723 182.566 189.793 182.566 189.851 182.566C189.909 182.566 189.959 182.57 190 182.579V183.571Z" fill="white"/>
</svg>
