<svg viewBox="0 0 230 260" fill="none" xmlns="http://www.w3.org/2000/svg">
<path d="M107.139 257.899L7.83831 200.726C5.44959 199.345 3.46758 197.361 2.09162 194.974C0.715664 192.587 -0.00571752 189.88 3.41263e-05 187.127V72.8733C-0.00571752 70.1197 0.715664 67.4131 2.09162 65.0258C3.46758 62.6385 5.44959 60.6547 7.83831 59.2738L107.139 2.10085C109.529 0.724558 112.24 0 115 0C117.76 0 120.471 0.724558 122.861 2.10085L222.162 59.2738C224.55 60.6547 226.532 62.6385 227.908 65.0258C229.284 67.4131 230.006 70.1197 230 72.8733V187.266C230.006 190.019 229.284 192.726 227.908 195.113C226.532 197.5 224.55 199.484 222.162 200.865L122.861 257.899C120.471 259.275 117.76 260 115 260C112.24 260 109.529 259.275 107.139 257.899Z" fill="#141010"/>
<path d="M115 80C98.4575 80 85 93.2736 85 109.589C85 119.284 89.7519 127.904 97.0793 133.304C97.8297 132.775 98.7471 132.459 99.74 132.459H100.961C93.1297 127.765 87.8874 119.269 87.8874 109.589C87.8874 94.8436 100.05 82.8472 115 82.8472C129.95 82.8472 142.113 94.8436 142.113 109.589C142.113 119.269 136.87 127.765 129.039 132.459H130.262C131.255 132.459 132.172 132.775 132.922 133.303C140.248 127.903 145 119.283 145 109.589C144.999 93.2736 131.542 80 115 80Z" fill="white"/>
<path d="M114.07 94.5347H115.926C116.381 94.5347 116.751 94.1703 116.751 93.7211C116.751 93.2719 116.381 92.9075 115.926 92.9075H114.07C113.614 92.9075 113.245 93.2719 113.245 93.7211C113.245 94.1703 113.614 94.5347 114.07 94.5347Z" fill="white"/>
<path d="M130.262 133.882H124.368C122.733 133.882 121.402 132.58 121.402 130.978V126.487C120.878 126.72 120.297 126.853 119.684 126.853C119.072 126.853 118.491 126.72 117.966 126.487V130.978C117.966 132.58 116.636 133.882 115.001 133.882C113.365 133.882 112.035 132.58 112.035 130.978V126.486C111.509 126.719 110.928 126.852 110.314 126.852C109.701 126.852 109.12 126.719 108.595 126.486V130.978C108.595 132.579 107.264 133.882 105.629 133.882H99.7397C98.0159 133.882 96.6134 135.254 96.6134 136.941C96.6134 138.628 98.0159 140 99.7397 140H130.262C131.985 140 133.388 138.628 133.388 136.941C133.388 135.254 131.986 133.882 130.262 133.882Z" fill="white"/>
<path d="M119.548 90.3687L117.462 87.0471C116.934 86.2043 116.015 85.7003 115.006 85.6991H115.003C113.994 85.6991 113.074 86.2015 112.543 87.0459L110.455 90.3691C109.65 91.6527 109.225 93.1267 109.225 94.6315L109.224 99.8488C109.224 100.606 109.041 101.362 108.694 102.033C107.03 105.252 102.303 112.575 100.347 115.574C99.7767 116.45 99.7361 117.562 100.242 118.475C100.751 119.395 101.729 119.966 102.795 119.966L107.567 119.966V122.732C107.567 124.219 108.8 125.429 110.316 125.429C111.832 125.429 113.065 124.219 113.065 122.732V119.967L116.937 119.967V122.732C116.937 124.219 118.17 125.429 119.685 125.429C121.201 125.429 122.434 124.219 122.434 122.732V119.968L127.206 119.968C128.272 119.968 129.25 119.397 129.759 118.478C130.265 117.564 130.224 116.453 129.653 115.578C127.698 112.578 122.973 105.253 121.31 102.035C120.964 101.363 120.78 100.608 120.78 99.85L120.781 94.6331C120.781 93.1315 120.355 91.6575 119.548 90.3687ZM112.111 94.6319C112.112 93.6563 112.388 92.6995 112.909 91.8675L115.007 88.5455L117.093 91.8667C117.617 92.7035 117.894 93.6603 117.894 94.6323L117.893 99.8496C117.893 99.9236 117.898 99.9968 117.9 100.07C117.899 100.09 117.894 100.108 117.894 100.128V117.118L112.102 117.117V106.967C112.102 106.916 112.094 106.867 112.086 106.818C112.094 106.768 112.102 106.719 112.102 106.668V100.133C112.105 100.038 112.11 99.9436 112.11 99.8488L112.111 94.6319ZM102.775 117.114C104.761 114.068 107.994 109.043 110.039 105.53V106.668C110.039 106.719 110.047 106.768 110.055 106.818C110.048 106.867 110.039 106.916 110.039 106.968V117.116L102.775 117.114ZM111.002 122.732C111.002 123.098 110.694 123.395 110.315 123.395C109.937 123.395 109.629 123.097 109.629 122.732V119.966H111.002V122.732ZM120.371 122.732C120.371 123.098 120.064 123.395 119.685 123.395C119.306 123.395 118.998 123.097 118.998 122.732V119.968H120.371L120.371 122.732ZM127.222 117.12C127.222 117.12 127.217 117.121 127.206 117.121L119.957 117.119V105.52C122 109.034 125.237 114.067 127.222 117.12Z" fill="white"/>
<path d="M40 179.619V152.757H47.3778V162.972L55.5501 152.757H63.8738L54.1124 164.788L64.5548 179.619H56.0798L49.4209 169.745L47.3778 171.863V179.619H40Z" fill="white"/>
<path d="M74.0626 179.998C72.3222 179.998 70.771 179.733 69.4089 179.203C68.0469 178.648 66.8992 177.904 65.966 176.971C65.0579 176.038 64.3643 174.966 63.8851 173.755C63.4058 172.544 63.1662 171.271 63.1662 169.934C63.1662 168.017 63.5824 166.264 64.4147 164.675C65.2471 163.06 66.4704 161.774 68.0847 160.816C69.699 159.832 71.6917 159.34 74.0626 159.34C76.4336 159.34 78.4263 159.819 80.0406 160.778C81.6548 161.736 82.8782 162.997 83.7105 164.561C84.5429 166.125 84.9591 167.828 84.9591 169.669C84.9591 170.047 84.9339 170.438 84.8834 170.842C84.8582 171.22 84.8204 171.561 84.7699 171.863H70.8088C70.8593 172.57 71.0485 173.15 71.3764 173.604C71.7295 174.033 72.1583 174.348 72.6627 174.55C73.1924 174.751 73.7347 174.852 74.2896 174.852C75.0716 174.852 75.803 174.676 76.4841 174.323C77.1903 173.969 77.657 173.478 77.884 172.847L83.9754 174.587C83.4457 175.647 82.7016 176.58 81.7431 177.387C80.8099 178.194 79.7 178.838 78.4137 179.317C77.1273 179.771 75.6769 179.998 74.0626 179.998ZM70.6575 167.55H77.2408C77.1651 166.894 76.9759 166.339 76.6732 165.885C76.3958 165.431 76.0174 165.078 75.5382 164.826C75.0842 164.574 74.5545 164.448 73.9491 164.448C73.3438 164.448 72.8015 164.574 72.3222 164.826C71.8682 165.078 71.4899 165.431 71.1872 165.885C70.9097 166.339 70.7332 166.894 70.6575 167.55Z" fill="white"/>
<path d="M100.826 165.848C99.4388 165.848 98.1777 165.999 97.0426 166.302C95.9076 166.604 95.0626 167.109 94.5077 167.815V179.619H87.319V159.718H93.9023V163.502C94.6086 162.165 95.4914 161.143 96.5508 160.437C97.6101 159.706 98.7326 159.34 99.9181 159.34C100.196 159.34 100.385 159.34 100.486 159.34C100.612 159.34 100.725 159.353 100.826 159.378V165.848Z" fill="white"/>
<path d="M115.734 179.998C114.245 179.998 112.959 179.708 111.874 179.128C110.79 178.522 109.932 177.652 109.302 176.517V179.619H103.059V152H110.248V162.669C110.828 161.585 111.647 160.765 112.707 160.21C113.766 159.63 115.015 159.34 116.452 159.34C117.663 159.34 118.786 159.605 119.82 160.135C120.854 160.639 121.749 161.358 122.506 162.291C123.288 163.224 123.893 164.334 124.322 165.621C124.751 166.882 124.965 168.256 124.965 169.745C124.965 171.208 124.726 172.57 124.246 173.831C123.792 175.067 123.149 176.151 122.317 177.085C121.51 178.018 120.539 178.737 119.404 179.241C118.294 179.746 117.07 179.998 115.734 179.998ZM113.653 173.944C114.233 173.944 114.763 173.843 115.242 173.642C115.721 173.44 116.137 173.162 116.49 172.809C116.843 172.431 117.108 171.989 117.285 171.485C117.487 170.981 117.588 170.413 117.588 169.782C117.588 168.975 117.424 168.244 117.096 167.588C116.793 166.907 116.364 166.377 115.809 165.999C115.28 165.595 114.662 165.394 113.955 165.394C113.451 165.394 112.959 165.52 112.48 165.772C112.001 166.024 111.559 166.377 111.156 166.831C110.777 167.26 110.475 167.765 110.248 168.345V171.901C110.475 172.229 110.714 172.532 110.966 172.809C111.244 173.061 111.521 173.276 111.799 173.452C112.076 173.604 112.366 173.73 112.669 173.831C112.997 173.906 113.325 173.944 113.653 173.944Z" fill="white"/>
<path d="M137.355 179.998C135.589 179.998 134.025 179.72 132.663 179.165C131.301 178.611 130.154 177.854 129.22 176.895C128.312 175.912 127.619 174.802 127.139 173.566C126.685 172.33 126.458 171.031 126.458 169.669C126.458 168.307 126.685 167.008 127.139 165.772C127.619 164.511 128.312 163.401 129.22 162.442C130.154 161.484 131.301 160.727 132.663 160.172C134.025 159.617 135.589 159.34 137.355 159.34C139.146 159.34 140.71 159.617 142.046 160.172C143.408 160.727 144.543 161.484 145.451 162.442C146.385 163.401 147.078 164.511 147.532 165.772C148.012 167.008 148.251 168.307 148.251 169.669C148.251 171.031 148.012 172.33 147.532 173.566C147.078 174.802 146.385 175.912 145.451 176.895C144.543 177.854 143.408 178.611 142.046 179.165C140.71 179.72 139.146 179.998 137.355 179.998ZM133.836 169.669C133.836 170.552 133.988 171.321 134.29 171.977C134.593 172.607 135.009 173.099 135.539 173.452C136.068 173.78 136.674 173.944 137.355 173.944C138.036 173.944 138.641 173.78 139.171 173.452C139.701 173.099 140.117 172.607 140.419 171.977C140.722 171.321 140.873 170.552 140.873 169.669C140.873 168.786 140.722 168.029 140.419 167.399C140.117 166.743 139.701 166.251 139.171 165.923C138.641 165.57 138.036 165.394 137.355 165.394C136.674 165.394 136.068 165.57 135.539 165.923C135.009 166.251 134.593 166.743 134.29 167.399C133.988 168.029 133.836 168.786 133.836 169.669Z" fill="white"/>
<path d="M150.347 172.355C150.499 172.456 150.978 172.67 151.785 172.998C152.592 173.326 153.538 173.49 154.623 173.49C155.405 173.49 156.035 173.364 156.514 173.112C156.994 172.834 157.347 172.418 157.574 171.863C157.826 171.308 157.99 170.59 158.066 169.707C158.166 168.799 158.217 167.701 158.217 166.415V152.757H165.595V166.415C165.595 168.458 165.469 170.312 165.216 171.977C164.989 173.642 164.51 175.079 163.779 176.29C163.047 177.501 161.95 178.434 160.487 179.09C159.024 179.72 157.069 180.036 154.623 180.036C153.462 180.036 152.403 179.897 151.444 179.619C150.486 179.342 149.603 178.926 148.796 178.371L150.347 172.355Z" fill="white"/>
<path d="M186.179 161.534C186.179 161.534 185.964 161.408 185.535 161.156C185.107 160.904 184.539 160.626 183.833 160.324C183.127 159.996 182.357 159.706 181.525 159.453C180.693 159.201 179.873 159.075 179.066 159.075C178.435 159.075 177.918 159.176 177.514 159.378C177.111 159.58 176.909 159.92 176.909 160.399C176.909 160.853 177.111 161.219 177.514 161.497C177.918 161.774 178.486 162.026 179.217 162.253C179.974 162.48 180.869 162.758 181.903 163.086C183.568 163.59 185.006 164.17 186.217 164.826C187.427 165.482 188.36 166.327 189.016 167.361C189.672 168.37 190 169.719 190 171.409C190 173.024 189.71 174.386 189.13 175.495C188.55 176.58 187.768 177.45 186.784 178.106C185.8 178.762 184.703 179.241 183.492 179.544C182.282 179.821 181.046 179.96 179.785 179.96C178.498 179.96 177.149 179.834 175.736 179.582C174.349 179.304 173 178.938 171.688 178.484C170.376 178.005 169.178 177.45 168.094 176.82L171.272 170.35C171.272 170.35 171.524 170.501 172.028 170.804C172.533 171.107 173.201 171.447 174.034 171.825C174.866 172.204 175.787 172.544 176.796 172.847C177.83 173.15 178.864 173.301 179.898 173.301C180.705 173.301 181.26 173.2 181.563 172.998C181.891 172.771 182.055 172.481 182.055 172.128C182.055 171.598 181.777 171.195 181.222 170.917C180.667 170.615 179.936 170.337 179.028 170.085C178.145 169.808 177.161 169.492 176.077 169.139C174.513 168.61 173.227 168.017 172.218 167.361C171.209 166.68 170.465 165.885 169.985 164.977C169.506 164.044 169.266 162.922 169.266 161.61C169.266 159.617 169.733 157.953 170.666 156.616C171.6 155.279 172.823 154.27 174.336 153.589C175.875 152.883 177.527 152.53 179.293 152.53C180.604 152.53 181.865 152.694 183.076 153.022C184.312 153.324 185.46 153.703 186.519 154.157C187.604 154.611 188.55 155.039 189.357 155.443L186.179 161.534Z" fill="white"/>
</svg>
