<svg viewBox="0 0 150 54" xmlns="http://www.w3.org/2000/svg">
  <path d="M0 27.5843V0.755735H7.3778V10.9582L15.5501 0.755735H23.8738L14.1124 12.7719L24.5548 27.5843H16.0798L9.42089 17.722L7.3778 19.8381V27.5843H0Z" />
  <path d="M34.0626 27.9622C32.3222 27.9622 30.771 27.6977 29.4089 27.1687C28.0469 26.6145 26.8992 25.8713 25.966 24.9393C25.0579 24.0072 24.3643 22.9366 23.8851 21.7274C23.4058 20.5182 23.1662 19.2461 23.1662 17.9109C23.1662 15.9964 23.5824 14.2456 24.4147 12.6586C25.2471 11.0463 26.4704 9.76158 28.0847 8.80432C29.699 7.82186 31.6917 7.33063 34.0626 7.33063C36.4336 7.33063 38.4263 7.80927 40.0406 8.76653C41.6548 9.7238 42.8782 10.9834 43.7105 12.5452C44.5429 14.1071 44.9591 15.8075 44.9591 17.6464C44.9591 18.0243 44.9339 18.4148 44.8834 18.8178C44.8582 19.1957 44.8204 19.5358 44.7699 19.8381H30.8088C30.8593 20.5434 31.0485 21.1228 31.3764 21.5762C31.7295 22.0045 32.1583 22.3194 32.6627 22.5209C33.1924 22.7224 33.7347 22.8232 34.2896 22.8232C35.0716 22.8232 35.803 22.6469 36.4841 22.2942C37.1903 21.9415 37.657 21.4503 37.884 20.8205L43.9754 22.5587C43.4457 23.6167 42.7016 24.5488 41.7431 25.3549C40.8099 26.161 39.7 26.8034 38.4137 27.2821C37.1273 27.7355 35.6769 27.9622 34.0626 27.9622ZM30.6575 15.5304H37.2408C37.1651 14.8754 36.9759 14.3212 36.6732 13.8677C36.3958 13.4143 36.0174 13.0616 35.5382 12.8097C35.0842 12.5578 34.5545 12.4318 33.9491 12.4318C33.3438 12.4318 32.8015 12.5578 32.3222 12.8097C31.8682 13.0616 31.4899 13.4143 31.1872 13.8677C30.9097 14.3212 30.7332 14.8754 30.6575 15.5304Z" />
  <path d="M60.8261 13.83C59.4388 13.83 58.1777 13.9811 57.0426 14.2834C55.9076 14.5857 55.0626 15.0895 54.5077 15.7949V27.5843H47.319V7.7085H53.9023V11.4872C54.6086 10.152 55.4914 9.1318 56.5508 8.42645C57.6101 7.69591 58.7326 7.33063 59.9181 7.33063C60.1955 7.33063 60.3847 7.33063 60.4856 7.33063C60.6117 7.33063 60.7252 7.34323 60.8261 7.36842V13.83Z" />
  <path d="M75.7336 27.9622C74.2455 27.9622 72.9591 27.6725 71.8745 27.0931C70.7899 26.4885 69.9323 25.6194 69.3017 24.4858V27.5843H63.0589V0H70.2476V10.6559C70.8277 9.57265 71.6475 8.75394 72.7068 8.19973C73.7662 7.62033 75.0148 7.33063 76.4525 7.33063C77.6632 7.33063 78.7857 7.59514 79.8198 8.12416C80.854 8.62798 81.7494 9.34593 82.5061 10.278C83.288 11.2101 83.8934 12.3185 84.3222 13.6032C84.751 14.8628 84.9654 16.2357 84.9654 17.722C84.9654 19.1831 84.7257 20.5434 84.2465 21.803C83.7925 23.0373 83.1493 24.1206 82.3169 25.0526C81.5098 25.9847 80.5387 26.7027 79.4036 27.2065C78.2938 27.7103 77.0705 27.9622 75.7336 27.9622ZM73.6527 21.9163C74.2329 21.9163 74.7625 21.8156 75.2418 21.614C75.721 21.4125 76.1372 21.1354 76.4903 20.7827C76.8435 20.4049 77.1083 19.964 77.2849 19.4602C77.4867 18.9564 77.5875 18.3896 77.5875 17.7598C77.5875 16.9537 77.4236 16.2231 77.0957 15.5682C76.793 14.888 76.3642 14.359 75.8093 13.9811C75.2796 13.578 74.6617 13.3765 73.9554 13.3765C73.4509 13.3765 72.9591 13.5025 72.4798 13.7544C72.0006 14.0063 71.5592 14.359 71.1556 14.8124C70.7773 15.2407 70.4746 15.7445 70.2476 16.3239V19.8758C70.4746 20.2033 70.7142 20.5056 70.9664 20.7827C71.2439 21.0346 71.5214 21.2488 71.7988 21.4251C72.0763 21.5762 72.3663 21.7022 72.669 21.803C72.9969 21.8785 73.3248 21.9163 73.6527 21.9163Z" />
  <path d="M97.3548 27.9622C95.5892 27.9622 94.0253 27.6851 92.6633 27.1309C91.3012 26.5767 90.1536 25.821 89.2203 24.8637C88.3123 23.8812 87.6186 22.7728 87.1394 21.5385C86.6854 20.3041 86.4584 19.0067 86.4584 17.6464C86.4584 16.2861 86.6854 14.9888 87.1394 13.7544C87.6186 12.4948 88.3123 11.3864 89.2203 10.4291C90.1536 9.47189 91.3012 8.71615 92.6633 8.16194C94.0253 7.60774 95.5892 7.33063 97.3548 7.33063C99.1457 7.33063 100.71 7.60774 102.046 8.16194C103.408 8.71615 104.543 9.47189 105.451 10.4291C106.385 11.3864 107.078 12.4948 107.532 13.7544C108.012 14.9888 108.251 16.2861 108.251 17.6464C108.251 19.0067 108.012 20.3041 107.532 21.5385C107.078 22.7728 106.385 23.8812 105.451 24.8637C104.543 25.821 103.408 26.5767 102.046 27.1309C100.71 27.6851 99.1457 27.9622 97.3548 27.9622ZM93.8362 17.6464C93.8362 18.5281 93.9875 19.2964 94.2902 19.9514C94.5929 20.5812 95.009 21.0724 95.5387 21.4251C96.0684 21.7526 96.6738 21.9163 97.3548 21.9163C98.0358 21.9163 98.6412 21.7526 99.1709 21.4251C99.7006 21.0724 100.117 20.5812 100.419 19.9514C100.722 19.2964 100.873 18.5281 100.873 17.6464C100.873 16.7647 100.722 16.009 100.419 15.3792C100.117 14.7242 99.7006 14.233 99.1709 13.9055C98.6412 13.5529 98.0358 13.3765 97.3548 13.3765C96.6738 13.3765 96.0684 13.5529 95.5387 13.9055C95.009 14.233 94.5929 14.7242 94.2902 15.3792C93.9875 16.009 93.8362 16.7647 93.8362 17.6464Z" />
  <path d="M110.347 20.3293C110.499 20.43 110.978 20.6442 111.785 20.9717C112.592 21.2991 113.538 21.4629 114.623 21.4629C115.405 21.4629 116.035 21.3369 116.514 21.085C116.994 20.8079 117.347 20.3923 117.574 19.8381C117.826 19.2839 117.99 18.5659 118.066 17.6842C118.166 16.7773 118.217 15.6815 118.217 14.3968V0.755735H125.595V14.3968C125.595 16.4372 125.469 18.2888 125.216 19.9514C124.989 21.614 124.51 23.0499 123.779 24.2591C123.047 25.4683 121.95 26.4004 120.487 27.0553C119.024 27.6851 117.069 28 114.623 28C113.462 28 112.403 27.8614 111.444 27.5843C110.486 27.3072 109.603 26.8916 108.796 26.3374L110.347 20.3293Z" />
  <path d="M146.179 9.52227C146.179 9.52227 145.964 9.39631 145.535 9.1444C145.107 8.89249 144.539 8.61538 143.833 8.31309C143.127 7.9856 142.357 7.69591 141.525 7.44399C140.693 7.19208 139.873 7.06613 139.066 7.06613C138.435 7.06613 137.918 7.16689 137.514 7.36842C137.111 7.56995 136.909 7.91003 136.909 8.38866C136.909 8.84211 137.111 9.20738 137.514 9.48448C137.918 9.76158 138.486 10.0135 139.217 10.2402C139.974 10.4669 140.869 10.744 141.903 11.0715C143.568 11.5753 145.006 12.1547 146.217 12.8097C147.427 13.4647 148.36 14.3086 149.016 15.3414C149.672 16.3491 150 17.6968 150 19.3846C150 20.9969 149.71 22.3572 149.13 23.4656C148.55 24.5488 147.768 25.4179 146.784 26.0729C145.8 26.7278 144.703 27.2065 143.492 27.5088C142.282 27.7859 141.046 27.9244 139.785 27.9244C138.498 27.9244 137.149 27.7985 135.736 27.5466C134.349 27.2695 133 26.9042 131.688 26.4507C130.376 25.9721 129.178 25.4179 128.094 24.7881L131.272 18.3266C131.272 18.3266 131.524 18.4777 132.028 18.78C132.533 19.0823 133.201 19.4224 134.034 19.8003C134.866 20.1781 135.787 20.5182 136.796 20.8205C137.83 21.1228 138.864 21.274 139.898 21.274C140.705 21.274 141.26 21.1732 141.563 20.9717C141.891 20.7449 142.055 20.4552 142.055 20.1026C142.055 19.5735 141.777 19.1705 141.222 18.8934C140.667 18.5911 139.936 18.314 139.028 18.0621C138.145 17.785 137.161 17.4701 136.077 17.1174C134.513 16.5884 133.227 15.9964 132.218 15.3414C131.209 14.6613 130.465 13.8677 129.985 12.9609C129.506 12.0288 129.266 10.9078 129.266 9.59784C129.266 7.60774 129.733 5.94512 130.666 4.60999C131.6 3.27485 132.823 2.26721 134.336 1.58704C135.875 0.881691 137.527 0.529015 139.293 0.529015C140.604 0.529015 141.865 0.692758 143.076 1.02024C144.312 1.32254 145.46 1.7004 146.519 2.15385C147.604 2.60729 148.55 3.03554 149.357 3.4386L146.179 9.52227Z" />
  <path d="M0.325848 49.0797C0.553942 49.2426 0.852636 49.3838 1.22193 49.5033C1.60209 49.6227 2.03655 49.6825 2.52532 49.6825C3.09013 49.6825 3.54631 49.5902 3.89389 49.4055C4.24146 49.21 4.50757 48.9222 4.69221 48.542C4.87686 48.151 5.00177 47.6677 5.06694 47.092C5.13211 46.5163 5.16469 45.8429 5.16469 45.0717V38.9621H6.30516V44.8436C6.30516 45.7126 6.26172 46.5055 6.17482 47.2223C6.08793 47.9392 5.91958 48.5583 5.66976 49.0797C5.41994 49.601 5.04522 50.0029 4.54558 50.2853C4.04595 50.5677 3.38339 50.7089 2.55791 50.7089C2.02569 50.7089 1.55321 50.6492 1.14047 50.5297C0.727728 50.4102 0.347571 50.231 0 49.992L0.325848 49.0797Z" />
  <path d="M8.02617 48.0858C8.02617 47.5536 8.17824 47.0974 8.48236 46.7173C8.78649 46.3262 9.20466 46.0276 9.73688 45.8212C10.28 45.604 10.9045 45.4953 11.6105 45.4953C12.0232 45.4953 12.4523 45.5279 12.8976 45.5931C13.3429 45.6583 13.7394 45.756 14.087 45.8864V45.1695C14.087 44.4526 13.8751 43.8824 13.4515 43.4588C13.0279 43.0352 12.4414 42.8234 11.692 42.8234C11.2358 42.8234 10.785 42.9103 10.3397 43.0841C9.90523 43.247 9.44905 43.4914 8.97113 43.8172L8.54753 43.0352C9.10147 42.655 9.64455 42.3726 10.1768 42.188C10.709 41.9925 11.2521 41.8947 11.806 41.8947C12.8487 41.8947 13.6742 42.1934 14.2825 42.7908C14.8907 43.3882 15.1948 44.2137 15.1948 45.2672V49.1937C15.1948 49.3458 15.2274 49.4598 15.2926 49.5359C15.3578 49.601 15.4609 49.639 15.6021 49.6499V50.5297C15.4827 50.5406 15.3795 50.5514 15.2926 50.5623C15.2057 50.5731 15.1405 50.5731 15.0971 50.5623C14.8255 50.5514 14.6192 50.4645 14.478 50.3016C14.3368 50.1387 14.2607 49.9649 14.2499 49.7802L14.2336 49.1611C13.8534 49.6499 13.3592 50.0301 12.751 50.3016C12.1427 50.5623 11.5236 50.6926 10.8936 50.6926C10.3506 50.6926 9.85636 50.5786 9.41103 50.3505C8.97657 50.1115 8.63442 49.7965 8.38461 49.4055C8.14565 49.0036 8.02617 48.5637 8.02617 48.0858ZM13.7122 48.7375C13.8317 48.5855 13.924 48.4388 13.9892 48.2976C14.0544 48.1564 14.087 48.0315 14.087 47.9229V46.6847C13.7177 46.5435 13.3321 46.4349 12.9302 46.3588C12.5392 46.2828 12.1427 46.2448 11.7408 46.2448C10.9479 46.2448 10.3071 46.4023 9.81834 46.7173C9.32957 47.0323 9.08518 47.4613 9.08518 48.0044C9.08518 48.3194 9.16664 48.618 9.32957 48.9004C9.49249 49.172 9.73145 49.4001 10.0464 49.5847C10.3614 49.7585 10.7307 49.8454 11.1543 49.8454C11.6865 49.8454 12.1807 49.7422 12.6369 49.5359C13.104 49.3295 13.4624 49.0634 13.7122 48.7375Z" />
  <path d="M19.8593 50.5297L16.4216 42.0413H17.5784L20.4784 49.4218L23.3948 42.0413H24.4863L21.0486 50.5297H19.8593Z" />
  <path d="M25.13 48.0858C25.13 47.5536 25.2821 47.0974 25.5862 46.7173C25.8903 46.3262 26.3085 46.0276 26.8407 45.8212C27.3838 45.604 28.0083 45.4953 28.7144 45.4953C29.1271 45.4953 29.5561 45.5279 30.0015 45.5931C30.4468 45.6583 30.8432 45.756 31.1908 45.8864V45.1695C31.1908 44.4526 30.979 43.8824 30.5554 43.4588C30.1318 43.0352 29.5453 42.8234 28.7958 42.8234C28.3396 42.8234 27.8889 42.9103 27.4435 43.0841C27.0091 43.247 26.5529 43.4914 26.075 43.8172L25.6514 43.0352C26.2053 42.655 26.7484 42.3726 27.2806 42.188C27.8128 41.9925 28.3559 41.8947 28.9099 41.8947C29.9526 41.8947 30.7781 42.1934 31.3863 42.7908C31.9946 43.3882 32.2987 44.2137 32.2987 45.2672V49.1937C32.2987 49.3458 32.3313 49.4598 32.3964 49.5359C32.4616 49.601 32.5648 49.639 32.706 49.6499V50.5297C32.5865 50.5406 32.4833 50.5514 32.3964 50.5623C32.3095 50.5731 32.2444 50.5731 32.2009 50.5623C31.9294 50.5514 31.723 50.4645 31.5818 50.3016C31.4406 50.1387 31.3646 49.9649 31.3537 49.7802L31.3374 49.1611C30.9573 49.6499 30.4631 50.0301 29.8548 50.3016C29.2466 50.5623 28.6275 50.6926 27.9975 50.6926C27.4544 50.6926 26.9602 50.5786 26.5149 50.3505C26.0804 50.1115 25.7383 49.7965 25.4885 49.4055C25.2495 49.0036 25.13 48.5637 25.13 48.0858ZM30.8161 48.7375C30.9355 48.5855 31.0279 48.4388 31.093 48.2976C31.1582 48.1564 31.1908 48.0315 31.1908 47.9229V46.6847C30.8215 46.5435 30.4359 46.4349 30.034 46.3588C29.643 46.2828 29.2466 46.2448 28.8447 46.2448C28.0518 46.2448 27.411 46.4023 26.9222 46.7173C26.4334 47.0323 26.189 47.4613 26.189 48.0044C26.189 48.3194 26.2705 48.618 26.4334 48.9004C26.5963 49.172 26.8353 49.4001 27.1503 49.5847C27.4653 49.7585 27.8346 49.8454 28.2582 49.8454C28.7904 49.8454 29.2846 49.7422 29.7408 49.5359C30.2078 49.3295 30.5663 49.0634 30.8161 48.7375Z" />
  <path d="M41.6818 41.129C41.5189 40.9443 41.3288 40.7814 41.1116 40.6402C40.8944 40.4881 40.65 40.3578 40.3784 40.2492C40.1069 40.1406 39.8136 40.0537 39.4987 39.9885C39.1945 39.9233 38.8687 39.8907 38.5211 39.8907C37.511 39.8907 36.767 40.0863 36.289 40.4773C35.822 40.8574 35.5885 41.3788 35.5885 42.0413C35.5885 42.4975 35.6971 42.856 35.9143 43.1166C36.1424 43.3773 36.4954 43.5891 36.9733 43.752C37.4512 43.915 38.0595 44.0833 38.7981 44.2571C39.6236 44.4309 40.335 44.6373 40.9324 44.8762C41.5298 45.1152 41.9914 45.441 42.3172 45.8538C42.6431 46.2556 42.806 46.8042 42.806 47.4993C42.806 48.0315 42.7028 48.4931 42.4965 48.8842C42.2901 49.2752 42.0023 49.601 41.633 49.8617C41.2637 50.1224 40.8238 50.3179 40.3133 50.4482C39.8028 50.5677 39.2434 50.6274 38.6352 50.6274C38.0378 50.6274 37.4621 50.5677 36.9082 50.4482C36.3651 50.3179 35.8492 50.1332 35.3604 49.8943C34.8716 49.6445 34.4154 49.3295 33.9918 48.9493L34.5621 48.0207C34.7684 48.2379 35.0128 48.4443 35.2952 48.6398C35.5885 48.8244 35.9089 48.9928 36.2565 49.1448C36.6149 49.2969 36.9951 49.4164 37.3969 49.5033C37.8097 49.5793 38.2333 49.6173 38.6677 49.6173C39.591 49.6173 40.3078 49.449 40.8183 49.1122C41.3397 48.7755 41.6004 48.2759 41.6004 47.6133C41.6004 47.1354 41.47 46.7553 41.2094 46.4729C40.9487 46.1796 40.5577 45.9407 40.0363 45.756C39.5149 45.5714 38.8741 45.3921 38.1138 45.2184C37.31 45.0337 36.6312 44.8273 36.0772 44.5993C35.5233 44.3712 35.1051 44.0725 34.8227 43.7032C34.5512 43.323 34.4154 42.8234 34.4154 42.2043C34.4154 41.4874 34.5892 40.8846 34.9368 40.3958C35.2952 39.8962 35.784 39.5215 36.4031 39.2716C37.0222 39.011 37.7336 38.8806 38.5374 38.8806C39.0479 38.8806 39.5204 38.9349 39.9548 39.0435C40.4002 39.1413 40.8075 39.2879 41.1768 39.4834C41.5569 39.6789 41.9099 39.9233 42.2358 40.2166L41.6818 41.129Z" />
  <path d="M48.2708 50.6926C47.6517 50.6926 47.0815 50.5786 46.5601 50.3505C46.0496 50.1115 45.5989 49.7857 45.2079 49.3729C44.8277 48.9602 44.529 48.4877 44.3118 47.9555C44.1054 47.4233 44.0022 46.8585 44.0022 46.2611C44.0022 45.4573 44.1814 44.7242 44.5399 44.0616C44.8983 43.399 45.3979 42.8723 46.0388 42.4812C46.6796 42.0902 47.4182 41.8947 48.2545 41.8947C49.0474 41.8947 49.748 42.0794 50.3563 42.4487C50.9645 42.8071 51.4153 43.2959 51.7085 43.915L50.6332 44.2571C50.3943 43.8226 50.0576 43.4859 49.6231 43.247C49.1995 42.9972 48.727 42.8723 48.2057 42.8723C47.6409 42.8723 47.1249 43.0189 46.6579 43.3122C46.1908 43.6054 45.8161 44.0073 45.5337 44.5178C45.2622 45.0283 45.1264 45.6094 45.1264 46.2611C45.1264 46.9019 45.2676 47.483 45.55 48.0044C45.8324 48.5257 46.2071 48.9439 46.6742 49.2589C47.1412 49.563 47.6572 49.7151 48.222 49.7151C48.5913 49.7151 48.9443 49.6499 49.281 49.5196C49.6285 49.3892 49.9272 49.2154 50.1771 48.9982C50.4377 48.7701 50.6115 48.5257 50.6984 48.265L51.79 48.5909C51.6379 48.9928 51.3827 49.3566 51.0243 49.6825C50.6767 49.9975 50.2639 50.2473 49.786 50.4319C49.319 50.6057 48.8139 50.6926 48.2708 50.6926Z" />
  <path d="M57.7665 43.0189C57.0279 43.0406 56.3762 43.247 55.8114 43.638C55.2575 44.029 54.8665 44.5667 54.6384 45.2509V50.5297H53.5305V42.0413H54.5732V44.0779C54.8665 43.4805 55.2521 42.9972 55.73 42.6279C56.2187 42.2586 56.7347 42.0522 57.2777 42.0088C57.3864 41.9979 57.4787 41.9925 57.5547 41.9925C57.6416 41.9925 57.7122 41.9979 57.7665 42.0088V43.0189Z" />
  <path d="M59.2424 50.5297V42.0413H60.3503V50.5297H59.2424ZM59.2424 40.2655V38.6362H60.3503V40.2655H59.2424Z" />
  <path d="M67.1242 50.6926C66.4182 50.6926 65.7828 50.508 65.218 50.1387C64.6641 49.7694 64.2242 49.3132 63.8983 48.7701V54H62.7904V42.0413H63.7843V43.6869C64.121 43.1547 64.5717 42.7256 65.1365 42.3998C65.7013 42.0631 66.3042 41.8947 66.945 41.8947C67.5315 41.8947 68.0692 42.0196 68.5579 42.2694C69.0467 42.5084 69.4703 42.8342 69.8288 43.247C70.1872 43.6597 70.4642 44.1322 70.6597 44.6644C70.866 45.1858 70.9692 45.7289 70.9692 46.2937C70.9692 47.0866 70.8063 47.8197 70.4804 48.4931C70.1655 49.1557 69.7201 49.6879 69.1445 50.0898C68.5688 50.4917 67.8954 50.6926 67.1242 50.6926ZM66.8147 49.7151C67.2817 49.7151 67.6999 49.6227 68.0692 49.4381C68.4385 49.2426 68.7535 48.9819 69.0141 48.6561C69.2857 48.3302 69.492 47.9663 69.6332 47.5645C69.7744 47.1517 69.845 46.7281 69.845 46.2937C69.845 45.8375 69.7636 45.403 69.6007 44.9903C69.4486 44.5775 69.2259 44.2137 68.9327 43.8987C68.6394 43.5837 68.3027 43.3339 67.9225 43.1492C67.5424 42.9646 67.1296 42.8723 66.6843 42.8723C66.4019 42.8723 66.1086 42.9266 65.8045 43.0352C65.5004 43.1438 65.2071 43.3013 64.9247 43.5077C64.6532 43.7032 64.4251 43.9258 64.2405 44.1756C64.0558 44.4255 63.9418 44.6916 63.8983 44.974V47.5808C64.0721 47.9826 64.3056 48.3465 64.5989 48.6724C64.8922 48.9873 65.2289 49.2426 65.609 49.4381C66 49.6227 66.4019 49.7151 66.8147 49.7151Z" />
  <path d="M76.7917 50.1224C76.7048 50.155 76.5691 50.2147 76.3844 50.3016C76.1998 50.3885 75.9771 50.4645 75.7164 50.5297C75.4557 50.5949 75.1733 50.6274 74.8692 50.6274C74.5542 50.6274 74.2555 50.5677 73.9731 50.4482C73.7016 50.3287 73.4844 50.1495 73.3214 49.9106C73.1585 49.6608 73.0771 49.3566 73.0771 48.9982V42.9211H71.904V42.0413H73.0771V39.1739H74.1849V42.0413H76.14V42.9211H74.1849V48.6886C74.2067 48.9928 74.3153 49.2209 74.5108 49.3729C74.7172 49.525 74.9507 49.601 75.2114 49.601C75.5155 49.601 75.7924 49.5521 76.0423 49.4544C76.2921 49.3458 76.4442 49.2697 76.4985 49.2263L76.7917 50.1224Z" />
  <path d="M81.7909 44.6644C81.7909 43.9584 81.9104 43.2687 82.1494 42.5953C82.3992 41.911 82.7576 41.2919 83.2247 40.738C83.6917 40.1731 84.2674 39.7278 84.9517 39.402C85.636 39.0653 86.4126 38.8969 87.2815 38.8969C88.3133 38.8969 89.1931 39.1359 89.9209 39.6138C90.6594 40.0808 91.2025 40.6836 91.5501 41.4222L90.654 41.9762C90.4042 41.4657 90.0892 41.0638 89.7091 40.7705C89.3289 40.4664 88.9216 40.2492 88.4871 40.1188C88.0635 39.9885 87.6399 39.9233 87.2163 39.9233C86.5212 39.9233 85.9075 40.0645 85.3753 40.3469C84.8431 40.6185 84.3923 40.9878 84.023 41.4548C83.6646 41.911 83.393 42.4269 83.2084 43.0026C83.0237 43.5674 82.9314 44.1431 82.9314 44.7296C82.9314 45.3704 83.04 45.9841 83.2573 46.5706C83.4745 47.1572 83.7786 47.6785 84.1696 48.1347C84.5606 48.58 85.0168 48.9385 85.5382 49.21C86.0704 49.4707 86.6461 49.601 87.2652 49.601C87.6997 49.601 88.145 49.525 88.6012 49.3729C89.0574 49.2209 89.481 48.9873 89.872 48.6724C90.2739 48.3574 90.5943 47.9501 90.8332 47.4504L91.7782 47.9392C91.5392 48.5149 91.1699 49.0036 90.6703 49.4055C90.1707 49.8074 89.6113 50.1115 88.9922 50.3179C88.3839 50.5243 87.7866 50.6274 87.2 50.6274C86.4071 50.6274 85.6794 50.4591 85.0168 50.1224C84.3543 49.7748 83.7786 49.3186 83.2898 48.7538C82.8119 48.1782 82.4426 47.5373 82.182 46.8313C81.9213 46.1144 81.7909 45.3921 81.7909 44.6644Z" />
  <path d="M97.1147 50.6926C96.5065 50.6926 95.9417 50.5786 95.4203 50.3505C94.9098 50.1115 94.4645 49.7911 94.0843 49.3892C93.715 48.9765 93.4272 48.5094 93.2208 47.9881C93.0145 47.4559 92.9113 46.8965 92.9113 46.31C92.9113 45.7017 93.0145 45.1369 93.2208 44.6155C93.4272 44.0833 93.7205 43.6163 94.1006 43.2144C94.4808 42.8017 94.9261 42.4812 95.4366 42.2531C95.958 42.0142 96.5228 41.8947 97.131 41.8947C97.7393 41.8947 98.2986 42.0142 98.8091 42.2531C99.3196 42.4812 99.7649 42.8017 100.145 43.2144C100.525 43.6163 100.819 44.0833 101.025 44.6155C101.231 45.1369 101.334 45.7017 101.334 46.31C101.334 46.8965 101.231 47.4559 101.025 47.9881C100.819 48.5094 100.525 48.9765 100.145 49.3892C99.7758 49.7911 99.3305 50.1115 98.8091 50.3505C98.2986 50.5786 97.7338 50.6926 97.1147 50.6926ZM94.0354 46.3262C94.0354 46.9562 94.1712 47.5319 94.4428 48.0532C94.7252 48.5637 95.0999 48.971 95.5669 49.2752C96.034 49.5684 96.5499 49.7151 97.1147 49.7151C97.6795 49.7151 98.1954 49.563 98.6625 49.2589C99.1295 48.9548 99.5043 48.542 99.7867 48.0207C100.069 47.4884 100.21 46.9128 100.21 46.2937C100.21 45.6637 100.069 45.088 99.7867 44.5667C99.5043 44.0453 99.1295 43.6326 98.6625 43.3284C98.1954 43.0243 97.6795 42.8723 97.1147 42.8723C96.5499 42.8723 96.034 43.0297 95.5669 43.3447C95.1108 43.6597 94.7415 44.0779 94.4591 44.5993C94.1767 45.1097 94.0354 45.6854 94.0354 46.3262Z" />
  <path d="M115.814 50.5297H114.706V45.7886C114.706 44.8002 114.549 44.0725 114.234 43.6054C113.919 43.1384 113.452 42.9048 112.832 42.9048C112.192 42.9048 111.616 43.1329 111.105 43.5891C110.606 44.0453 110.253 44.6318 110.046 45.3487V50.5297H108.939V45.7886C108.939 44.7893 108.786 44.0616 108.482 43.6054C108.178 43.1384 107.711 42.9048 107.081 42.9048C106.451 42.9048 105.881 43.1275 105.371 43.5728C104.86 44.0182 104.502 44.6047 104.295 45.3324V50.5297H103.187V42.0413H104.197V43.9638C104.556 43.3013 105.012 42.7908 105.566 42.4324C106.131 42.0739 106.755 41.8947 107.44 41.8947C108.146 41.8947 108.716 42.0957 109.15 42.4975C109.585 42.8994 109.851 43.4262 109.949 44.0779C110.34 43.361 110.807 42.8179 111.35 42.4487C111.904 42.0794 112.528 41.8947 113.223 41.8947C113.701 41.8947 114.103 41.9816 114.429 42.1554C114.766 42.3292 115.032 42.579 115.227 42.9048C115.434 43.2198 115.58 43.6054 115.667 44.0616C115.765 44.5069 115.814 45.0066 115.814 45.5605V50.5297Z" />
  <path d="M122.493 50.6926C121.787 50.6926 121.152 50.508 120.587 50.1387C120.033 49.7694 119.593 49.3132 119.267 48.7701V54H118.159V42.0413H119.153V43.6869C119.49 43.1547 119.94 42.7256 120.505 42.3998C121.07 42.0631 121.673 41.8947 122.314 41.8947C122.9 41.8947 123.438 42.0196 123.927 42.2694C124.415 42.5084 124.839 42.8342 125.197 43.247C125.556 43.6597 125.833 44.1322 126.028 44.6644C126.235 45.1858 126.338 45.7289 126.338 46.2937C126.338 47.0866 126.175 47.8197 125.849 48.4931C125.534 49.1557 125.089 49.6879 124.513 50.0898C123.938 50.4917 123.264 50.6926 122.493 50.6926ZM122.183 49.7151C122.65 49.7151 123.069 49.6227 123.438 49.4381C123.807 49.2426 124.122 48.9819 124.383 48.6561C124.654 48.3302 124.861 47.9663 125.002 47.5645C125.143 47.1517 125.214 46.7281 125.214 46.2937C125.214 45.8375 125.132 45.403 124.969 44.9903C124.817 44.5775 124.595 44.2137 124.301 43.8987C124.008 43.5837 123.671 43.3339 123.291 43.1492C122.911 42.9646 122.498 42.8723 122.053 42.8723C121.771 42.8723 121.477 42.9266 121.173 43.0352C120.869 43.1438 120.576 43.3013 120.293 43.5077C120.022 43.7032 119.794 43.9258 119.609 44.1756C119.425 44.4255 119.31 44.6916 119.267 44.974V47.5808C119.441 47.9826 119.674 48.3465 119.968 48.6724C120.261 48.9873 120.598 49.2426 120.978 49.4381C121.369 49.6227 121.771 49.7151 122.183 49.7151Z" />
  <path d="M128.215 50.5297V42.0413H129.323V50.5297H128.215ZM128.215 40.2655V38.6362H129.323V40.2655H128.215Z" />
  <path d="M131.812 38.6362H132.919V48.6072C132.919 49.0308 132.995 49.3078 133.148 49.4381C133.3 49.5684 133.484 49.6336 133.701 49.6336C133.897 49.6336 134.092 49.6119 134.288 49.5684C134.484 49.525 134.652 49.4815 134.793 49.4381L134.989 50.3342C134.782 50.4211 134.527 50.4917 134.223 50.546C133.93 50.6003 133.674 50.6274 133.457 50.6274C132.957 50.6274 132.556 50.4808 132.251 50.1875C131.958 49.8943 131.812 49.4924 131.812 48.9819V38.6362Z" />
  <path d="M139.868 50.6926C139.259 50.6926 138.694 50.5786 138.173 50.3505C137.652 50.1115 137.201 49.7911 136.821 49.3892C136.441 48.9765 136.142 48.504 135.925 47.9718C135.718 47.4396 135.615 46.8693 135.615 46.2611C135.615 45.4682 135.794 44.7405 136.153 44.0779C136.522 43.4153 137.027 42.8885 137.668 42.4975C138.309 42.0957 139.037 41.8947 139.851 41.8947C140.688 41.8947 141.415 42.0957 142.034 42.4975C142.664 42.8994 143.159 43.4316 143.517 44.0942C143.875 44.7459 144.055 45.4627 144.055 46.2448C144.055 46.3317 144.055 46.4186 144.055 46.5055C144.055 46.5815 144.049 46.6412 144.038 46.6847H136.772C136.826 47.2929 136.995 47.836 137.277 48.3139C137.57 48.781 137.945 49.1557 138.401 49.4381C138.868 49.7096 139.373 49.8454 139.916 49.8454C140.47 49.8454 140.992 49.7042 141.48 49.4218C141.98 49.1394 142.328 48.7701 142.523 48.3139L143.484 48.5746C143.311 48.9765 143.045 49.3403 142.686 49.6662C142.328 49.992 141.904 50.2473 141.415 50.4319C140.937 50.6057 140.421 50.6926 139.868 50.6926ZM136.739 45.8864H143.012C142.969 45.2672 142.8 44.7242 142.507 44.2571C142.224 43.7901 141.85 43.4262 141.383 43.1655C140.927 42.894 140.421 42.7582 139.868 42.7582C139.314 42.7582 138.809 42.894 138.352 43.1655C137.896 43.4262 137.521 43.7955 137.228 44.2734C136.946 44.7405 136.783 45.2781 136.739 45.8864Z" />
  <path d="M150 43.0189C149.261 43.0406 148.61 43.247 148.045 43.638C147.491 44.029 147.1 44.5667 146.872 45.2509V50.5297H145.764V42.0413H146.807V44.0779C147.1 43.4805 147.486 42.9972 147.963 42.6279C148.452 42.2586 148.968 42.0522 149.511 42.0088C149.62 41.9979 149.712 41.9925 149.788 41.9925C149.875 41.9925 149.946 41.9979 150 42.0088V43.0189Z" />
</svg>
