<svg viewBox="0 0 150 125" xmlns="http://www.w3.org/2000/svg">
  <path d="M74.9996 0C58.4575 0 45 13.2736 45 29.5889C45 39.2837 49.7519 47.9041 57.0793 53.3041C57.8297 52.7745 58.7471 52.4589 59.74 52.4589H60.9613C53.1297 47.7649 47.8874 39.2693 47.8874 29.5889C47.8874 14.8436 60.0499 2.84721 75 2.84721C89.9501 2.84721 102.113 14.8436 102.113 29.5889C102.113 39.2693 96.8703 47.7645 89.0387 52.4589H90.2624C91.2549 52.4589 92.1715 52.7745 92.9219 53.3033C100.248 47.9033 105 39.2833 105 29.5889C104.999 13.2736 91.5417 0 74.9996 0Z" />
  <path d="M74.0696 14.5347H75.9256C76.3811 14.5347 76.7506 14.1703 76.7506 13.7211C76.7506 13.2719 76.3811 12.9075 75.9256 12.9075H74.0696C73.6141 12.9075 73.2446 13.2719 73.2446 13.7211C73.2446 14.1703 73.6141 14.5347 74.0696 14.5347Z" />
  <path d="M90.2621 53.8824H84.3681C82.7331 53.8824 81.4024 52.5796 81.4024 50.978V46.4868C80.8775 46.72 80.2971 46.8528 79.6843 46.8528C79.0718 46.8528 78.4914 46.72 77.9662 46.4868V50.978C77.9662 52.5796 76.6359 53.8824 75.0005 53.8824C73.3652 53.8824 72.0348 52.5796 72.0348 50.978V46.4856C71.5092 46.7192 70.928 46.8524 70.3143 46.8524C69.701 46.8524 69.1202 46.7192 68.5946 46.4856V50.9776C68.5946 52.5792 67.2642 53.882 65.6289 53.882H59.7397C58.0159 53.882 56.6134 55.254 56.6134 56.9408C56.6134 58.6276 58.0159 60 59.7397 60H90.2617C91.9855 60 93.388 58.628 93.388 56.9412C93.388 55.2544 91.9859 53.8824 90.2621 53.8824Z" />
  <path d="M79.5481 10.3687L77.4622 7.04713C76.9337 6.20433 76.0154 5.70033 75.0063 5.69913H75.003C73.9935 5.69913 73.0745 6.20153 72.5427 7.04593L70.4547 10.3691C69.65 11.6527 69.2246 13.1267 69.2246 14.6315L69.2242 19.8488C69.2242 20.6064 69.0408 21.3616 68.6936 22.0328C67.0299 25.2516 62.3027 32.5752 60.3474 35.5744C59.7767 36.4504 59.7361 37.562 60.2419 38.4752C60.7509 39.3948 61.7292 39.966 62.7947 39.966L67.5669 39.9664V42.732C67.5669 44.2188 68.7999 45.4288 70.316 45.4288C71.8317 45.4288 73.0647 44.2188 73.0647 42.732V39.9668L76.9365 39.9672V42.732C76.9365 44.2188 78.1695 45.4288 79.6852 45.4288C81.2009 45.4288 82.4339 44.2188 82.4339 42.732V39.968L87.2057 39.9684C88.2716 39.9684 89.2499 39.3972 89.7589 38.4776C90.2647 37.5644 90.2241 36.4528 89.6535 35.5776C87.6985 32.578 82.9725 25.2528 81.3104 22.0348C80.9636 21.3632 80.7803 20.6076 80.7803 19.85L80.7807 14.6331C80.7811 13.1315 80.3552 11.6575 79.5481 10.3687ZM72.1112 14.6319C72.1116 13.6563 72.3878 12.6995 72.9094 11.8675L75.0071 8.54553L77.0927 11.8667C77.6171 12.7035 77.8941 13.6603 77.8941 14.6323L77.8933 19.8496C77.8933 19.9236 77.8978 19.9968 77.8998 20.0704C77.8986 20.0896 77.8941 20.108 77.8941 20.1276V37.1184L72.1018 37.1168V26.9672C72.1018 26.916 72.0941 26.8668 72.0864 26.8176C72.0937 26.7684 72.1018 26.7192 72.1018 26.6676V20.1332C72.1055 20.0384 72.1104 19.9436 72.1104 19.8488L72.1112 14.6319ZM62.7752 37.1144C64.761 34.068 67.9944 29.0432 70.0394 25.53V26.668C70.0394 26.7192 70.0471 26.7684 70.0548 26.818C70.0475 26.8672 70.0394 26.9164 70.0394 26.9676V37.1164L62.7752 37.1144ZM71.0019 42.732C71.0019 43.0976 70.694 43.3948 70.3152 43.3948C69.9368 43.3948 69.6285 43.0972 69.6285 42.732V39.9664H71.0019V42.732ZM80.3715 42.732C80.3715 43.0976 80.0636 43.3948 79.6848 43.3948C79.306 43.3948 78.9981 43.0972 78.9981 42.732V39.9676H80.3711L80.3715 42.732ZM87.2215 37.1196C87.2215 37.1196 87.2171 37.1208 87.2061 37.1208L79.9565 37.1188V25.5196C82.0003 29.0336 85.237 34.0672 87.2215 37.1196Z" />
  <path d="M0 98.4025V71.5739H7.3778V81.7763L15.5501 71.5739H23.8738L14.1124 83.59L24.5548 98.4025H16.0798L9.42089 88.5401L7.3778 90.6562V98.4025H0Z" />
  <path d="M34.0626 98.7803C32.3222 98.7803 30.771 98.5158 29.4089 97.9868C28.0469 97.4326 26.8992 96.6895 25.966 95.7574C25.0579 94.8253 24.3643 93.7547 23.8851 92.5455C23.4058 91.3363 23.1662 90.0642 23.1662 88.729C23.1662 86.8145 23.5824 85.0637 24.4147 83.4767C25.2471 81.8644 26.4704 80.5797 28.0847 79.6224C29.699 78.64 31.6917 78.1488 34.0626 78.1488C36.4336 78.1488 38.4263 78.6274 40.0406 79.5846C41.6548 80.5419 42.8782 81.8015 43.7105 83.3633C44.5429 84.9252 44.9591 86.6256 44.9591 88.4645C44.9591 88.8424 44.9339 89.2329 44.8834 89.6359C44.8582 90.0138 44.8204 90.3539 44.7699 90.6562H30.8088C30.8593 91.3615 31.0485 91.9409 31.3764 92.3944C31.7295 92.8226 32.1583 93.1375 32.6627 93.339C33.1924 93.5406 33.7347 93.6413 34.2896 93.6413C35.0716 93.6413 35.803 93.465 36.4841 93.1123C37.1903 92.7596 37.657 92.2684 37.884 91.6386L43.9754 93.3768C43.4457 94.4349 42.7016 95.3669 41.7431 96.173C40.8099 96.9792 39.7 97.6215 38.4137 98.1002C37.1273 98.5536 35.6769 98.7803 34.0626 98.7803ZM30.6575 86.3485H37.2408C37.1651 85.6935 36.9759 85.1393 36.6732 84.6859C36.3958 84.2324 36.0174 83.8797 35.5382 83.6278C35.0842 83.3759 34.5545 83.25 33.9491 83.25C33.3438 83.25 32.8015 83.3759 32.3222 83.6278C31.8682 83.8797 31.4899 84.2324 31.1872 84.6859C30.9097 85.1393 30.7332 85.6935 30.6575 86.3485Z" />
  <path d="M60.8261 84.6481C59.4388 84.6481 58.1777 84.7992 57.0426 85.1015C55.9076 85.4038 55.0626 85.9076 54.5077 86.613V98.4025H47.319V78.5266H53.9023V82.3053C54.6086 80.9702 55.4914 79.9499 56.5508 79.2446C57.6101 78.514 58.7326 78.1488 59.9181 78.1488C60.1955 78.1488 60.3847 78.1488 60.4856 78.1488C60.6117 78.1488 60.7252 78.1613 60.8261 78.1865V84.6481Z" />
  <path d="M75.7336 98.7803C74.2455 98.7803 72.9591 98.4906 71.8745 97.9112C70.7899 97.3066 69.9323 96.4375 69.3017 95.3039V98.4025H63.0589V70.8181H70.2476V81.474C70.8277 80.3908 71.6475 79.5721 72.7068 79.0178C73.7662 78.4384 75.0148 78.1488 76.4525 78.1488C77.6632 78.1488 78.7857 78.4133 79.8198 78.9423C80.854 79.4461 81.7494 80.164 82.5061 81.0961C83.288 82.0282 83.8934 83.1366 84.3222 84.4214C84.751 85.6809 84.9654 87.0538 84.9654 88.5401C84.9654 90.0012 84.7257 91.3615 84.2465 92.6211C83.7925 93.8555 83.1493 94.9387 82.3169 95.8707C81.5098 96.8028 80.5387 97.5208 79.4036 98.0246C78.2938 98.5284 77.0705 98.7803 75.7336 98.7803ZM73.6527 92.7344C74.2329 92.7344 74.7625 92.6337 75.2418 92.4322C75.721 92.2306 76.1372 91.9535 76.4903 91.6008C76.8435 91.223 77.1083 90.7821 77.2849 90.2783C77.4867 89.7745 77.5875 89.2077 77.5875 88.5779C77.5875 87.7718 77.4236 87.0412 77.0957 86.3863C76.793 85.7061 76.3642 85.1771 75.8093 84.7992C75.2796 84.3962 74.6617 84.1946 73.9554 84.1946C73.4509 84.1946 72.9591 84.3206 72.4798 84.5725C72.0006 84.8244 71.5592 85.1771 71.1556 85.6305C70.7773 86.0588 70.4746 86.5626 70.2476 87.142V90.694C70.4746 91.0214 70.7142 91.3237 70.9664 91.6008C71.2439 91.8528 71.5214 92.0669 71.7988 92.2432C72.0763 92.3944 72.3663 92.5203 72.669 92.6211C72.9969 92.6967 73.3248 92.7344 73.6527 92.7344Z" />
  <path d="M97.3548 98.7803C95.5892 98.7803 94.0253 98.5032 92.6633 97.949C91.3012 97.3948 90.1536 96.6391 89.2203 95.6818C88.3123 94.6994 87.6186 93.5909 87.1394 92.3566C86.6854 91.1222 86.4584 89.8249 86.4584 88.4645C86.4584 87.1042 86.6854 85.8069 87.1394 84.5725C87.6186 83.3129 88.3123 82.2045 89.2203 81.2473C90.1536 80.29 91.3012 79.5343 92.6633 78.9801C94.0253 78.4259 95.5892 78.1488 97.3548 78.1488C99.1457 78.1488 100.71 78.4259 102.046 78.9801C103.408 79.5343 104.543 80.29 105.451 81.2473C106.385 82.2045 107.078 83.3129 107.532 84.5725C108.012 85.8069 108.251 87.1042 108.251 88.4645C108.251 89.8249 108.012 91.1222 107.532 92.3566C107.078 93.5909 106.385 94.6994 105.451 95.6818C104.543 96.6391 103.408 97.3948 102.046 97.949C100.71 98.5032 99.1457 98.7803 97.3548 98.7803ZM93.8362 88.4645C93.8362 89.3462 93.9875 90.1146 94.2902 90.7695C94.5929 91.3993 95.009 91.8905 95.5387 92.2432C96.0684 92.5707 96.6738 92.7344 97.3548 92.7344C98.0358 92.7344 98.6412 92.5707 99.1709 92.2432C99.7006 91.8905 100.117 91.3993 100.419 90.7695C100.722 90.1146 100.873 89.3462 100.873 88.4645C100.873 87.5828 100.722 86.8271 100.419 86.1973C100.117 85.5424 99.7006 85.0511 99.1709 84.7236C98.6412 84.371 98.0358 84.1946 97.3548 84.1946C96.6738 84.1946 96.0684 84.371 95.5387 84.7236C95.009 85.0511 94.5929 85.5424 94.2902 86.1973C93.9875 86.8271 93.8362 87.5828 93.8362 88.4645Z" />
  <path d="M110.347 91.1474C110.499 91.2482 110.978 91.4623 111.785 91.7898C112.592 92.1173 113.538 92.281 114.623 92.281C115.405 92.281 116.035 92.155 116.514 91.9031C116.994 91.626 117.347 91.2104 117.574 90.6562C117.826 90.102 117.99 89.384 118.066 88.5023C118.166 87.5954 118.217 86.4996 118.217 85.2149V71.5739H125.595V85.2149C125.595 87.2554 125.469 89.1069 125.216 90.7695C124.989 92.4322 124.51 93.868 123.779 95.0772C123.047 96.2864 121.95 97.2185 120.487 97.8734C119.024 98.5032 117.069 98.8181 114.623 98.8181C113.462 98.8181 112.403 98.6796 111.444 98.4025C110.486 98.1254 109.603 97.7097 108.796 97.1555L110.347 91.1474Z" />
  <path d="M146.179 80.3404C146.179 80.3404 145.964 80.2144 145.535 79.9625C145.107 79.7106 144.539 79.4335 143.833 79.1312C143.127 78.8037 142.357 78.514 141.525 78.2621C140.693 78.0102 139.873 77.8842 139.066 77.8842C138.435 77.8842 137.918 77.985 137.514 78.1865C137.111 78.3881 136.909 78.7281 136.909 79.2068C136.909 79.6602 137.111 80.0255 137.514 80.3026C137.918 80.5797 138.486 80.8316 139.217 81.0583C139.974 81.2851 140.869 81.5622 141.903 81.8896C143.568 82.3935 145.006 82.9729 146.217 83.6278C147.427 84.2828 148.36 85.1267 149.016 86.1595C149.672 87.1672 150 88.5149 150 90.2027C150 91.815 149.71 93.1753 149.13 94.2837C148.55 95.3669 147.768 96.236 146.784 96.891C145.8 97.546 144.703 98.0246 143.492 98.3269C142.282 98.604 141.046 98.7425 139.785 98.7425C138.498 98.7425 137.149 98.6166 135.736 98.3647C134.349 98.0876 133 97.7223 131.688 97.2689C130.376 96.7902 129.178 96.236 128.094 95.6062L131.272 89.1447C131.272 89.1447 131.524 89.2958 132.028 89.5981C132.533 89.9004 133.201 90.2405 134.034 90.6184C134.866 90.9963 135.787 91.3363 136.796 91.6386C137.83 91.9409 138.864 92.0921 139.898 92.0921C140.705 92.0921 141.26 91.9913 141.563 91.7898C141.891 91.5631 142.055 91.2734 142.055 90.9207C142.055 90.3917 141.777 89.9886 141.222 89.7115C140.667 89.4092 139.936 89.1321 139.028 88.8802C138.145 88.6031 137.161 88.2882 136.077 87.9355C134.513 87.4065 133.227 86.8145 132.218 86.1595C131.209 85.4794 130.465 84.6859 129.985 83.779C129.506 82.8469 129.266 81.7259 129.266 80.416C129.266 78.4259 129.733 76.7632 130.666 75.4281C131.6 74.093 132.823 73.0853 134.336 72.4052C135.875 71.6998 137.527 71.3471 139.293 71.3471C140.604 71.3471 141.865 71.5109 143.076 71.8384C144.312 72.1407 145.46 72.5185 146.519 72.972C147.604 73.4254 148.55 73.8537 149.357 74.2567L146.179 80.3404Z" />
  <path d="M0.325848 120.08C0.553942 120.243 0.852636 120.384 1.22193 120.503C1.60209 120.623 2.03655 120.682 2.52532 120.682C3.09013 120.682 3.54631 120.59 3.89389 120.406C4.24146 120.21 4.50757 119.922 4.69221 119.542C4.87686 119.151 5.00177 118.668 5.06694 118.092C5.13211 117.516 5.16469 116.843 5.16469 116.072V109.962H6.30516V115.844C6.30516 116.713 6.26172 117.505 6.17482 118.222C6.08793 118.939 5.91958 119.558 5.66976 120.08C5.41994 120.601 5.04522 121.003 4.54558 121.285C4.04595 121.568 3.38339 121.709 2.55791 121.709C2.02569 121.709 1.55321 121.649 1.14047 121.53C0.727728 121.41 0.347571 121.231 0 120.992L0.325848 120.08Z" />
  <path d="M8.02617 119.086C8.02617 118.554 8.17824 118.097 8.48236 117.717C8.78649 117.326 9.20466 117.028 9.73688 116.821C10.28 116.604 10.9045 116.495 11.6105 116.495C12.0232 116.495 12.4523 116.528 12.8976 116.593C13.3429 116.658 13.7394 116.756 14.087 116.886V116.169C14.087 115.453 13.8751 114.882 13.4515 114.459C13.0279 114.035 12.4414 113.823 11.692 113.823C11.2358 113.823 10.785 113.91 10.3397 114.084C9.90523 114.247 9.44905 114.491 8.97113 114.817L8.54753 114.035C9.10147 113.655 9.64455 113.373 10.1768 113.188C10.709 112.992 11.2521 112.895 11.806 112.895C12.8487 112.895 13.6742 113.193 14.2825 113.791C14.8907 114.388 15.1948 115.214 15.1948 116.267V120.194C15.1948 120.346 15.2274 120.46 15.2926 120.536C15.3578 120.601 15.4609 120.639 15.6021 120.65V121.53C15.4827 121.541 15.3795 121.551 15.2926 121.562C15.2057 121.573 15.1405 121.573 15.0971 121.562C14.8255 121.551 14.6192 121.465 14.478 121.302C14.3368 121.139 14.2607 120.965 14.2499 120.78L14.2336 120.161C13.8534 120.65 13.3592 121.03 12.751 121.302C12.1427 121.562 11.5236 121.693 10.8936 121.693C10.3506 121.693 9.85636 121.579 9.41103 121.35C8.97657 121.112 8.63442 120.797 8.38461 120.406C8.14565 120.004 8.02617 119.564 8.02617 119.086ZM13.7122 119.738C13.8317 119.585 13.924 119.439 13.9892 119.298C14.0544 119.156 14.087 119.032 14.087 118.923V117.685C13.7177 117.543 13.3321 117.435 12.9302 117.359C12.5392 117.283 12.1427 117.245 11.7408 117.245C10.9479 117.245 10.3071 117.402 9.81834 117.717C9.32957 118.032 9.08518 118.461 9.08518 119.004C9.08518 119.319 9.16664 119.618 9.32957 119.9C9.49249 120.172 9.73145 120.4 10.0464 120.585C10.3614 120.759 10.7307 120.845 11.1543 120.845C11.6865 120.845 12.1807 120.742 12.6369 120.536C13.104 120.329 13.4624 120.063 13.7122 119.738Z" />
  <path d="M19.8593 121.53L16.4216 113.041H17.5784L20.4784 120.422L23.3948 113.041H24.4863L21.0486 121.53H19.8593Z" />
  <path d="M25.13 119.086C25.13 118.554 25.2821 118.097 25.5862 117.717C25.8903 117.326 26.3085 117.028 26.8407 116.821C27.3838 116.604 28.0083 116.495 28.7144 116.495C29.1271 116.495 29.5561 116.528 30.0015 116.593C30.4468 116.658 30.8432 116.756 31.1908 116.886V116.169C31.1908 115.453 30.979 114.882 30.5554 114.459C30.1318 114.035 29.5453 113.823 28.7958 113.823C28.3396 113.823 27.8889 113.91 27.4435 114.084C27.0091 114.247 26.5529 114.491 26.075 114.817L25.6514 114.035C26.2053 113.655 26.7484 113.373 27.2806 113.188C27.8128 112.992 28.3559 112.895 28.9099 112.895C29.9526 112.895 30.7781 113.193 31.3863 113.791C31.9946 114.388 32.2987 115.214 32.2987 116.267V120.194C32.2987 120.346 32.3313 120.46 32.3964 120.536C32.4616 120.601 32.5648 120.639 32.706 120.65V121.53C32.5865 121.541 32.4833 121.551 32.3964 121.562C32.3095 121.573 32.2444 121.573 32.2009 121.562C31.9294 121.551 31.723 121.465 31.5818 121.302C31.4406 121.139 31.3646 120.965 31.3537 120.78L31.3374 120.161C30.9573 120.65 30.4631 121.03 29.8548 121.302C29.2466 121.562 28.6275 121.693 27.9975 121.693C27.4544 121.693 26.9602 121.579 26.5149 121.35C26.0804 121.112 25.7383 120.797 25.4885 120.406C25.2495 120.004 25.13 119.564 25.13 119.086ZM30.8161 119.738C30.9355 119.585 31.0279 119.439 31.093 119.298C31.1582 119.156 31.1908 119.032 31.1908 118.923V117.685C30.8215 117.543 30.4359 117.435 30.034 117.359C29.643 117.283 29.2466 117.245 28.8447 117.245C28.0518 117.245 27.411 117.402 26.9222 117.717C26.4334 118.032 26.189 118.461 26.189 119.004C26.189 119.319 26.2705 119.618 26.4334 119.9C26.5963 120.172 26.8353 120.4 27.1503 120.585C27.4653 120.759 27.8346 120.845 28.2582 120.845C28.7904 120.845 29.2846 120.742 29.7408 120.536C30.2078 120.329 30.5663 120.063 30.8161 119.738Z" />
  <path d="M41.6818 112.129C41.5189 111.944 41.3288 111.781 41.1116 111.64C40.8944 111.488 40.65 111.358 40.3784 111.249C40.1069 111.141 39.8136 111.054 39.4987 110.989C39.1945 110.923 38.8687 110.891 38.5211 110.891C37.511 110.891 36.767 111.086 36.289 111.477C35.822 111.857 35.5885 112.379 35.5885 113.041C35.5885 113.498 35.6971 113.856 35.9143 114.117C36.1424 114.377 36.4954 114.589 36.9733 114.752C37.4512 114.915 38.0595 115.083 38.7981 115.257C39.6236 115.431 40.335 115.637 40.9324 115.876C41.5298 116.115 41.9914 116.441 42.3172 116.854C42.6431 117.256 42.806 117.804 42.806 118.499C42.806 119.032 42.7028 119.493 42.4965 119.884C42.2901 120.275 42.0023 120.601 41.633 120.862C41.2637 121.122 40.8238 121.318 40.3133 121.448C39.8028 121.568 39.2434 121.627 38.6352 121.627C38.0378 121.627 37.4621 121.568 36.9082 121.448C36.3651 121.318 35.8492 121.133 35.3604 120.894C34.8716 120.644 34.4154 120.329 33.9918 119.949L34.5621 119.021C34.7684 119.238 35.0128 119.444 35.2952 119.64C35.5885 119.824 35.9089 119.993 36.2565 120.145C36.6149 120.297 36.9951 120.416 37.3969 120.503C37.8097 120.579 38.2333 120.617 38.6677 120.617C39.591 120.617 40.3078 120.449 40.8183 120.112C41.3397 119.776 41.6004 119.276 41.6004 118.613C41.6004 118.135 41.47 117.755 41.2094 117.473C40.9487 117.18 40.5577 116.941 40.0363 116.756C39.5149 116.571 38.8741 116.392 38.1138 116.218C37.31 116.034 36.6312 115.827 36.0772 115.599C35.5233 115.371 35.1051 115.072 34.8227 114.703C34.5512 114.323 34.4154 113.823 34.4154 113.204C34.4154 112.487 34.5892 111.885 34.9368 111.396C35.2952 110.896 35.784 110.521 36.4031 110.272C37.0222 110.011 37.7336 109.881 38.5374 109.881C39.0479 109.881 39.5204 109.935 39.9548 110.044C40.4002 110.141 40.8075 110.288 41.1768 110.483C41.5569 110.679 41.9099 110.923 42.2358 111.217L41.6818 112.129Z" />
  <path d="M48.2708 121.693C47.6517 121.693 47.0815 121.579 46.5601 121.35C46.0496 121.112 45.5989 120.786 45.2079 120.373C44.8277 119.96 44.529 119.488 44.3118 118.955C44.1054 118.423 44.0022 117.858 44.0022 117.261C44.0022 116.457 44.1814 115.724 44.5399 115.062C44.8983 114.399 45.3979 113.872 46.0388 113.481C46.6796 113.09 47.4182 112.895 48.2545 112.895C49.0474 112.895 49.748 113.079 50.3563 113.449C50.9645 113.807 51.4153 114.296 51.7085 114.915L50.6332 115.257C50.3943 114.823 50.0576 114.486 49.6231 114.247C49.1995 113.997 48.727 113.872 48.2057 113.872C47.6409 113.872 47.1249 114.019 46.6579 114.312C46.1908 114.605 45.8161 115.007 45.5337 115.518C45.2622 116.028 45.1264 116.609 45.1264 117.261C45.1264 117.902 45.2676 118.483 45.55 119.004C45.8324 119.526 46.2071 119.944 46.6742 120.259C47.1412 120.563 47.6572 120.715 48.222 120.715C48.5913 120.715 48.9443 120.65 49.281 120.52C49.6285 120.389 49.9272 120.215 50.1771 119.998C50.4377 119.77 50.6115 119.526 50.6984 119.265L51.79 119.591C51.6379 119.993 51.3827 120.357 51.0243 120.682C50.6767 120.997 50.2639 121.247 49.786 121.432C49.319 121.606 48.8139 121.693 48.2708 121.693Z" />
  <path d="M57.7665 114.019C57.0279 114.041 56.3762 114.247 55.8114 114.638C55.2575 115.029 54.8665 115.567 54.6384 116.251V121.53H53.5305V113.041H54.5732V115.078C54.8665 114.481 55.2521 113.997 55.73 113.628C56.2187 113.259 56.7347 113.052 57.2777 113.009C57.3864 112.998 57.4787 112.992 57.5547 112.992C57.6416 112.992 57.7122 112.998 57.7665 113.009V114.019Z" />
  <path d="M59.2424 121.53V113.041H60.3503V121.53H59.2424ZM59.2424 111.265V109.636H60.3503V111.265H59.2424Z" />
  <path d="M67.1242 121.693C66.4182 121.693 65.7828 121.508 65.218 121.139C64.6641 120.769 64.2242 120.313 63.8983 119.77V125H62.7904V113.041H63.7843V114.687C64.121 114.155 64.5717 113.726 65.1365 113.4C65.7013 113.063 66.3042 112.895 66.945 112.895C67.5315 112.895 68.0692 113.02 68.5579 113.269C69.0467 113.508 69.4703 113.834 69.8288 114.247C70.1872 114.66 70.4642 115.132 70.6597 115.664C70.866 116.186 70.9692 116.729 70.9692 117.294C70.9692 118.087 70.8063 118.82 70.4804 119.493C70.1655 120.156 69.7201 120.688 69.1445 121.09C68.5688 121.492 67.8954 121.693 67.1242 121.693ZM66.8147 120.715C67.2817 120.715 67.6999 120.623 68.0692 120.438C68.4385 120.243 68.7535 119.982 69.0141 119.656C69.2857 119.33 69.492 118.966 69.6332 118.564C69.7744 118.152 69.845 117.728 69.845 117.294C69.845 116.837 69.7636 116.403 69.6007 115.99C69.4486 115.578 69.2259 115.214 68.9327 114.899C68.6394 114.584 68.3027 114.334 67.9225 114.149C67.5424 113.965 67.1296 113.872 66.6843 113.872C66.4019 113.872 66.1086 113.927 65.8045 114.035C65.5004 114.144 65.2071 114.301 64.9247 114.508C64.6532 114.703 64.4251 114.926 64.2405 115.176C64.0558 115.425 63.9418 115.692 63.8983 115.974V118.581C64.0721 118.983 64.3056 119.347 64.5989 119.672C64.8922 119.987 65.2289 120.243 65.609 120.438C66 120.623 66.4019 120.715 66.8147 120.715Z" />
  <path d="M76.7917 121.122C76.7048 121.155 76.5691 121.215 76.3844 121.302C76.1998 121.388 75.9771 121.465 75.7164 121.53C75.4557 121.595 75.1733 121.627 74.8692 121.627C74.5542 121.627 74.2555 121.568 73.9731 121.448C73.7016 121.329 73.4844 121.15 73.3214 120.911C73.1585 120.661 73.0771 120.357 73.0771 119.998V113.921H71.904V113.041H73.0771V110.174H74.1849V113.041H76.14V113.921H74.1849V119.689C74.2067 119.993 74.3153 120.221 74.5108 120.373C74.7172 120.525 74.9507 120.601 75.2114 120.601C75.5155 120.601 75.7924 120.552 76.0423 120.454C76.2921 120.346 76.4442 120.27 76.4985 120.226L76.7917 121.122Z" />
  <path d="M81.7909 115.664C81.7909 114.958 81.9104 114.269 82.1494 113.595C82.3992 112.911 82.7576 112.292 83.2247 111.738C83.6917 111.173 84.2674 110.728 84.9517 110.402C85.636 110.065 86.4126 109.897 87.2815 109.897C88.3133 109.897 89.1931 110.136 89.9209 110.614C90.6594 111.081 91.2025 111.684 91.5501 112.422L90.654 112.976C90.4042 112.466 90.0892 112.064 89.7091 111.771C89.3289 111.466 88.9216 111.249 88.4871 111.119C88.0635 110.989 87.6399 110.923 87.2163 110.923C86.5212 110.923 85.9075 111.065 85.3753 111.347C84.8431 111.618 84.3923 111.988 84.023 112.455C83.6646 112.911 83.393 113.427 83.2084 114.003C83.0237 114.567 82.9314 115.143 82.9314 115.73C82.9314 116.37 83.04 116.984 83.2573 117.571C83.4745 118.157 83.7786 118.679 84.1696 119.135C84.5606 119.58 85.0168 119.938 85.5382 120.21C86.0704 120.471 86.6461 120.601 87.2652 120.601C87.6997 120.601 88.145 120.525 88.6012 120.373C89.0574 120.221 89.481 119.987 89.872 119.672C90.2739 119.357 90.5943 118.95 90.8332 118.45L91.7782 118.939C91.5392 119.515 91.1699 120.004 90.6703 120.406C90.1707 120.807 89.6113 121.112 88.9922 121.318C88.3839 121.524 87.7866 121.627 87.2 121.627C86.4071 121.627 85.6794 121.459 85.0168 121.122C84.3543 120.775 83.7786 120.319 83.2898 119.754C82.8119 119.178 82.4426 118.537 82.182 117.831C81.9213 117.114 81.7909 116.392 81.7909 115.664Z" />
  <path d="M97.1147 121.693C96.5065 121.693 95.9417 121.579 95.4203 121.35C94.9098 121.112 94.4645 120.791 94.0843 120.389C93.715 119.976 93.4272 119.509 93.2208 118.988C93.0145 118.456 92.9113 117.896 92.9113 117.31C92.9113 116.702 93.0145 116.137 93.2208 115.616C93.4272 115.083 93.7205 114.616 94.1006 114.214C94.4808 113.802 94.9261 113.481 95.4366 113.253C95.958 113.014 96.5228 112.895 97.131 112.895C97.7393 112.895 98.2986 113.014 98.8091 113.253C99.3196 113.481 99.7649 113.802 100.145 114.214C100.525 114.616 100.819 115.083 101.025 115.616C101.231 116.137 101.334 116.702 101.334 117.31C101.334 117.896 101.231 118.456 101.025 118.988C100.819 119.509 100.525 119.976 100.145 120.389C99.7758 120.791 99.3305 121.112 98.8091 121.35C98.2986 121.579 97.7338 121.693 97.1147 121.693ZM94.0354 117.326C94.0354 117.956 94.1712 118.532 94.4428 119.053C94.7252 119.564 95.0999 119.971 95.5669 120.275C96.034 120.568 96.5499 120.715 97.1147 120.715C97.6795 120.715 98.1954 120.563 98.6625 120.259C99.1295 119.955 99.5043 119.542 99.7867 119.021C100.069 118.488 100.21 117.913 100.21 117.294C100.21 116.664 100.069 116.088 99.7867 115.567C99.5043 115.045 99.1295 114.633 98.6625 114.328C98.1954 114.024 97.6795 113.872 97.1147 113.872C96.5499 113.872 96.034 114.03 95.5669 114.345C95.1108 114.66 94.7415 115.078 94.4591 115.599C94.1767 116.11 94.0354 116.685 94.0354 117.326Z" />
  <path d="M115.814 121.53H114.706V116.789C114.706 115.8 114.549 115.072 114.234 114.605C113.919 114.138 113.452 113.905 112.832 113.905C112.192 113.905 111.616 114.133 111.105 114.589C110.606 115.045 110.253 115.632 110.046 116.349V121.53H108.939V116.789C108.939 115.789 108.786 115.062 108.482 114.605C108.178 114.138 107.711 113.905 107.081 113.905C106.451 113.905 105.881 114.128 105.371 114.573C104.86 115.018 104.502 115.605 104.295 116.332V121.53H103.187V113.041H104.197V114.964C104.556 114.301 105.012 113.791 105.566 113.432C106.131 113.074 106.755 112.895 107.44 112.895C108.146 112.895 108.716 113.096 109.15 113.498C109.585 113.899 109.851 114.426 109.949 115.078C110.34 114.361 110.807 113.818 111.35 113.449C111.904 113.079 112.528 112.895 113.223 112.895C113.701 112.895 114.103 112.982 114.429 113.155C114.766 113.329 115.032 113.579 115.227 113.905C115.434 114.22 115.58 114.605 115.667 115.062C115.765 115.507 115.814 116.007 115.814 116.561V121.53Z" />
  <path d="M122.493 121.693C121.787 121.693 121.152 121.508 120.587 121.139C120.033 120.769 119.593 120.313 119.267 119.77V125H118.159V113.041H119.153V114.687C119.49 114.155 119.94 113.726 120.505 113.4C121.07 113.063 121.673 112.895 122.314 112.895C122.9 112.895 123.438 113.02 123.927 113.269C124.415 113.508 124.839 113.834 125.197 114.247C125.556 114.66 125.833 115.132 126.028 115.664C126.235 116.186 126.338 116.729 126.338 117.294C126.338 118.087 126.175 118.82 125.849 119.493C125.534 120.156 125.089 120.688 124.513 121.09C123.938 121.492 123.264 121.693 122.493 121.693ZM122.183 120.715C122.65 120.715 123.069 120.623 123.438 120.438C123.807 120.243 124.122 119.982 124.383 119.656C124.654 119.33 124.861 118.966 125.002 118.564C125.143 118.152 125.214 117.728 125.214 117.294C125.214 116.837 125.132 116.403 124.969 115.99C124.817 115.578 124.595 115.214 124.301 114.899C124.008 114.584 123.671 114.334 123.291 114.149C122.911 113.965 122.498 113.872 122.053 113.872C121.771 113.872 121.477 113.927 121.173 114.035C120.869 114.144 120.576 114.301 120.293 114.508C120.022 114.703 119.794 114.926 119.609 115.176C119.425 115.425 119.31 115.692 119.267 115.974V118.581C119.441 118.983 119.674 119.347 119.968 119.672C120.261 119.987 120.598 120.243 120.978 120.438C121.369 120.623 121.771 120.715 122.183 120.715Z" />
  <path d="M128.215 121.53V113.041H129.323V121.53H128.215ZM128.215 111.265V109.636H129.323V111.265H128.215Z" />
  <path d="M131.812 109.636H132.919V119.607C132.919 120.031 132.995 120.308 133.148 120.438C133.3 120.568 133.484 120.634 133.701 120.634C133.897 120.634 134.092 120.612 134.288 120.568C134.484 120.525 134.652 120.482 134.793 120.438L134.989 121.334C134.782 121.421 134.527 121.492 134.223 121.546C133.93 121.6 133.674 121.627 133.457 121.627C132.957 121.627 132.556 121.481 132.251 121.188C131.958 120.894 131.812 120.492 131.812 119.982V109.636Z" />
  <path d="M139.868 121.693C139.259 121.693 138.694 121.579 138.173 121.35C137.652 121.112 137.201 120.791 136.821 120.389C136.441 119.976 136.142 119.504 135.925 118.972C135.718 118.44 135.615 117.869 135.615 117.261C135.615 116.468 135.794 115.74 136.153 115.078C136.522 114.415 137.027 113.889 137.668 113.498C138.309 113.096 139.037 112.895 139.851 112.895C140.688 112.895 141.415 113.096 142.034 113.498C142.664 113.899 143.159 114.432 143.517 115.094C143.875 115.746 144.055 116.463 144.055 117.245C144.055 117.332 144.055 117.419 144.055 117.505C144.055 117.581 144.049 117.641 144.038 117.685H136.772C136.826 118.293 136.995 118.836 137.277 119.314C137.57 119.781 137.945 120.156 138.401 120.438C138.868 120.71 139.373 120.845 139.916 120.845C140.47 120.845 140.992 120.704 141.48 120.422C141.98 120.139 142.328 119.77 142.523 119.314L143.484 119.575C143.311 119.976 143.045 120.34 142.686 120.666C142.328 120.992 141.904 121.247 141.415 121.432C140.937 121.606 140.421 121.693 139.868 121.693ZM136.739 116.886H143.012C142.969 116.267 142.8 115.724 142.507 115.257C142.224 114.79 141.85 114.426 141.383 114.166C140.927 113.894 140.421 113.758 139.868 113.758C139.314 113.758 138.809 113.894 138.352 114.166C137.896 114.426 137.521 114.795 137.228 115.273C136.946 115.74 136.783 116.278 136.739 116.886Z" />
  <path d="M150 114.019C149.261 114.041 148.61 114.247 148.045 114.638C147.491 115.029 147.1 115.567 146.872 116.251V121.53H145.764V113.041H146.807V115.078C147.1 114.481 147.486 113.997 147.963 113.628C148.452 113.259 148.968 113.052 149.511 113.009C149.62 112.998 149.712 112.992 149.788 112.992C149.875 112.992 149.946 112.998 150 113.009V114.019Z" />
</svg>
