<svg viewBox="0 0 150 100" xmlns="http://www.w3.org/2000/svg">
  <path d="M74.9996 0C58.4575 0 45 13.2736 45 29.5889C45 39.2837 49.7519 47.9041 57.0793 53.3041C57.8297 52.7745 58.7471 52.4589 59.74 52.4589H60.9613C53.1297 47.7649 47.8874 39.2693 47.8874 29.5889C47.8874 14.8436 60.0499 2.84721 75 2.84721C89.9501 2.84721 102.113 14.8436 102.113 29.5889C102.113 39.2693 96.8703 47.7645 89.0387 52.4589H90.2624C91.2549 52.4589 92.1715 52.7745 92.9219 53.3033C100.248 47.9033 105 39.2833 105 29.5889C104.999 13.2736 91.5417 0 74.9996 0Z" />
  <path d="M74.0696 14.5347H75.9256C76.3811 14.5347 76.7506 14.1703 76.7506 13.7211C76.7506 13.2719 76.3811 12.9075 75.9256 12.9075H74.0696C73.6141 12.9075 73.2446 13.2719 73.2446 13.7211C73.2446 14.1703 73.6141 14.5347 74.0696 14.5347Z" />
  <path d="M90.2621 53.8824H84.3681C82.7331 53.8824 81.4024 52.5796 81.4024 50.978V46.4868C80.8775 46.72 80.2971 46.8528 79.6843 46.8528C79.0718 46.8528 78.4914 46.72 77.9662 46.4868V50.978C77.9662 52.5796 76.6359 53.8824 75.0005 53.8824C73.3652 53.8824 72.0348 52.5796 72.0348 50.978V46.4856C71.5092 46.7192 70.928 46.8524 70.3143 46.8524C69.701 46.8524 69.1202 46.7192 68.5946 46.4856V50.9776C68.5946 52.5792 67.2642 53.882 65.6289 53.882H59.7397C58.0159 53.882 56.6134 55.254 56.6134 56.9408C56.6134 58.6276 58.0159 60 59.7397 60H90.2617C91.9855 60 93.388 58.628 93.388 56.9412C93.388 55.2544 91.9859 53.8824 90.2621 53.8824Z" />
  <path d="M79.5481 10.3687L77.4622 7.04713C76.9337 6.20433 76.0154 5.70033 75.0063 5.69913H75.003C73.9935 5.69913 73.0745 6.20153 72.5427 7.04593L70.4547 10.3691C69.65 11.6527 69.2246 13.1267 69.2246 14.6315L69.2242 19.8488C69.2242 20.6064 69.0408 21.3616 68.6936 22.0328C67.0299 25.2516 62.3027 32.5752 60.3474 35.5744C59.7767 36.4504 59.7361 37.562 60.2419 38.4752C60.7509 39.3948 61.7292 39.966 62.7947 39.966L67.5669 39.9664V42.732C67.5669 44.2188 68.7999 45.4288 70.316 45.4288C71.8317 45.4288 73.0647 44.2188 73.0647 42.732V39.9668L76.9365 39.9672V42.732C76.9365 44.2188 78.1695 45.4288 79.6852 45.4288C81.2009 45.4288 82.4339 44.2188 82.4339 42.732V39.968L87.2057 39.9684C88.2716 39.9684 89.2499 39.3972 89.7589 38.4776C90.2647 37.5644 90.2241 36.4528 89.6535 35.5776C87.6985 32.578 82.9725 25.2528 81.3104 22.0348C80.9636 21.3632 80.7803 20.6076 80.7803 19.85L80.7807 14.6331C80.7811 13.1315 80.3552 11.6575 79.5481 10.3687ZM72.1112 14.6319C72.1116 13.6563 72.3878 12.6995 72.9094 11.8675L75.0071 8.54553L77.0927 11.8667C77.6171 12.7035 77.8941 13.6603 77.8941 14.6323L77.8933 19.8496C77.8933 19.9236 77.8978 19.9968 77.8998 20.0704C77.8986 20.0896 77.8941 20.108 77.8941 20.1276V37.1184L72.1018 37.1168V26.9672C72.1018 26.916 72.0941 26.8668 72.0864 26.8176C72.0937 26.7684 72.1018 26.7192 72.1018 26.6676V20.1332C72.1055 20.0384 72.1104 19.9436 72.1104 19.8488L72.1112 14.6319ZM62.7752 37.1144C64.761 34.068 67.9944 29.0432 70.0394 25.53V26.668C70.0394 26.7192 70.0471 26.7684 70.0548 26.818C70.0475 26.8672 70.0394 26.9164 70.0394 26.9676V37.1164L62.7752 37.1144ZM71.0019 42.732C71.0019 43.0976 70.694 43.3948 70.3152 43.3948C69.9368 43.3948 69.6285 43.0972 69.6285 42.732V39.9664H71.0019V42.732ZM80.3715 42.732C80.3715 43.0976 80.0636 43.3948 79.6848 43.3948C79.306 43.3948 78.9981 43.0972 78.9981 42.732V39.9676H80.3711L80.3715 42.732ZM87.2215 37.1196C87.2215 37.1196 87.2171 37.1208 87.2061 37.1208L79.9565 37.1188V25.5196C82.0003 29.0336 85.237 34.0672 87.2215 37.1196Z" />
  <path d="M0 99.5843V72.7557H7.3778V82.9582L15.5501 72.7557H23.8738L14.1124 84.7719L24.5548 99.5843H16.0798L9.42089 89.722L7.3778 91.8381V99.5843H0Z" />
  <path d="M34.0626 99.9622C32.3222 99.9622 30.771 99.6977 29.4089 99.1687C28.0469 98.6145 26.8992 97.8713 25.966 96.9393C25.0579 96.0072 24.3643 94.9366 23.8851 93.7274C23.4058 92.5182 23.1662 91.2461 23.1662 89.9109C23.1662 87.9964 23.5824 86.2456 24.4147 84.6586C25.2471 83.0463 26.4704 81.7616 28.0847 80.8043C29.699 79.8219 31.6917 79.3306 34.0626 79.3306C36.4336 79.3306 38.4263 79.8093 40.0406 80.7665C41.6548 81.7238 42.8782 82.9834 43.7105 84.5452C44.5429 86.1071 44.9591 87.8075 44.9591 89.6464C44.9591 90.0243 44.9339 90.4148 44.8834 90.8178C44.8582 91.1957 44.8204 91.5358 44.7699 91.8381H30.8088C30.8593 92.5434 31.0485 93.1228 31.3764 93.5762C31.7295 94.0045 32.1583 94.3194 32.6627 94.5209C33.1924 94.7224 33.7347 94.8232 34.2896 94.8232C35.0716 94.8232 35.803 94.6469 36.4841 94.2942C37.1903 93.9415 37.657 93.4503 37.884 92.8205L43.9754 94.5587C43.4457 95.6167 42.7016 96.5488 41.7431 97.3549C40.8099 98.161 39.7 98.8034 38.4137 99.2821C37.1273 99.7355 35.6769 99.9622 34.0626 99.9622ZM30.6575 87.5304H37.2408C37.1651 86.8754 36.9759 86.3212 36.6732 85.8677C36.3958 85.4143 36.0174 85.0616 35.5382 84.8097C35.0842 84.5578 34.5545 84.4318 33.9491 84.4318C33.3438 84.4318 32.8015 84.5578 32.3222 84.8097C31.8682 85.0616 31.4899 85.4143 31.1872 85.8677C30.9097 86.3212 30.7332 86.8754 30.6575 87.5304Z" />
  <path d="M60.8261 85.83C59.4388 85.83 58.1777 85.9811 57.0426 86.2834C55.9076 86.5857 55.0626 87.0895 54.5077 87.7949V99.5843H47.319V79.7085H53.9023V83.4872C54.6086 82.152 55.4914 81.1318 56.5508 80.4265C57.6101 79.6959 58.7326 79.3306 59.9181 79.3306C60.1955 79.3306 60.3847 79.3306 60.4856 79.3306C60.6117 79.3306 60.7252 79.3432 60.8261 79.3684V85.83Z" />
  <path d="M75.7336 99.9622C74.2455 99.9622 72.9591 99.6725 71.8745 99.0931C70.7899 98.4885 69.9323 97.6194 69.3017 96.4858V99.5843H63.0589V72H70.2476V82.6559C70.8277 81.5726 71.6475 80.7539 72.7068 80.1997C73.7662 79.6203 75.0148 79.3306 76.4525 79.3306C77.6632 79.3306 78.7857 79.5951 79.8198 80.1242C80.854 80.628 81.7494 81.3459 82.5061 82.278C83.288 83.2101 83.8934 84.3185 84.3222 85.6032C84.751 86.8628 84.9654 88.2357 84.9654 89.722C84.9654 91.1831 84.7257 92.5434 84.2465 93.803C83.7925 95.0373 83.1493 96.1206 82.3169 97.0526C81.5098 97.9847 80.5387 98.7027 79.4036 99.2065C78.2938 99.7103 77.0705 99.9622 75.7336 99.9622ZM73.6527 93.9163C74.2329 93.9163 74.7625 93.8156 75.2418 93.614C75.721 93.4125 76.1372 93.1354 76.4903 92.7827C76.8435 92.4049 77.1083 91.964 77.2849 91.4602C77.4867 90.9564 77.5875 90.3896 77.5875 89.7598C77.5875 88.9537 77.4236 88.2231 77.0957 87.5682C76.793 86.888 76.3642 86.359 75.8093 85.9811C75.2796 85.578 74.6617 85.3765 73.9554 85.3765C73.4509 85.3765 72.9591 85.5025 72.4798 85.7544C72.0006 86.0063 71.5592 86.359 71.1556 86.8124C70.7773 87.2407 70.4746 87.7445 70.2476 88.3239V91.8758C70.4746 92.2033 70.7142 92.5056 70.9664 92.7827C71.2439 93.0346 71.5214 93.2488 71.7988 93.4251C72.0763 93.5762 72.3663 93.7022 72.669 93.803C72.9969 93.8785 73.3248 93.9163 73.6527 93.9163Z" />
  <path d="M97.3548 99.9622C95.5892 99.9622 94.0253 99.6851 92.6633 99.1309C91.3012 98.5767 90.1536 97.821 89.2203 96.8637C88.3123 95.8812 87.6186 94.7728 87.1394 93.5385C86.6854 92.3041 86.4584 91.0067 86.4584 89.6464C86.4584 88.2861 86.6854 86.9888 87.1394 85.7544C87.6186 84.4948 88.3123 83.3864 89.2203 82.4291C90.1536 81.4719 91.3012 80.7161 92.6633 80.1619C94.0253 79.6077 95.5892 79.3306 97.3548 79.3306C99.1457 79.3306 100.71 79.6077 102.046 80.1619C103.408 80.7161 104.543 81.4719 105.451 82.4291C106.385 83.3864 107.078 84.4948 107.532 85.7544C108.012 86.9888 108.251 88.2861 108.251 89.6464C108.251 91.0067 108.012 92.3041 107.532 93.5385C107.078 94.7728 106.385 95.8812 105.451 96.8637C104.543 97.821 103.408 98.5767 102.046 99.1309C100.71 99.6851 99.1457 99.9622 97.3548 99.9622ZM93.8362 89.6464C93.8362 90.5281 93.9875 91.2964 94.2902 91.9514C94.5929 92.5812 95.009 93.0724 95.5387 93.4251C96.0684 93.7526 96.6738 93.9163 97.3548 93.9163C98.0358 93.9163 98.6412 93.7526 99.1709 93.4251C99.7006 93.0724 100.117 92.5812 100.419 91.9514C100.722 91.2964 100.873 90.5281 100.873 89.6464C100.873 88.7647 100.722 88.009 100.419 87.3792C100.117 86.7242 99.7006 86.233 99.1709 85.9055C98.6412 85.5529 98.0358 85.3765 97.3548 85.3765C96.6738 85.3765 96.0684 85.5529 95.5387 85.9055C95.009 86.233 94.5929 86.7242 94.2902 87.3792C93.9875 88.009 93.8362 88.7647 93.8362 89.6464Z" />
  <path d="M110.347 92.3293C110.499 92.43 110.978 92.6442 111.785 92.9717C112.592 93.2991 113.538 93.4629 114.623 93.4629C115.405 93.4629 116.035 93.3369 116.514 93.085C116.994 92.8079 117.347 92.3923 117.574 91.8381C117.826 91.2839 117.99 90.5659 118.066 89.6842C118.166 88.7773 118.217 87.6815 118.217 86.3968V72.7557H125.595V86.3968C125.595 88.4372 125.469 90.2888 125.216 91.9514C124.989 93.614 124.51 95.0499 123.779 96.2591C123.047 97.4683 121.95 98.4004 120.487 99.0553C119.024 99.6851 117.069 100 114.623 100C113.462 100 112.403 99.8614 111.444 99.5843C110.486 99.3072 109.603 98.8916 108.796 98.3374L110.347 92.3293Z" />
  <path d="M146.179 81.5223C146.179 81.5223 145.964 81.3963 145.535 81.1444C145.107 80.8925 144.539 80.6154 143.833 80.3131C143.127 79.9856 142.357 79.6959 141.525 79.444C140.693 79.1921 139.873 79.0661 139.066 79.0661C138.435 79.0661 137.918 79.1669 137.514 79.3684C137.111 79.57 136.909 79.91 136.909 80.3887C136.909 80.8421 137.111 81.2074 137.514 81.4845C137.918 81.7616 138.486 82.0135 139.217 82.2402C139.974 82.4669 140.869 82.744 141.903 83.0715C143.568 83.5753 145.006 84.1547 146.217 84.8097C147.427 85.4647 148.36 86.3086 149.016 87.3414C149.672 88.3491 150 89.6968 150 91.3846C150 92.9969 149.71 94.3572 149.13 95.4656C148.55 96.5488 147.768 97.4179 146.784 98.0729C145.8 98.7278 144.703 99.2065 143.492 99.5088C142.282 99.7859 141.046 99.9244 139.785 99.9244C138.498 99.9244 137.149 99.7985 135.736 99.5466C134.349 99.2695 133 98.9042 131.688 98.4507C130.376 97.9721 129.178 97.4179 128.094 96.7881L131.272 90.3266C131.272 90.3266 131.524 90.4777 132.028 90.78C132.533 91.0823 133.201 91.4224 134.034 91.8003C134.866 92.1781 135.787 92.5182 136.796 92.8205C137.83 93.1228 138.864 93.274 139.898 93.274C140.705 93.274 141.26 93.1732 141.563 92.9717C141.891 92.7449 142.055 92.4552 142.055 92.1026C142.055 91.5735 141.777 91.1705 141.222 90.8934C140.667 90.5911 139.936 90.314 139.028 90.0621C138.145 89.785 137.161 89.4701 136.077 89.1174C134.513 88.5884 133.227 87.9964 132.218 87.3414C131.209 86.6613 130.465 85.8677 129.985 84.9609C129.506 84.0288 129.266 82.9078 129.266 81.5978C129.266 79.6077 129.733 77.9451 130.666 76.61C131.6 75.2749 132.823 74.2672 134.336 73.587C135.875 72.8817 137.527 72.529 139.293 72.529C140.604 72.529 141.865 72.6928 143.076 73.0202C144.312 73.3225 145.46 73.7004 146.519 74.1538C147.604 74.6073 148.55 75.0355 149.357 75.4386L146.179 81.5223Z" />
</svg>
