<svg viewBox="0 0 150 28" xmlns="http://www.w3.org/2000/svg">
  <path d="M0 27.5843V0.755735H7.3778V10.9582L15.5501 0.755735H23.8738L14.1124 12.7719L24.5548 27.5843H16.0798L9.42089 17.722L7.3778 19.8381V27.5843H0Z" />
  <path d="M34.0626 27.9622C32.3222 27.9622 30.771 27.6977 29.4089 27.1687C28.0469 26.6145 26.8992 25.8713 25.966 24.9393C25.0579 24.0072 24.3643 22.9366 23.8851 21.7274C23.4058 20.5182 23.1662 19.2461 23.1662 17.9109C23.1662 15.9964 23.5824 14.2456 24.4147 12.6586C25.2471 11.0463 26.4704 9.76158 28.0847 8.80432C29.699 7.82186 31.6917 7.33063 34.0626 7.33063C36.4336 7.33063 38.4263 7.80927 40.0406 8.76653C41.6548 9.7238 42.8782 10.9834 43.7105 12.5452C44.5429 14.1071 44.9591 15.8075 44.9591 17.6464C44.9591 18.0243 44.9339 18.4148 44.8834 18.8178C44.8582 19.1957 44.8204 19.5358 44.7699 19.8381H30.8088C30.8593 20.5434 31.0485 21.1228 31.3764 21.5762C31.7295 22.0045 32.1583 22.3194 32.6627 22.5209C33.1924 22.7224 33.7347 22.8232 34.2896 22.8232C35.0716 22.8232 35.803 22.6469 36.4841 22.2942C37.1903 21.9415 37.657 21.4503 37.884 20.8205L43.9754 22.5587C43.4457 23.6167 42.7016 24.5488 41.7431 25.3549C40.8099 26.161 39.7 26.8034 38.4137 27.2821C37.1273 27.7355 35.6769 27.9622 34.0626 27.9622ZM30.6575 15.5304H37.2408C37.1651 14.8754 36.9759 14.3212 36.6732 13.8677C36.3958 13.4143 36.0174 13.0616 35.5382 12.8097C35.0842 12.5578 34.5545 12.4318 33.9491 12.4318C33.3438 12.4318 32.8015 12.5578 32.3222 12.8097C31.8682 13.0616 31.4899 13.4143 31.1872 13.8677C30.9097 14.3212 30.7332 14.8754 30.6575 15.5304Z" />
  <path d="M60.8261 13.83C59.4388 13.83 58.1777 13.9811 57.0426 14.2834C55.9076 14.5857 55.0626 15.0895 54.5077 15.7949V27.5843H47.319V7.7085H53.9023V11.4872C54.6086 10.152 55.4914 9.1318 56.5508 8.42645C57.6101 7.69591 58.7326 7.33063 59.9181 7.33063C60.1955 7.33063 60.3847 7.33063 60.4856 7.33063C60.6117 7.33063 60.7252 7.34323 60.8261 7.36842V13.83Z" />
  <path d="M75.7336 27.9622C74.2455 27.9622 72.9591 27.6725 71.8745 27.0931C70.7899 26.4885 69.9323 25.6194 69.3017 24.4858V27.5843H63.0589V0H70.2476V10.6559C70.8277 9.57265 71.6475 8.75394 72.7068 8.19973C73.7662 7.62033 75.0148 7.33063 76.4525 7.33063C77.6632 7.33063 78.7857 7.59514 79.8198 8.12416C80.854 8.62798 81.7494 9.34593 82.5061 10.278C83.288 11.2101 83.8934 12.3185 84.3222 13.6032C84.751 14.8628 84.9654 16.2357 84.9654 17.722C84.9654 19.1831 84.7257 20.5434 84.2465 21.803C83.7925 23.0373 83.1493 24.1206 82.3169 25.0526C81.5098 25.9847 80.5387 26.7027 79.4036 27.2065C78.2938 27.7103 77.0705 27.9622 75.7336 27.9622ZM73.6527 21.9163C74.2329 21.9163 74.7625 21.8156 75.2418 21.614C75.721 21.4125 76.1372 21.1354 76.4903 20.7827C76.8435 20.4049 77.1083 19.964 77.2849 19.4602C77.4867 18.9564 77.5875 18.3896 77.5875 17.7598C77.5875 16.9537 77.4236 16.2231 77.0957 15.5682C76.793 14.888 76.3642 14.359 75.8093 13.9811C75.2796 13.578 74.6617 13.3765 73.9554 13.3765C73.4509 13.3765 72.9591 13.5025 72.4798 13.7544C72.0006 14.0063 71.5592 14.359 71.1556 14.8124C70.7773 15.2407 70.4746 15.7445 70.2476 16.3239V19.8758C70.4746 20.2033 70.7142 20.5056 70.9664 20.7827C71.2439 21.0346 71.5214 21.2488 71.7988 21.4251C72.0763 21.5762 72.3663 21.7022 72.669 21.803C72.9969 21.8785 73.3248 21.9163 73.6527 21.9163Z" />
  <path d="M97.3548 27.9622C95.5892 27.9622 94.0253 27.6851 92.6633 27.1309C91.3012 26.5767 90.1536 25.821 89.2203 24.8637C88.3123 23.8812 87.6186 22.7728 87.1394 21.5385C86.6854 20.3041 86.4584 19.0067 86.4584 17.6464C86.4584 16.2861 86.6854 14.9888 87.1394 13.7544C87.6186 12.4948 88.3123 11.3864 89.2203 10.4291C90.1536 9.47189 91.3012 8.71615 92.6633 8.16194C94.0253 7.60774 95.5892 7.33063 97.3548 7.33063C99.1457 7.33063 100.71 7.60774 102.046 8.16194C103.408 8.71615 104.543 9.47189 105.451 10.4291C106.385 11.3864 107.078 12.4948 107.532 13.7544C108.012 14.9888 108.251 16.2861 108.251 17.6464C108.251 19.0067 108.012 20.3041 107.532 21.5385C107.078 22.7728 106.385 23.8812 105.451 24.8637C104.543 25.821 103.408 26.5767 102.046 27.1309C100.71 27.6851 99.1457 27.9622 97.3548 27.9622ZM93.8362 17.6464C93.8362 18.5281 93.9875 19.2964 94.2902 19.9514C94.5929 20.5812 95.009 21.0724 95.5387 21.4251C96.0684 21.7526 96.6738 21.9163 97.3548 21.9163C98.0358 21.9163 98.6412 21.7526 99.1709 21.4251C99.7006 21.0724 100.117 20.5812 100.419 19.9514C100.722 19.2964 100.873 18.5281 100.873 17.6464C100.873 16.7647 100.722 16.009 100.419 15.3792C100.117 14.7242 99.7006 14.233 99.1709 13.9055C98.6412 13.5529 98.0358 13.3765 97.3548 13.3765C96.6738 13.3765 96.0684 13.5529 95.5387 13.9055C95.009 14.233 94.5929 14.7242 94.2902 15.3792C93.9875 16.009 93.8362 16.7647 93.8362 17.6464Z" />
  <path d="M110.347 20.3293C110.499 20.43 110.978 20.6442 111.785 20.9717C112.592 21.2991 113.538 21.4629 114.623 21.4629C115.405 21.4629 116.035 21.3369 116.514 21.085C116.994 20.8079 117.347 20.3923 117.574 19.8381C117.826 19.2839 117.99 18.5659 118.066 17.6842C118.166 16.7773 118.217 15.6815 118.217 14.3968V0.755735H125.595V14.3968C125.595 16.4372 125.469 18.2888 125.216 19.9514C124.989 21.614 124.51 23.0499 123.779 24.2591C123.047 25.4683 121.95 26.4004 120.487 27.0553C119.024 27.6851 117.069 28 114.623 28C113.462 28 112.403 27.8614 111.444 27.5843C110.486 27.3072 109.603 26.8916 108.796 26.3374L110.347 20.3293Z" />
  <path d="M146.179 9.52227C146.179 9.52227 145.964 9.39631 145.535 9.1444C145.107 8.89249 144.539 8.61538 143.833 8.31309C143.127 7.9856 142.357 7.69591 141.525 7.44399C140.693 7.19208 139.873 7.06613 139.066 7.06613C138.435 7.06613 137.918 7.16689 137.514 7.36842C137.111 7.56995 136.909 7.91003 136.909 8.38866C136.909 8.84211 137.111 9.20738 137.514 9.48448C137.918 9.76158 138.486 10.0135 139.217 10.2402C139.974 10.4669 140.869 10.744 141.903 11.0715C143.568 11.5753 145.006 12.1547 146.217 12.8097C147.427 13.4647 148.36 14.3086 149.016 15.3414C149.672 16.3491 150 17.6968 150 19.3846C150 20.9969 149.71 22.3572 149.13 23.4656C148.55 24.5488 147.768 25.4179 146.784 26.0729C145.8 26.7278 144.703 27.2065 143.492 27.5088C142.282 27.7859 141.046 27.9244 139.785 27.9244C138.498 27.9244 137.149 27.7985 135.736 27.5466C134.349 27.2695 133 26.9042 131.688 26.4507C130.376 25.9721 129.178 25.4179 128.094 24.7881L131.272 18.3266C131.272 18.3266 131.524 18.4777 132.028 18.78C132.533 19.0823 133.201 19.4224 134.034 19.8003C134.866 20.1781 135.787 20.5182 136.796 20.8205C137.83 21.1228 138.864 21.274 139.898 21.274C140.705 21.274 141.26 21.1732 141.563 20.9717C141.891 20.7449 142.055 20.4552 142.055 20.1026C142.055 19.5735 141.777 19.1705 141.222 18.8934C140.667 18.5911 139.936 18.314 139.028 18.0621C138.145 17.785 137.161 17.4701 136.077 17.1174C134.513 16.5884 133.227 15.9964 132.218 15.3414C131.209 14.6613 130.465 13.8677 129.985 12.9609C129.506 12.0288 129.266 10.9078 129.266 9.59784C129.266 7.60774 129.733 5.94512 130.666 4.60999C131.6 3.27485 132.823 2.26721 134.336 1.58704C135.875 0.881691 137.527 0.529015 139.293 0.529015C140.604 0.529015 141.865 0.692758 143.076 1.02024C144.312 1.32254 145.46 1.7004 146.519 2.15385C147.604 2.60729 148.55 3.03554 149.357 3.4386L146.179 9.52227Z" />
</svg>
